{"glyphs":{"0":{"ha":914,"x_min":58,"x_max":856,"o":"m 457 -11 q 188 22 267 -11 q 83 150 108 54 q 58 478 58 246 q 83 806 58 710 q 188 934 108 901 q 457 967 267 967 q 726 934 647 967 q 831 806 806 901 q 856 478 856 710 q 831 150 856 246 q 726 22 806 54 q 457 -11 647 -11 m 457 221 q 509 233 496 221 q 526 292 522 246 q 529 478 529 338 q 526 664 529 618 q 509 722 522 710 q 457 735 496 735 q 405 722 418 735 q 388 664 392 710 q 385 478 385 618 q 388 292 385 338 q 405 233 392 246 q 457 221 418 221 z "},"1":{"ha":564,"x_min":7,"x_max":494,"o":"m 169 0 l 169 653 l 7 589 l 7 825 l 272 956 l 494 956 l 494 0 l 169 0 z "},"2":{"ha":853,"x_min":60,"x_max":790,"o":"m 378 290 q 371 266 372 279 q 369 236 369 253 l 790 236 l 790 0 l 60 0 l 60 144 q 67 328 60 267 q 106 435 75 390 q 204 507 136 479 l 328 557 q 399 585 394 583 q 445 608 432 599 q 462 630 458 617 q 465 675 465 643 q 456 715 465 703 q 426 731 447 728 q 358 735 406 735 q 79 714 263 735 l 79 933 q 251 958 151 949 q 433 967 350 967 q 621 947 544 967 q 744 866 697 926 q 790 690 790 806 q 751 494 790 561 q 643 403 713 428 l 526 358 l 425 319 q 393 305 404 311 q 378 290 382 299 z "},"3":{"ha":849,"x_min":63,"x_max":789,"o":"m 386 -11 q 223 -2 314 -11 q 63 21 132 7 l 63 238 q 354 221 236 221 q 428 224 407 221 q 456 242 449 228 q 464 290 464 256 q 457 344 464 328 q 433 365 450 361 q 376 369 417 369 l 228 369 l 228 596 l 376 596 q 433 601 417 596 q 453 619 449 606 q 457 667 457 632 q 450 715 457 701 q 422 731 443 728 q 340 735 400 735 q 203 729 281 735 q 68 717 126 724 l 68 935 q 226 958 136 949 q 388 967 317 967 q 622 938 536 967 q 745 856 708 910 q 782 715 782 801 q 742 563 782 614 q 615 490 701 511 l 615 485 q 713 446 676 469 q 769 377 750 422 q 789 256 789 332 q 755 109 789 167 q 633 20 721 51 q 386 -11 544 -11 z "},"4":{"ha":911,"x_min":38,"x_max":881,"o":"m 463 0 l 463 174 l 38 174 l 38 381 l 322 956 l 668 956 l 367 406 l 478 406 l 576 578 l 779 578 l 779 406 l 881 406 l 881 174 l 779 174 l 779 0 l 463 0 z "},"5":{"ha":874,"x_min":86,"x_max":814,"o":"m 86 236 q 368 221 249 221 q 449 226 426 221 q 481 247 472 231 q 489 306 489 264 q 481 362 489 344 q 449 385 472 379 q 371 390 425 390 q 97 376 232 390 l 97 956 l 743 956 l 743 719 l 371 719 l 371 608 q 528 617 440 617 q 751 543 688 617 q 814 322 814 469 q 781 131 814 203 q 659 24 747 60 q 410 -11 571 -11 q 250 -3 340 -11 q 86 19 160 6 l 86 236 z "},"6":{"ha":924,"x_min":58,"x_max":869,"o":"m 479 -11 q 294 1 365 -11 q 174 49 224 14 q 94 151 125 83 q 58 479 58 232 q 96 781 58 685 q 226 924 135 882 q 489 967 318 967 q 640 958 550 967 q 811 935 729 949 l 811 718 q 546 735 615 735 q 436 722 469 735 q 391 672 403 710 q 379 551 379 635 l 388 551 q 568 617 439 617 q 734 593 669 617 q 834 507 799 569 q 869 328 869 444 q 837 132 869 204 q 719 24 804 60 q 479 -11 635 -11 m 468 215 q 531 221 511 215 q 558 244 550 226 q 565 301 565 263 q 558 360 565 342 q 531 384 550 378 q 468 390 511 390 q 410 383 428 390 q 387 358 392 375 q 382 307 382 342 q 390 243 382 263 q 415 219 399 224 q 468 215 431 215 z "},"7":{"ha":803,"x_min":40,"x_max":765,"o":"m 107 0 l 431 719 l 40 719 l 40 956 l 765 956 l 765 740 l 460 0 l 107 0 z "},"8":{"ha":942,"x_min":56,"x_max":886,"o":"m 471 -11 q 217 20 308 -11 q 91 109 126 51 q 56 256 56 167 q 97 415 56 365 q 229 485 139 464 l 229 490 q 103 563 143 511 q 64 715 64 614 q 102 855 64 800 q 229 938 140 910 q 471 967 318 967 q 713 938 624 967 q 840 855 801 910 q 878 715 878 800 q 838 563 878 614 q 713 490 797 511 l 713 485 q 844 415 803 464 q 886 256 886 365 q 851 109 886 167 q 724 20 815 51 q 471 -11 633 -11 m 471 578 q 530 583 513 578 q 552 604 547 588 q 557 661 557 621 q 552 719 557 703 q 530 741 547 736 q 471 746 513 746 q 413 741 429 746 q 390 719 396 736 q 385 661 385 703 q 390 604 385 621 q 412 583 394 588 q 471 578 429 578 m 471 208 q 533 214 514 208 q 558 238 551 219 q 565 296 565 256 q 558 357 565 339 q 533 381 551 375 q 471 386 514 386 q 410 381 428 386 q 384 357 392 375 q 376 296 376 339 q 383 238 376 256 q 409 214 390 219 q 471 208 428 208 z "},"9":{"ha":924,"x_min":54,"x_max":865,"o":"m 435 -11 q 281 -2 372 -11 q 113 21 190 7 l 113 238 q 378 221 310 221 q 488 233 454 221 q 533 283 521 246 q 544 404 544 321 l 536 404 q 356 339 485 339 q 190 363 254 339 q 90 449 125 386 q 54 628 54 511 q 87 824 54 751 q 204 931 119 896 q 444 967 289 967 q 647 953 571 967 q 768 899 722 939 q 835 785 814 860 q 858 653 851 726 q 865 476 865 579 q 853 276 865 357 q 814 144 842 194 q 679 24 768 60 q 435 -11 590 -11 m 456 565 q 514 573 496 565 q 537 597 532 581 q 542 649 542 614 q 533 713 542 693 q 509 736 525 732 q 456 740 493 740 q 393 735 413 740 q 366 711 374 729 q 358 654 358 693 q 366 596 358 614 q 393 572 374 578 q 456 565 413 565 z "},"\u0000":{"ha":0,"x_min":0,"x_max":0,"o":""},"\r":{"ha":367,"x_min":0,"x_max":0,"o":""}," ":{"ha":367,"x_min":0,"x_max":0,"o":""},"A":{"ha":968,"x_min":-7,"x_max":975,"o":"m 653 0 l 618 143 l 342 143 l 308 0 l -7 0 l 258 956 l 710 956 l 975 0 l 653 0 m 485 694 l 472 694 l 394 365 l 564 365 l 485 694 z "},"Á":{"ha":968,"x_min":-7,"x_max":975,"o":"m 653 0 l 618 143 l 342 143 l 308 0 l -7 0 l 258 956 l 710 956 l 975 0 l 653 0 m 485 694 l 472 694 l 394 365 l 564 365 l 485 694 m 333 1042 l 333 1049 l 453 1247 l 728 1247 l 728 1240 l 539 1042 l 333 1042 z "},"Ă":{"ha":968,"x_min":-7,"x_max":975,"o":"m 653 0 l 618 143 l 342 143 l 308 0 l -7 0 l 258 956 l 710 956 l 975 0 l 653 0 m 485 694 l 472 694 l 394 365 l 564 365 l 485 694 m 708 1233 q 691 1119 708 1165 q 624 1048 674 1074 q 483 1022 575 1022 q 343 1048 392 1022 q 277 1119 294 1074 q 260 1233 260 1165 l 414 1233 q 417 1197 414 1210 q 436 1175 421 1183 q 483 1167 451 1167 q 532 1175 517 1167 q 551 1197 547 1183 q 554 1233 554 1210 l 708 1233 z "},"Ắ":{"ha":968,"x_min":-7,"x_max":975,"o":"m 653 0 l 618 143 l 342 143 l 308 0 l -7 0 l 258 956 l 710 956 l 975 0 l 653 0 m 485 694 l 472 694 l 394 365 l 564 365 l 485 694 m 704 1233 q 687 1119 704 1165 q 620 1048 669 1074 q 479 1022 571 1022 q 339 1048 388 1022 q 273 1119 290 1074 q 256 1233 256 1165 l 410 1233 q 413 1197 410 1210 q 432 1175 417 1183 q 479 1167 447 1167 q 528 1175 513 1167 q 547 1197 543 1183 q 550 1233 550 1210 l 704 1233 m 358 1268 l 358 1275 l 478 1474 l 753 1474 l 753 1467 l 564 1268 l 358 1268 z "},"Ặ":{"ha":968,"x_min":-7,"x_max":975,"o":"m 653 0 l 618 143 l 342 143 l 308 0 l -7 0 l 258 956 l 710 956 l 975 0 l 653 0 m 485 694 l 472 694 l 394 365 l 564 365 l 485 694 m 332 -324 l 332 -86 l 636 -86 l 636 -324 l 332 -324 m 708 1233 q 691 1119 708 1165 q 624 1048 674 1074 q 483 1022 575 1022 q 343 1048 392 1022 q 277 1119 294 1074 q 260 1233 260 1165 l 414 1233 q 417 1197 414 1210 q 436 1175 421 1183 q 483 1167 451 1167 q 532 1175 517 1167 q 551 1197 547 1183 q 554 1233 554 1210 l 708 1233 z "},"Ằ":{"ha":968,"x_min":-7,"x_max":975,"o":"m 653 0 l 618 143 l 342 143 l 308 0 l -7 0 l 258 956 l 710 956 l 975 0 l 653 0 m 485 694 l 472 694 l 394 365 l 564 365 l 485 694 m 714 1233 q 697 1119 714 1165 q 630 1048 679 1074 q 489 1022 581 1022 q 349 1048 397 1022 q 283 1119 300 1074 q 265 1233 265 1165 l 419 1233 q 423 1197 419 1210 q 442 1175 426 1183 q 489 1167 457 1167 q 538 1175 522 1167 q 556 1197 553 1183 q 560 1233 560 1210 l 714 1233 m 394 1268 l 206 1467 l 206 1474 l 481 1474 l 600 1275 l 600 1268 l 394 1268 z "},"Ẳ":{"ha":968,"x_min":-7,"x_max":975,"o":"m 653 0 l 618 143 l 342 143 l 308 0 l -7 0 l 258 956 l 710 956 l 975 0 l 653 0 m 485 694 l 472 694 l 394 365 l 564 365 l 485 694 m 704 1233 q 687 1119 704 1165 q 620 1048 669 1074 q 479 1022 571 1022 q 339 1048 388 1022 q 273 1119 290 1074 q 256 1233 256 1165 l 410 1233 q 413 1197 410 1210 q 432 1175 417 1183 q 479 1167 447 1167 q 528 1175 513 1167 q 547 1197 543 1183 q 550 1233 550 1210 l 704 1233 m 403 1251 q 416 1324 403 1304 q 474 1354 429 1343 l 494 1360 q 525 1372 518 1367 q 532 1393 532 1378 q 518 1422 532 1417 q 458 1428 504 1428 q 385 1426 425 1428 q 313 1419 344 1424 l 313 1546 q 404 1558 350 1553 q 504 1563 458 1563 q 617 1554 575 1563 q 687 1513 660 1546 q 714 1411 714 1481 q 701 1343 714 1367 q 667 1309 688 1319 q 606 1288 646 1299 l 592 1283 q 560 1269 568 1276 q 553 1249 553 1261 l 403 1249 l 403 1251 z "},"Ẵ":{"ha":968,"x_min":-7,"x_max":975,"o":"m 653 0 l 618 143 l 342 143 l 308 0 l -7 0 l 258 956 l 710 956 l 975 0 l 653 0 m 485 694 l 472 694 l 394 365 l 564 365 l 485 694 m 706 1233 q 688 1119 706 1165 q 622 1048 671 1074 q 481 1022 572 1022 q 340 1048 389 1022 q 274 1119 292 1074 q 257 1233 257 1165 l 411 1233 q 415 1197 411 1210 q 433 1175 418 1183 q 481 1167 449 1167 q 529 1175 514 1167 q 548 1197 544 1183 q 551 1233 551 1210 l 706 1233 m 768 1543 q 761 1417 768 1458 q 724 1350 754 1375 q 624 1325 693 1325 q 461 1347 569 1325 q 417 1356 449 1350 q 369 1361 386 1361 q 344 1351 349 1361 q 339 1308 339 1340 l 200 1308 q 207 1435 200 1393 q 244 1501 214 1476 q 344 1526 275 1526 q 507 1504 399 1526 q 551 1496 519 1501 q 599 1490 582 1490 q 624 1501 619 1490 q 629 1543 629 1511 l 768 1543 z "},"Ǎ":{"ha":968,"x_min":-7,"x_max":975,"o":"m 653 0 l 618 143 l 342 143 l 308 0 l -7 0 l 258 956 l 710 956 l 975 0 l 653 0 m 485 694 l 472 694 l 394 365 l 564 365 l 485 694 m 353 1028 l 229 1222 l 229 1233 l 415 1233 l 488 1133 l 554 1233 l 740 1233 l 740 1222 l 615 1028 l 353 1028 z "},"Â":{"ha":968,"x_min":-7,"x_max":975,"o":"m 653 0 l 618 143 l 342 143 l 308 0 l -7 0 l 258 956 l 710 956 l 975 0 l 653 0 m 485 694 l 472 694 l 394 365 l 564 365 l 485 694 m 228 1042 l 228 1053 l 351 1247 l 614 1247 l 739 1053 l 739 1042 l 553 1042 l 482 1142 l 414 1042 l 228 1042 z "},"Ấ":{"ha":968,"x_min":-7,"x_max":975,"o":"m 653 0 l 618 143 l 342 143 l 308 0 l -7 0 l 258 956 l 710 956 l 975 0 l 653 0 m 485 694 l 472 694 l 394 365 l 564 365 l 485 694 m 228 1028 l 228 1039 l 351 1233 l 614 1233 l 739 1039 l 739 1028 l 553 1028 l 482 1128 l 414 1028 l 228 1028 m 486 1268 l 486 1275 l 606 1474 l 881 1474 l 881 1467 l 692 1268 l 486 1268 z "},"Ậ":{"ha":968,"x_min":-7,"x_max":975,"o":"m 653 0 l 618 143 l 342 143 l 308 0 l -7 0 l 258 956 l 710 956 l 975 0 l 653 0 m 485 694 l 472 694 l 394 365 l 564 365 l 485 694 m 332 -324 l 332 -86 l 636 -86 l 636 -324 l 332 -324 m 229 1028 l 229 1039 l 353 1233 l 615 1233 l 740 1039 l 740 1028 l 554 1028 l 483 1128 l 415 1028 l 229 1028 z "},"Ầ":{"ha":968,"x_min":-7,"x_max":975,"o":"m 653 0 l 618 143 l 342 143 l 308 0 l -7 0 l 258 956 l 710 956 l 975 0 l 653 0 m 485 694 l 472 694 l 394 365 l 564 365 l 485 694 m 213 1028 l 213 1039 l 336 1233 l 599 1233 l 724 1039 l 724 1028 l 538 1028 l 467 1128 l 399 1028 l 213 1028 m 550 1268 l 361 1467 l 361 1474 l 636 1474 l 756 1275 l 756 1268 l 550 1268 z "},"Ẩ":{"ha":968,"x_min":-7,"x_max":975,"o":"m 653 0 l 618 143 l 342 143 l 308 0 l -7 0 l 258 956 l 710 956 l 975 0 l 653 0 m 485 694 l 472 694 l 394 365 l 564 365 l 485 694 m 229 1028 l 229 1039 l 353 1233 l 615 1233 l 740 1039 l 740 1028 l 554 1028 l 483 1128 l 415 1028 l 229 1028 m 561 1265 q 574 1338 561 1318 q 632 1368 588 1357 l 653 1374 q 683 1386 676 1381 q 690 1407 690 1392 q 676 1436 690 1431 q 617 1442 663 1442 q 543 1440 583 1442 q 471 1433 503 1438 l 471 1560 q 563 1572 508 1567 q 663 1576 617 1576 q 776 1568 733 1576 q 845 1527 818 1560 q 872 1425 872 1494 q 859 1357 872 1381 q 825 1323 846 1333 q 764 1301 804 1313 l 750 1297 q 719 1283 726 1290 q 711 1263 711 1275 l 561 1263 l 561 1265 z "},"Ẫ":{"ha":968,"x_min":-7,"x_max":975,"o":"m 653 0 l 618 143 l 342 143 l 308 0 l -7 0 l 258 956 l 710 956 l 975 0 l 653 0 m 485 694 l 472 694 l 394 365 l 564 365 l 485 694 m 226 1028 l 226 1039 l 350 1233 l 613 1233 l 738 1039 l 738 1028 l 551 1028 l 481 1128 l 413 1028 l 226 1028 m 768 1474 q 761 1347 768 1389 q 724 1281 754 1306 q 624 1256 693 1256 q 461 1278 569 1256 q 417 1286 449 1281 q 369 1292 386 1292 q 344 1281 349 1292 q 339 1239 339 1271 l 200 1239 q 207 1365 200 1324 q 244 1432 214 1407 q 344 1457 275 1457 q 507 1435 399 1457 q 551 1426 519 1432 q 599 1421 582 1421 q 624 1431 619 1421 q 629 1474 629 1442 l 768 1474 z "},"Ȁ":{"ha":968,"x_min":-7,"x_max":975,"o":"m 653 0 l 618 143 l 342 143 l 308 0 l -7 0 l 258 956 l 710 956 l 975 0 l 653 0 m 485 694 l 472 694 l 394 365 l 564 365 l 485 694 m 451 1050 l 283 1050 l 135 1208 l 135 1214 l 356 1214 l 451 1056 l 451 1050 m 714 1050 l 549 1050 l 399 1208 l 399 1214 l 621 1214 l 714 1056 l 714 1050 z "},"Ä":{"ha":968,"x_min":-7,"x_max":975,"o":"m 653 0 l 618 143 l 342 143 l 308 0 l -7 0 l 258 956 l 710 956 l 975 0 l 653 0 m 485 694 l 472 694 l 394 365 l 564 365 l 485 694 m 217 1079 l 217 1251 l 446 1251 l 446 1079 l 217 1079 m 521 1079 l 521 1251 l 750 1251 l 750 1079 l 521 1079 z "},"Ạ":{"ha":968,"x_min":-7,"x_max":975,"o":"m 653 0 l 618 143 l 342 143 l 308 0 l -7 0 l 258 956 l 710 956 l 975 0 l 653 0 m 485 694 l 472 694 l 394 365 l 564 365 l 485 694 m 332 -324 l 332 -86 l 636 -86 l 636 -324 l 332 -324 z "},"À":{"ha":968,"x_min":-7,"x_max":975,"o":"m 653 0 l 618 143 l 342 143 l 308 0 l -7 0 l 258 956 l 710 956 l 975 0 l 653 0 m 485 694 l 472 694 l 394 365 l 564 365 l 485 694 m 396 1042 l 207 1240 l 207 1247 l 482 1247 l 601 1049 l 601 1042 l 396 1042 z "},"Ả":{"ha":968,"x_min":-7,"x_max":975,"o":"m 653 0 l 618 143 l 342 143 l 308 0 l -7 0 l 258 956 l 710 956 l 975 0 l 653 0 m 485 694 l 472 694 l 394 365 l 564 365 l 485 694 m 374 1008 q 387 1081 374 1061 q 444 1111 400 1100 l 465 1117 q 496 1129 489 1124 q 503 1150 503 1135 q 489 1179 503 1174 q 429 1185 475 1185 q 356 1183 396 1185 q 283 1176 315 1181 l 283 1303 q 375 1315 321 1310 q 475 1319 429 1319 q 588 1311 546 1319 q 658 1270 631 1303 q 685 1168 685 1238 q 672 1100 685 1124 q 638 1066 658 1076 q 576 1044 617 1056 l 563 1040 q 531 1026 539 1033 q 524 1006 524 1018 l 374 1006 l 374 1008 z "},"Ȃ":{"ha":968,"x_min":-7,"x_max":975,"o":"m 653 0 l 618 143 l 342 143 l 308 0 l -7 0 l 258 956 l 710 956 l 975 0 l 653 0 m 485 694 l 472 694 l 394 365 l 564 365 l 485 694 m 260 1029 q 277 1143 260 1097 q 344 1215 294 1189 q 485 1240 393 1240 q 625 1215 576 1240 q 691 1143 674 1189 q 708 1029 708 1097 l 554 1029 q 551 1066 554 1053 q 532 1088 547 1079 q 485 1096 517 1096 q 436 1088 451 1096 q 417 1066 421 1079 q 414 1029 414 1053 l 260 1029 z "},"Ā":{"ha":968,"x_min":-7,"x_max":975,"o":"m 653 0 l 618 143 l 342 143 l 308 0 l -7 0 l 258 956 l 710 956 l 975 0 l 653 0 m 485 694 l 472 694 l 394 365 l 564 365 l 485 694 m 278 1013 l 278 1233 l 692 1233 l 692 1013 l 278 1013 z "},"Ą":{"ha":968,"x_min":-7,"x_max":975,"o":"m 804 -92 q 818 -126 804 -114 q 869 -137 832 -137 l 893 -136 l 893 -267 q 772 -272 829 -272 q 617 -238 663 -272 q 571 -149 571 -204 q 593 -72 571 -111 q 653 1 615 -33 l 618 143 l 342 143 l 308 0 l -7 0 l 258 956 l 710 956 l 975 0 l 882 0 q 828 -44 851 -18 q 804 -92 804 -69 m 394 365 l 564 365 l 485 694 l 472 694 l 394 365 z "},"Å":{"ha":968,"x_min":-7,"x_max":975,"o":"m 975 0 l 653 0 l 618 143 l 342 143 l 308 0 l -7 0 l 258 956 q 238 1009 243 976 q 232 1093 232 1042 q 249 1216 232 1175 q 319 1276 267 1257 q 483 1294 372 1294 q 648 1276 594 1294 q 719 1216 701 1257 q 736 1093 736 1175 q 731 1010 736 1043 q 710 956 725 978 l 975 0 m 483 1019 q 542 1026 525 1019 q 563 1045 558 1032 q 567 1093 567 1058 q 563 1142 567 1128 q 542 1163 558 1157 q 483 1169 525 1169 q 426 1163 443 1169 q 406 1142 410 1157 q 403 1093 403 1128 q 406 1045 403 1058 q 426 1026 410 1032 q 483 1019 443 1019 m 394 365 l 564 365 l 485 694 l 472 694 l 394 365 z "},"Ǻ":{"ha":968,"x_min":-7,"x_max":975,"o":"m 975 0 l 653 0 l 618 143 l 342 143 l 308 0 l -7 0 l 258 956 q 238 1009 243 976 q 232 1093 232 1042 q 249 1216 232 1175 q 319 1276 267 1257 q 483 1294 372 1294 q 648 1276 594 1294 q 719 1216 701 1257 q 736 1093 736 1175 q 731 1010 736 1043 q 710 956 725 978 l 975 0 m 483 1019 q 542 1026 525 1019 q 563 1045 558 1032 q 567 1093 567 1058 q 563 1142 567 1128 q 542 1163 558 1157 q 483 1169 525 1169 q 426 1163 443 1169 q 406 1142 410 1157 q 403 1093 403 1128 q 406 1045 403 1058 q 426 1026 410 1032 q 483 1019 443 1019 m 394 365 l 564 365 l 485 694 l 472 694 l 394 365 m 368 1367 l 368 1374 l 488 1572 l 763 1572 l 763 1565 l 574 1367 l 368 1367 z "},"Ã":{"ha":968,"x_min":-7,"x_max":975,"o":"m 653 0 l 618 143 l 342 143 l 308 0 l -7 0 l 258 956 l 710 956 l 975 0 l 653 0 m 485 694 l 472 694 l 394 365 l 564 365 l 485 694 m 768 1276 q 761 1150 768 1192 q 724 1083 754 1108 q 624 1058 693 1058 q 461 1081 569 1058 q 417 1089 449 1083 q 369 1094 386 1094 q 344 1084 349 1094 q 339 1042 339 1074 l 200 1042 q 207 1168 200 1126 q 244 1235 214 1210 q 344 1260 275 1260 q 507 1238 399 1260 q 551 1229 519 1235 q 599 1224 582 1224 q 624 1234 619 1224 q 629 1276 629 1244 l 768 1276 z "},"Æ":{"ha":1361,"x_min":-35,"x_max":1294,"o":"m 632 0 l 618 147 l 336 147 l 281 0 l -35 0 l 394 956 l 1294 956 l 1294 724 l 846 724 l 858 596 l 1229 596 l 1229 369 l 883 369 l 897 232 l 1294 232 l 1294 0 l 632 0 m 568 724 l 556 724 l 421 369 l 599 369 l 568 724 z "},"Ǽ":{"ha":1361,"x_min":-35,"x_max":1294,"o":"m 632 0 l 618 147 l 336 147 l 281 0 l -35 0 l 394 956 l 1294 956 l 1294 724 l 846 724 l 858 596 l 1229 596 l 1229 369 l 883 369 l 897 232 l 1294 232 l 1294 0 l 632 0 m 568 724 l 556 724 l 421 369 l 599 369 l 568 724 m 565 1028 l 565 1035 l 685 1233 l 960 1233 l 960 1226 l 771 1028 l 565 1028 z "},"B":{"ha":917,"x_min":71,"x_max":865,"o":"m 71 956 l 582 956 q 790 897 717 956 q 863 715 863 838 q 822 563 863 614 q 692 490 781 511 l 692 485 q 788 447 751 469 q 845 378 825 424 q 865 256 865 333 q 797 63 865 126 q 579 0 728 0 l 71 0 l 71 956 m 457 578 q 513 583 496 578 q 535 603 529 588 q 540 654 540 618 q 535 707 540 692 q 513 727 529 722 q 457 732 497 732 l 390 732 l 390 578 l 457 578 m 457 224 q 513 228 497 224 q 535 249 529 233 q 540 304 540 265 q 535 360 540 343 q 513 382 529 376 q 457 388 496 388 l 390 388 l 390 224 l 457 224 z "},"C":{"ha":788,"x_min":58,"x_max":739,"o":"m 739 11 q 617 -5 692 1 q 475 -11 542 -11 q 201 33 289 -11 q 86 176 114 76 q 58 478 58 275 q 86 780 58 681 q 201 923 114 879 q 475 967 289 967 q 613 959 540 967 q 733 940 685 951 l 733 724 q 551 735 583 735 q 432 719 464 735 q 392 658 400 704 q 385 478 385 611 q 392 298 385 344 q 432 236 400 251 q 551 221 464 221 q 739 232 653 221 l 739 11 z "},"Ć":{"ha":788,"x_min":58,"x_max":739,"o":"m 739 11 q 617 -5 692 1 q 475 -11 542 -11 q 201 33 289 -11 q 86 176 114 76 q 58 478 58 275 q 86 780 58 681 q 201 923 114 879 q 475 967 289 967 q 613 959 540 967 q 733 940 685 951 l 733 724 q 551 735 583 735 q 432 719 464 735 q 392 658 400 704 q 385 478 385 611 q 392 298 385 344 q 432 236 400 251 q 551 221 464 221 q 739 232 653 221 l 739 11 m 279 1028 l 279 1035 l 399 1233 l 674 1233 l 674 1226 l 485 1028 l 279 1028 z "},"Č":{"ha":788,"x_min":58,"x_max":739,"o":"m 739 11 q 617 -5 692 1 q 475 -11 542 -11 q 201 33 289 -11 q 86 176 114 76 q 58 478 58 275 q 86 780 58 681 q 201 923 114 879 q 475 967 289 967 q 613 959 540 967 q 733 940 685 951 l 733 724 q 551 735 583 735 q 432 719 464 735 q 392 658 400 704 q 385 478 385 611 q 392 298 385 344 q 432 236 400 251 q 551 221 464 221 q 739 232 653 221 l 739 11 m 263 1028 l 139 1222 l 139 1233 l 325 1233 l 397 1133 l 464 1233 l 650 1233 l 650 1222 l 525 1028 l 263 1028 z "},"Ç":{"ha":788,"x_min":58,"x_max":739,"o":"m 739 11 q 626 -4 696 1 q 489 -11 557 -10 l 446 -262 l 186 -262 l 186 -256 l 297 1 q 143 74 194 21 q 75 220 92 128 q 58 478 58 313 q 86 780 58 681 q 201 923 114 879 q 475 967 289 967 q 613 959 540 967 q 733 940 685 951 l 733 724 q 551 735 583 735 q 432 719 464 735 q 392 658 400 704 q 385 478 385 611 q 392 298 385 344 q 432 236 400 251 q 551 221 464 221 q 739 232 653 221 l 739 11 z "},"Ĉ":{"ha":788,"x_min":58,"x_max":739,"o":"m 739 11 q 617 -5 692 1 q 475 -11 542 -11 q 201 33 289 -11 q 86 176 114 76 q 58 478 58 275 q 86 780 58 681 q 201 923 114 879 q 475 967 289 967 q 613 959 540 967 q 733 940 685 951 l 733 724 q 551 735 583 735 q 432 719 464 735 q 392 658 400 704 q 385 478 385 611 q 392 298 385 344 q 432 236 400 251 q 551 221 464 221 q 739 232 653 221 l 739 11 m 139 1028 l 139 1039 l 263 1233 l 525 1233 l 650 1039 l 650 1028 l 464 1028 l 393 1128 l 325 1028 l 139 1028 z "},"Ċ":{"ha":788,"x_min":58,"x_max":739,"o":"m 739 11 q 617 -5 692 1 q 475 -11 542 -11 q 201 33 289 -11 q 86 176 114 76 q 58 478 58 275 q 86 780 58 681 q 201 923 114 879 q 475 967 289 967 q 613 959 540 967 q 733 940 685 951 l 733 724 q 551 735 583 735 q 432 719 464 735 q 392 658 400 704 q 385 478 385 611 q 392 298 385 344 q 432 236 400 251 q 551 221 464 221 q 739 232 653 221 l 739 11 m 279 1043 l 279 1215 l 508 1215 l 508 1043 l 279 1043 z "},"D":{"ha":931,"x_min":71,"x_max":872,"o":"m 71 956 l 425 956 q 738 916 646 956 q 851 787 829 876 q 872 478 872 697 q 851 169 872 258 q 738 40 829 79 q 425 0 646 0 l 71 0 l 71 956 m 429 232 q 513 244 492 232 q 540 301 535 257 q 546 476 546 344 q 540 655 546 611 q 514 711 535 699 q 429 724 493 724 l 396 724 l 396 232 l 429 232 z "},"Ǳ":{"ha":1792,"x_min":71,"x_max":1739,"o":"m 71 956 l 425 956 q 738 916 646 956 q 851 787 829 876 q 872 478 872 697 q 851 169 872 258 q 738 40 829 79 q 425 0 646 0 l 71 0 l 71 956 m 429 232 q 513 244 492 232 q 540 301 535 257 q 546 476 546 344 q 540 655 546 611 q 514 711 535 699 q 429 724 493 724 l 396 724 l 396 232 l 429 232 m 983 0 l 983 224 l 1344 724 l 999 724 l 999 956 l 1739 956 l 1739 739 l 1372 232 l 1738 232 l 1738 0 l 983 0 z "},"Ǆ":{"ha":1792,"x_min":71,"x_max":1739,"o":"m 71 956 l 425 956 q 738 916 646 956 q 851 787 829 876 q 872 478 872 697 q 851 169 872 258 q 738 40 829 79 q 425 0 646 0 l 71 0 l 71 956 m 429 232 q 513 244 492 232 q 540 301 535 257 q 546 476 546 344 q 540 655 546 611 q 514 711 535 699 q 429 724 493 724 l 396 724 l 396 232 l 429 232 m 983 0 l 983 224 l 1344 724 l 999 724 l 999 956 l 1739 956 l 1739 739 l 1372 232 l 1738 232 l 1738 0 l 983 0 m 1226 1028 l 1103 1222 l 1103 1233 l 1289 1233 l 1361 1133 l 1428 1233 l 1614 1233 l 1614 1222 l 1489 1028 l 1226 1028 z "},"Ð":{"ha":931,"x_min":-12,"x_max":872,"o":"m 71 389 l -12 389 l -12 579 l 71 579 l 71 956 l 425 956 q 738 916 646 956 q 851 787 829 876 q 872 478 872 697 q 851 169 872 258 q 738 40 829 79 q 425 0 646 0 l 71 0 l 71 389 m 429 232 q 513 244 492 232 q 540 301 535 257 q 546 476 546 344 q 540 655 546 611 q 514 711 535 699 q 429 724 493 724 l 396 724 l 396 579 l 482 579 l 482 389 l 396 389 l 396 232 l 429 232 z "},"Ď":{"ha":931,"x_min":71,"x_max":872,"o":"m 71 956 l 425 956 q 738 916 646 956 q 851 787 829 876 q 872 478 872 697 q 851 169 872 258 q 738 40 829 79 q 425 0 646 0 l 71 0 l 71 956 m 429 232 q 513 244 492 232 q 540 301 535 257 q 546 476 546 344 q 540 655 546 611 q 514 711 535 699 q 429 724 493 724 l 396 724 l 396 232 l 429 232 m 333 1028 l 210 1222 l 210 1233 l 396 1233 l 468 1133 l 535 1233 l 721 1233 l 721 1222 l 596 1028 l 333 1028 z "},"Đ":{"ha":931,"x_min":-12,"x_max":872,"o":"m 71 389 l -12 389 l -12 579 l 71 579 l 71 956 l 425 956 q 738 916 646 956 q 851 787 829 876 q 872 478 872 697 q 851 169 872 258 q 738 40 829 79 q 425 0 646 0 l 71 0 l 71 389 m 429 232 q 513 244 492 232 q 540 301 535 257 q 546 476 546 344 q 540 655 546 611 q 514 711 535 699 q 429 724 493 724 l 396 724 l 396 579 l 482 579 l 482 389 l 396 389 l 396 232 l 429 232 z "},"Ḍ":{"ha":931,"x_min":71,"x_max":872,"o":"m 71 956 l 425 956 q 738 916 646 956 q 851 787 829 876 q 872 478 872 697 q 851 169 872 258 q 738 40 829 79 q 425 0 646 0 l 71 0 l 71 956 m 429 232 q 513 244 492 232 q 540 301 535 257 q 546 476 546 344 q 540 655 546 611 q 514 711 535 699 q 429 724 493 724 l 396 724 l 396 232 l 429 232 m 313 -324 l 313 -86 l 617 -86 l 617 -324 l 313 -324 z "},"ǲ":{"ha":1676,"x_min":71,"x_max":1628,"o":"m 71 956 l 425 956 q 738 916 646 956 q 851 787 829 876 q 872 478 872 697 q 851 169 872 258 q 738 40 829 79 q 425 0 646 0 l 71 0 l 71 956 m 429 232 q 513 244 492 232 q 540 301 535 257 q 546 476 546 344 q 540 655 546 611 q 514 711 535 699 q 429 724 493 724 l 396 724 l 396 232 l 429 232 m 979 0 l 979 197 l 1254 500 l 996 500 l 996 708 l 1625 708 l 1625 511 l 1350 208 l 1628 208 l 1628 0 l 979 0 z "},"ǅ":{"ha":1676,"x_min":71,"x_max":1628,"o":"m 71 956 l 425 956 q 738 916 646 956 q 851 787 829 876 q 872 478 872 697 q 851 169 872 258 q 738 40 829 79 q 425 0 646 0 l 71 0 l 71 956 m 429 232 q 513 244 492 232 q 540 301 535 257 q 546 476 546 344 q 540 655 546 611 q 514 711 535 699 q 429 724 493 724 l 396 724 l 396 232 l 429 232 m 979 0 l 979 197 l 1254 500 l 996 500 l 996 708 l 1625 708 l 1625 511 l 1350 208 l 1628 208 l 1628 0 l 979 0 m 1185 826 l 1061 1021 l 1061 1032 l 1247 1032 l 1319 932 l 1386 1032 l 1572 1032 l 1572 1021 l 1447 826 l 1185 826 z "},"E":{"ha":838,"x_min":71,"x_max":771,"o":"m 71 0 l 71 956 l 771 956 l 771 724 l 394 724 l 394 596 l 706 596 l 706 369 l 394 369 l 394 232 l 771 232 l 771 0 l 71 0 z "},"É":{"ha":838,"x_min":71,"x_max":771,"o":"m 71 0 l 71 956 l 771 956 l 771 724 l 394 724 l 394 596 l 706 596 l 706 369 l 394 369 l 394 232 l 771 232 l 771 0 l 71 0 m 307 1042 l 307 1049 l 426 1247 l 701 1247 l 701 1240 l 513 1042 l 307 1042 z "},"Ĕ":{"ha":838,"x_min":71,"x_max":771,"o":"m 71 0 l 71 956 l 771 956 l 771 724 l 394 724 l 394 596 l 706 596 l 706 369 l 394 369 l 394 232 l 771 232 l 771 0 l 71 0 m 644 1233 q 627 1119 644 1165 q 560 1048 610 1074 q 419 1022 511 1022 q 279 1048 328 1022 q 213 1119 231 1074 q 196 1233 196 1165 l 350 1233 q 353 1197 350 1210 q 372 1175 357 1183 q 419 1167 388 1167 q 468 1175 453 1167 q 487 1197 483 1183 q 490 1233 490 1210 l 644 1233 z "},"Ě":{"ha":838,"x_min":71,"x_max":771,"o":"m 71 0 l 71 956 l 771 956 l 771 724 l 394 724 l 394 596 l 706 596 l 706 369 l 394 369 l 394 232 l 771 232 l 771 0 l 71 0 m 289 1028 l 165 1222 l 165 1233 l 351 1233 l 424 1133 l 490 1233 l 676 1233 l 676 1222 l 551 1028 l 289 1028 z "},"Ê":{"ha":838,"x_min":71,"x_max":771,"o":"m 71 0 l 71 956 l 771 956 l 771 724 l 394 724 l 394 596 l 706 596 l 706 369 l 394 369 l 394 232 l 771 232 l 771 0 l 71 0 m 163 1042 l 163 1053 l 286 1247 l 549 1247 l 674 1053 l 674 1042 l 488 1042 l 417 1142 l 349 1042 l 163 1042 z "},"Ế":{"ha":838,"x_min":71,"x_max":817,"o":"m 71 0 l 71 956 l 771 956 l 771 724 l 394 724 l 394 596 l 706 596 l 706 369 l 394 369 l 394 232 l 771 232 l 771 0 l 71 0 m 164 1028 l 164 1039 l 288 1233 l 550 1233 l 675 1039 l 675 1028 l 489 1028 l 418 1128 l 350 1028 l 164 1028 m 422 1268 l 422 1275 l 542 1474 l 817 1474 l 817 1467 l 628 1268 l 422 1268 z "},"Ệ":{"ha":838,"x_min":71,"x_max":771,"o":"m 71 0 l 71 956 l 771 956 l 771 724 l 394 724 l 394 596 l 706 596 l 706 369 l 394 369 l 394 232 l 771 232 l 771 0 l 71 0 m 268 -324 l 268 -86 l 572 -86 l 572 -324 l 268 -324 m 165 1028 l 165 1039 l 289 1233 l 551 1233 l 676 1039 l 676 1028 l 490 1028 l 419 1128 l 351 1028 l 165 1028 z "},"Ề":{"ha":838,"x_min":71,"x_max":771,"o":"m 71 0 l 71 956 l 771 956 l 771 724 l 394 724 l 394 596 l 706 596 l 706 369 l 394 369 l 394 232 l 771 232 l 771 0 l 71 0 m 149 1028 l 149 1039 l 272 1233 l 535 1233 l 660 1039 l 660 1028 l 474 1028 l 403 1128 l 335 1028 l 149 1028 m 486 1268 l 297 1467 l 297 1474 l 572 1474 l 692 1275 l 692 1268 l 486 1268 z "},"Ể":{"ha":838,"x_min":71,"x_max":808,"o":"m 71 0 l 71 956 l 771 956 l 771 724 l 394 724 l 394 596 l 706 596 l 706 369 l 394 369 l 394 232 l 771 232 l 771 0 l 71 0 m 165 1028 l 165 1039 l 289 1233 l 551 1233 l 676 1039 l 676 1028 l 490 1028 l 419 1128 l 351 1028 l 165 1028 m 497 1265 q 510 1338 497 1318 q 568 1368 524 1357 l 589 1374 q 619 1386 613 1381 q 626 1407 626 1392 q 613 1436 626 1431 q 553 1442 599 1442 q 479 1440 519 1442 q 407 1433 439 1438 l 407 1560 q 499 1572 444 1567 q 599 1576 553 1576 q 712 1568 669 1576 q 781 1527 754 1560 q 808 1425 808 1494 q 795 1357 808 1381 q 761 1323 782 1333 q 700 1301 740 1313 l 686 1297 q 655 1283 663 1290 q 647 1263 647 1275 l 497 1263 l 497 1265 z "},"Ễ":{"ha":838,"x_min":71,"x_max":771,"o":"m 71 0 l 71 956 l 771 956 l 771 724 l 394 724 l 394 596 l 706 596 l 706 369 l 394 369 l 394 232 l 771 232 l 771 0 l 71 0 m 163 1028 l 163 1039 l 286 1233 l 549 1233 l 674 1039 l 674 1028 l 488 1028 l 417 1128 l 349 1028 l 163 1028 m 704 1474 q 697 1347 704 1389 q 660 1281 690 1306 q 560 1256 629 1256 q 397 1278 506 1256 q 353 1286 385 1281 q 306 1292 322 1292 q 280 1281 285 1292 q 275 1239 275 1271 l 136 1239 q 143 1365 136 1324 q 181 1432 150 1407 q 281 1457 211 1457 q 443 1435 335 1457 q 487 1426 456 1432 q 535 1421 518 1421 q 560 1431 556 1421 q 565 1474 565 1442 l 704 1474 z "},"Ȅ":{"ha":838,"x_min":71,"x_max":771,"o":"m 71 0 l 71 956 l 771 956 l 771 724 l 394 724 l 394 596 l 706 596 l 706 369 l 394 369 l 394 232 l 771 232 l 771 0 l 71 0 m 388 1050 l 219 1050 l 71 1208 l 71 1214 l 292 1214 l 388 1056 l 388 1050 m 650 1050 l 485 1050 l 335 1208 l 335 1214 l 557 1214 l 650 1056 l 650 1050 z "},"Ë":{"ha":838,"x_min":71,"x_max":771,"o":"m 71 0 l 71 956 l 771 956 l 771 724 l 394 724 l 394 596 l 706 596 l 706 369 l 394 369 l 394 232 l 771 232 l 771 0 l 71 0 m 154 1042 l 154 1214 l 383 1214 l 383 1042 l 154 1042 m 458 1042 l 458 1214 l 688 1214 l 688 1042 l 458 1042 z "},"Ė":{"ha":838,"x_min":71,"x_max":771,"o":"m 71 0 l 71 956 l 771 956 l 771 724 l 394 724 l 394 596 l 706 596 l 706 369 l 394 369 l 394 232 l 771 232 l 771 0 l 71 0 m 306 1043 l 306 1215 l 535 1215 l 535 1043 l 306 1043 z "},"Ẹ":{"ha":838,"x_min":71,"x_max":771,"o":"m 71 0 l 71 956 l 771 956 l 771 724 l 394 724 l 394 596 l 706 596 l 706 369 l 394 369 l 394 232 l 771 232 l 771 0 l 71 0 m 268 -324 l 268 -86 l 572 -86 l 572 -324 l 268 -324 z "},"È":{"ha":838,"x_min":71,"x_max":771,"o":"m 71 0 l 71 956 l 771 956 l 771 724 l 394 724 l 394 596 l 706 596 l 706 369 l 394 369 l 394 232 l 771 232 l 771 0 l 71 0 m 360 1042 l 171 1240 l 171 1247 l 446 1247 l 565 1049 l 565 1042 l 360 1042 z "},"Ẻ":{"ha":838,"x_min":71,"x_max":771,"o":"m 71 0 l 71 956 l 771 956 l 771 724 l 394 724 l 394 596 l 706 596 l 706 369 l 394 369 l 394 232 l 771 232 l 771 0 l 71 0 m 310 1008 q 323 1081 310 1061 q 381 1111 336 1100 l 401 1117 q 432 1129 425 1124 q 439 1150 439 1135 q 425 1179 439 1174 q 365 1185 411 1185 q 292 1183 332 1185 q 219 1176 251 1181 l 219 1303 q 311 1315 257 1310 q 411 1319 365 1319 q 524 1311 482 1319 q 594 1270 567 1303 q 621 1168 621 1238 q 608 1100 621 1124 q 574 1066 594 1076 q 513 1044 553 1056 l 499 1040 q 467 1026 475 1033 q 460 1006 460 1018 l 310 1006 l 310 1008 z "},"Ȇ":{"ha":838,"x_min":71,"x_max":771,"o":"m 71 0 l 71 956 l 771 956 l 771 724 l 394 724 l 394 596 l 706 596 l 706 369 l 394 369 l 394 232 l 771 232 l 771 0 l 71 0 m 196 1029 q 213 1143 196 1097 q 280 1215 231 1189 q 421 1240 329 1240 q 561 1215 513 1240 q 627 1143 610 1189 q 644 1029 644 1097 l 490 1029 q 487 1066 490 1053 q 468 1088 483 1079 q 421 1096 453 1096 q 372 1088 388 1096 q 353 1066 357 1079 q 350 1029 350 1053 l 196 1029 z "},"Ē":{"ha":838,"x_min":71,"x_max":771,"o":"m 71 0 l 71 956 l 771 956 l 771 724 l 394 724 l 394 596 l 706 596 l 706 369 l 394 369 l 394 232 l 771 232 l 771 0 l 71 0 m 214 1013 l 214 1233 l 628 1233 l 628 1013 l 214 1013 z "},"Ę":{"ha":838,"x_min":71,"x_max":771,"o":"m 635 -272 q 478 -238 525 -272 q 432 -153 432 -204 q 458 -75 432 -112 q 536 0 485 -37 l 71 0 l 71 956 l 771 956 l 771 724 l 394 724 l 394 596 l 706 596 l 706 369 l 394 369 l 394 232 l 771 232 l 771 0 q 697 -43 728 -18 q 665 -97 665 -68 q 731 -137 665 -137 l 754 -136 l 754 -267 q 635 -272 690 -272 z "},"Ẽ":{"ha":838,"x_min":71,"x_max":771,"o":"m 71 0 l 71 956 l 771 956 l 771 724 l 394 724 l 394 596 l 706 596 l 706 369 l 394 369 l 394 232 l 771 232 l 771 0 l 71 0 m 704 1233 q 697 1107 704 1149 q 660 1040 690 1065 q 560 1015 629 1015 q 397 1038 506 1015 q 353 1046 385 1040 q 306 1051 322 1051 q 280 1041 285 1051 q 275 999 275 1031 l 136 999 q 143 1125 136 1083 q 181 1192 150 1167 q 281 1217 211 1217 q 443 1194 335 1217 q 487 1186 456 1192 q 535 1181 518 1181 q 560 1191 556 1181 q 565 1233 565 1201 l 704 1233 z "},"F":{"ha":790,"x_min":71,"x_max":743,"o":"m 71 0 l 71 956 l 743 956 l 743 724 l 394 724 l 394 556 l 692 556 l 692 324 l 394 324 l 394 0 l 71 0 z "},"G":{"ha":919,"x_min":58,"x_max":853,"o":"m 478 365 l 478 575 l 853 575 l 853 18 q 674 -3 774 6 q 496 -11 574 -11 q 221 31 313 -11 q 94 176 129 74 q 58 478 58 278 q 94 780 58 678 q 221 924 129 882 q 496 967 313 967 q 671 958 572 967 q 849 933 769 949 l 849 717 q 710 729 783 724 q 600 735 638 735 q 440 722 481 735 q 388 663 399 710 q 376 478 376 615 q 385 306 376 358 q 420 235 393 254 q 510 215 447 215 l 569 217 l 569 365 l 478 365 z "},"Ǵ":{"ha":919,"x_min":58,"x_max":853,"o":"m 478 365 l 478 575 l 853 575 l 853 18 q 674 -3 774 6 q 496 -11 574 -11 q 221 31 313 -11 q 94 176 129 74 q 58 478 58 278 q 94 780 58 678 q 221 924 129 882 q 496 967 313 967 q 671 958 572 967 q 849 933 769 949 l 849 717 q 710 729 783 724 q 600 735 638 735 q 440 722 481 735 q 388 663 399 710 q 376 478 376 615 q 385 306 376 358 q 420 235 393 254 q 510 215 447 215 l 569 217 l 569 365 l 478 365 m 340 1028 l 340 1035 l 460 1233 l 735 1233 l 735 1226 l 546 1028 l 340 1028 z "},"Ğ":{"ha":919,"x_min":58,"x_max":853,"o":"m 478 365 l 478 575 l 853 575 l 853 18 q 674 -3 774 6 q 496 -11 574 -11 q 221 31 313 -11 q 94 176 129 74 q 58 478 58 278 q 94 780 58 678 q 221 924 129 882 q 496 967 313 967 q 671 958 572 967 q 849 933 769 949 l 849 717 q 710 729 783 724 q 600 735 638 735 q 440 722 481 735 q 388 663 399 710 q 376 478 376 615 q 385 306 376 358 q 420 235 393 254 q 510 215 447 215 l 569 217 l 569 365 l 478 365 m 679 1233 q 662 1119 679 1165 q 595 1048 644 1074 q 454 1022 546 1022 q 314 1048 363 1022 q 248 1119 265 1074 q 231 1233 231 1165 l 385 1233 q 388 1197 385 1210 q 407 1175 392 1183 q 454 1167 422 1167 q 503 1175 488 1167 q 522 1197 518 1183 q 525 1233 525 1210 l 679 1233 z "},"Ǧ":{"ha":919,"x_min":58,"x_max":853,"o":"m 478 365 l 478 575 l 853 575 l 853 18 q 674 -3 774 6 q 496 -11 574 -11 q 221 31 313 -11 q 94 176 129 74 q 58 478 58 278 q 94 780 58 678 q 221 924 129 882 q 496 967 313 967 q 671 958 572 967 q 849 933 769 949 l 849 717 q 710 729 783 724 q 600 735 638 735 q 440 722 481 735 q 388 663 399 710 q 376 478 376 615 q 385 306 376 358 q 420 235 393 254 q 510 215 447 215 l 569 217 l 569 365 l 478 365 m 324 1028 l 200 1222 l 200 1233 l 386 1233 l 458 1133 l 525 1233 l 711 1233 l 711 1222 l 586 1028 l 324 1028 z "},"Ĝ":{"ha":919,"x_min":58,"x_max":853,"o":"m 478 365 l 478 575 l 853 575 l 853 18 q 674 -3 774 6 q 496 -11 574 -11 q 221 31 313 -11 q 94 176 129 74 q 58 478 58 278 q 94 780 58 678 q 221 924 129 882 q 496 967 313 967 q 671 958 572 967 q 849 933 769 949 l 849 717 q 710 729 783 724 q 600 735 638 735 q 440 722 481 735 q 388 663 399 710 q 376 478 376 615 q 385 306 376 358 q 420 235 393 254 q 510 215 447 215 l 569 217 l 569 365 l 478 365 m 200 1028 l 200 1039 l 324 1233 l 586 1233 l 711 1039 l 711 1028 l 525 1028 l 454 1128 l 386 1028 l 200 1028 z "},"Ģ":{"ha":919,"x_min":58,"x_max":853,"o":"m 478 365 l 478 575 l 853 575 l 853 18 q 674 -3 774 6 q 496 -11 574 -11 q 221 31 313 -11 q 94 176 129 74 q 58 478 58 278 q 94 780 58 678 q 221 924 129 882 q 496 967 313 967 q 671 958 572 967 q 849 933 769 949 l 849 717 q 710 729 783 724 q 600 735 638 735 q 440 722 481 735 q 388 663 399 710 q 376 478 376 615 q 385 306 376 358 q 420 235 393 254 q 510 215 447 215 l 569 217 l 569 365 l 478 365 m 313 -301 q 376 -297 356 -301 q 403 -282 397 -292 q 410 -251 410 -272 l 410 -243 l 313 -243 l 313 -79 l 597 -79 l 597 -183 q 578 -319 597 -275 q 500 -383 560 -364 q 313 -401 440 -401 l 313 -301 z "},"Ġ":{"ha":919,"x_min":58,"x_max":853,"o":"m 478 365 l 478 575 l 853 575 l 853 18 q 674 -3 774 6 q 496 -11 574 -11 q 221 31 313 -11 q 94 176 129 74 q 58 478 58 278 q 94 780 58 678 q 221 924 129 882 q 496 967 313 967 q 671 958 572 967 q 849 933 769 949 l 849 717 q 710 729 783 724 q 600 735 638 735 q 440 722 481 735 q 388 663 399 710 q 376 478 376 615 q 385 306 376 358 q 420 235 393 254 q 510 215 447 215 l 569 217 l 569 365 l 478 365 m 340 1043 l 340 1215 l 569 1215 l 569 1043 l 340 1043 z "},"H":{"ha":968,"x_min":71,"x_max":897,"o":"m 572 0 l 572 349 l 396 349 l 396 0 l 71 0 l 71 956 l 396 956 l 396 608 l 572 608 l 572 956 l 897 956 l 897 0 l 572 0 z "},"Ħ":{"ha":968,"x_min":71,"x_max":897,"o":"m 572 956 l 897 956 l 897 0 l 572 0 l 572 293 l 396 293 l 396 0 l 71 0 l 71 956 l 396 956 l 396 849 l 572 849 l 572 956 m 396 553 l 572 553 l 572 658 l 396 658 l 396 553 z "},"Ĥ":{"ha":968,"x_min":71,"x_max":897,"o":"m 572 0 l 572 349 l 396 349 l 396 0 l 71 0 l 71 956 l 396 956 l 396 608 l 572 608 l 572 956 l 897 956 l 897 0 l 572 0 m 229 1028 l 229 1039 l 353 1233 l 615 1233 l 740 1039 l 740 1028 l 554 1028 l 483 1128 l 415 1028 l 229 1028 z "},"Ḥ":{"ha":968,"x_min":71,"x_max":897,"o":"m 572 0 l 572 349 l 396 349 l 396 0 l 71 0 l 71 956 l 396 956 l 396 608 l 572 608 l 572 956 l 897 956 l 897 0 l 572 0 m 332 -324 l 332 -86 l 636 -86 l 636 -324 l 332 -324 z "},"I":{"ha":467,"x_min":71,"x_max":396,"o":"m 71 0 l 71 956 l 396 956 l 396 0 l 71 0 z "},"Ĳ":{"ha":1075,"x_min":71,"x_max":1004,"o":"m 71 0 l 71 956 l 396 956 l 396 0 l 71 0 m 492 219 q 624 228 589 219 q 669 265 660 236 q 679 376 679 294 l 679 956 l 1004 956 l 1004 456 q 978 133 1004 218 q 856 24 951 47 q 492 0 760 0 l 492 219 z "},"Í":{"ha":467,"x_min":71,"x_max":468,"o":"m 71 0 l 71 956 l 396 956 l 396 0 l 71 0 m 74 1040 l 74 1047 l 193 1246 l 468 1246 l 468 1239 l 279 1040 l 74 1040 z "},"Ĭ":{"ha":467,"x_min":8,"x_max":457,"o":"m 71 0 l 71 956 l 396 956 l 396 0 l 71 0 m 457 1233 q 440 1119 457 1165 q 373 1048 422 1074 q 232 1022 324 1022 q 92 1048 140 1022 q 26 1119 43 1074 q 8 1233 8 1165 l 163 1233 q 166 1197 163 1210 q 185 1175 169 1183 q 232 1167 200 1167 q 281 1175 265 1167 q 299 1197 296 1183 q 303 1233 303 1210 l 457 1233 z "},"Ǐ":{"ha":467,"x_min":-22,"x_max":489,"o":"m 71 0 l 71 956 l 396 956 l 396 0 l 71 0 m 101 1028 l -22 1222 l -22 1233 l 164 1233 l 236 1133 l 303 1233 l 489 1233 l 489 1222 l 364 1028 l 101 1028 z "},"Î":{"ha":467,"x_min":-22,"x_max":489,"o":"m 71 0 l 71 956 l 396 956 l 396 0 l 71 0 m -22 1040 l -22 1051 l 101 1246 l 364 1246 l 489 1051 l 489 1040 l 303 1040 l 232 1140 l 164 1040 l -22 1040 z "},"Ȉ":{"ha":467,"x_min":-117,"x_max":463,"o":"m 71 0 l 71 956 l 396 956 l 396 0 l 71 0 m 200 1050 l 32 1050 l -117 1208 l -117 1214 l 104 1214 l 200 1056 l 200 1050 m 463 1050 l 297 1050 l 147 1208 l 147 1214 l 369 1214 l 463 1056 l 463 1050 z "},"Ï":{"ha":467,"x_min":-33,"x_max":500,"o":"m 71 0 l 71 956 l 396 956 l 396 0 l 71 0 m -33 1079 l -33 1251 l 196 1251 l 196 1079 l -33 1079 m 271 1079 l 271 1251 l 500 1251 l 500 1079 l 271 1079 z "},"İ":{"ha":467,"x_min":71,"x_max":396,"o":"m 71 0 l 71 956 l 396 956 l 396 0 l 71 0 m 118 1043 l 118 1215 l 347 1215 l 347 1043 l 118 1043 z "},"Ị":{"ha":467,"x_min":71,"x_max":396,"o":"m 71 0 l 71 956 l 396 956 l 396 0 l 71 0 m 81 -324 l 81 -86 l 385 -86 l 385 -324 l 81 -324 z "},"Ì":{"ha":467,"x_min":1,"x_max":396,"o":"m 71 0 l 71 956 l 396 956 l 396 0 l 71 0 m 190 1042 l 1 1240 l 1 1247 l 276 1247 l 396 1049 l 396 1042 l 190 1042 z "},"Ỉ":{"ha":467,"x_min":32,"x_max":433,"o":"m 71 0 l 71 956 l 396 956 l 396 0 l 71 0 m 122 1008 q 135 1081 122 1061 q 193 1111 149 1100 l 214 1117 q 244 1129 238 1124 q 251 1150 251 1135 q 238 1179 251 1174 q 178 1185 224 1185 q 104 1183 144 1185 q 32 1176 64 1181 l 32 1303 q 124 1315 69 1310 q 224 1319 178 1319 q 337 1311 294 1319 q 406 1270 379 1303 q 433 1168 433 1238 q 420 1100 433 1124 q 386 1066 407 1076 q 325 1044 365 1056 l 311 1040 q 280 1026 288 1033 q 272 1006 272 1018 l 122 1006 l 122 1008 z "},"Ȋ":{"ha":467,"x_min":8,"x_max":457,"o":"m 71 0 l 71 956 l 396 956 l 396 0 l 71 0 m 8 1029 q 26 1143 8 1097 q 92 1215 43 1189 q 233 1240 142 1240 q 374 1215 325 1240 q 440 1143 422 1189 q 457 1029 457 1097 l 303 1029 q 299 1066 303 1053 q 281 1088 296 1079 q 233 1096 265 1096 q 185 1088 200 1096 q 166 1066 169 1079 q 163 1029 163 1053 l 8 1029 z "},"Ī":{"ha":467,"x_min":26,"x_max":440,"o":"m 71 0 l 71 956 l 396 956 l 396 0 l 71 0 m 26 1013 l 26 1233 l 440 1233 l 440 1013 l 26 1013 z "},"Į":{"ha":467,"x_min":71,"x_max":397,"o":"m 278 -272 q 122 -238 169 -272 q 75 -151 75 -204 q 161 0 75 -76 l 71 0 l 71 956 l 396 956 l 396 0 q 335 -42 363 -17 q 308 -96 308 -67 q 374 -137 308 -137 l 397 -136 l 397 -267 q 278 -272 333 -272 z "},"Ĩ":{"ha":467,"x_min":-51,"x_max":517,"o":"m 71 0 l 71 956 l 396 956 l 396 0 l 71 0 m 517 1233 q 510 1107 517 1149 q 472 1040 503 1065 q 372 1015 442 1015 q 210 1038 318 1015 q 166 1046 197 1040 q 118 1051 135 1051 q 92 1041 97 1051 q 88 999 88 1031 l -51 999 q -44 1125 -51 1083 q -7 1192 -37 1167 q 93 1217 24 1217 q 256 1194 147 1217 q 299 1186 268 1192 q 347 1181 331 1181 q 373 1191 368 1181 q 378 1233 378 1201 l 517 1233 z "},"J":{"ha":608,"x_min":25,"x_max":538,"o":"m 25 219 q 158 228 122 219 q 203 265 193 236 q 213 376 213 294 l 213 956 l 538 956 l 538 456 q 511 133 538 218 q 389 24 485 47 q 25 0 293 0 l 25 219 z "},"Ĵ":{"ha":608,"x_min":25,"x_max":631,"o":"m 25 219 q 158 228 122 219 q 203 265 193 236 q 213 376 213 294 l 213 956 l 538 956 l 538 456 q 511 133 538 218 q 389 24 485 47 q 25 0 293 0 l 25 219 m 119 1028 l 119 1039 l 243 1233 l 506 1233 l 631 1039 l 631 1028 l 444 1028 l 374 1128 l 306 1028 l 119 1028 z "},"K":{"ha":967,"x_min":71,"x_max":967,"o":"m 613 0 l 410 372 l 396 372 l 396 0 l 71 0 l 71 956 l 396 956 l 396 599 l 410 599 l 617 956 l 963 956 l 675 507 l 967 0 l 613 0 z "},"Ķ":{"ha":967,"x_min":71,"x_max":967,"o":"m 613 0 l 410 372 l 396 372 l 396 0 l 71 0 l 71 956 l 396 956 l 396 599 l 410 599 l 617 956 l 963 956 l 675 507 l 967 0 l 613 0 m 340 -301 q 404 -297 383 -301 q 431 -282 425 -292 q 438 -251 438 -272 l 438 -243 l 340 -243 l 340 -79 l 625 -79 l 625 -183 q 606 -319 625 -275 q 528 -383 588 -364 q 340 -401 468 -401 l 340 -301 z "},"L":{"ha":740,"x_min":71,"x_max":715,"o":"m 71 0 l 71 956 l 396 956 l 396 244 l 715 244 l 715 0 l 71 0 z "},"Ǉ":{"ha":1349,"x_min":71,"x_max":1278,"o":"m 71 0 l 71 956 l 396 956 l 396 244 l 715 244 l 715 0 l 71 0 m 765 219 q 898 228 863 219 q 943 265 933 236 q 953 376 953 294 l 953 956 l 1278 956 l 1278 456 q 1251 133 1278 218 q 1129 24 1225 47 q 765 0 1033 0 l 765 219 z "},"Ĺ":{"ha":740,"x_min":71,"x_max":715,"o":"m 71 0 l 71 956 l 396 956 l 396 244 l 715 244 l 715 0 l 71 0 m 118 1028 l 118 1035 l 238 1233 l 513 1233 l 513 1226 l 324 1028 l 118 1028 z "},"Ľ":{"ha":740,"x_min":71,"x_max":767,"o":"m 71 0 l 71 956 l 396 956 l 396 244 l 715 244 l 715 0 l 71 0 m 499 585 l 511 892 l 511 956 l 767 956 l 767 892 l 696 585 l 499 585 z "},"Ļ":{"ha":740,"x_min":71,"x_max":715,"o":"m 71 0 l 71 956 l 396 956 l 396 244 l 715 244 l 715 0 l 71 0 m 236 -301 q 300 -297 279 -301 q 327 -282 321 -292 q 333 -251 333 -272 l 333 -243 l 236 -243 l 236 -79 l 521 -79 l 521 -183 q 502 -319 521 -275 q 424 -383 483 -364 q 236 -401 364 -401 l 236 -301 z "},"Ŀ":{"ha":768,"x_min":71,"x_max":768,"o":"m 71 0 l 71 956 l 396 956 l 396 244 l 715 244 l 715 0 l 71 0 m 464 422 l 464 660 l 768 660 l 768 422 l 464 422 z "},"ǈ":{"ha":1165,"x_min":71,"x_max":1104,"o":"m 71 0 l 71 956 l 396 956 l 396 244 l 715 244 l 715 0 l 71 0 m 801 822 l 801 1032 l 1104 1032 l 1104 822 l 801 822 m 701 -85 q 769 -78 747 -85 q 796 -56 790 -71 q 801 -14 801 -42 l 801 708 l 1104 708 l 1104 51 q 1074 -169 1104 -103 q 965 -256 1044 -236 q 701 -276 886 -276 l 701 -85 z "},"Ł":{"ha":740,"x_min":-1,"x_max":715,"o":"m 396 244 l 715 244 l 715 0 l 71 0 l 71 346 l -1 319 l -1 517 l 71 543 l 71 956 l 396 956 l 396 661 l 567 724 l 567 526 l 396 464 l 396 244 z "},"M":{"ha":1254,"x_min":71,"x_max":1183,"o":"m 874 0 l 874 538 l 858 538 l 731 0 l 515 0 l 388 538 l 372 538 l 372 0 l 71 0 l 71 956 l 515 956 l 622 507 l 635 507 l 740 956 l 1183 956 l 1183 0 l 874 0 z "},"N":{"ha":979,"x_min":71,"x_max":908,"o":"m 610 0 l 389 446 l 381 446 l 381 0 l 71 0 l 71 956 l 403 956 l 589 586 l 599 586 l 599 956 l 908 956 l 908 0 l 610 0 z "},"Ǌ":{"ha":1588,"x_min":71,"x_max":1517,"o":"m 610 0 l 389 446 l 381 446 l 381 0 l 71 0 l 71 956 l 403 956 l 589 586 l 599 586 l 599 956 l 908 956 l 908 0 l 610 0 m 1004 219 q 1137 228 1101 219 q 1182 265 1172 236 q 1192 376 1192 294 l 1192 956 l 1517 956 l 1517 456 q 1490 133 1517 218 q 1368 24 1464 47 q 1004 0 1272 0 l 1004 219 z "},"Ń":{"ha":979,"x_min":71,"x_max":908,"o":"m 610 0 l 389 446 l 381 446 l 381 0 l 71 0 l 71 956 l 403 956 l 589 586 l 599 586 l 599 956 l 908 956 l 908 0 l 610 0 m 375 1028 l 375 1035 l 494 1233 l 769 1233 l 769 1226 l 581 1028 l 375 1028 z "},"Ň":{"ha":979,"x_min":71,"x_max":908,"o":"m 610 0 l 389 446 l 381 446 l 381 0 l 71 0 l 71 956 l 403 956 l 589 586 l 599 586 l 599 956 l 908 956 l 908 0 l 610 0 m 358 1028 l 235 1222 l 235 1233 l 421 1233 l 493 1133 l 560 1233 l 746 1233 l 746 1222 l 621 1028 l 358 1028 z "},"Ņ":{"ha":979,"x_min":71,"x_max":908,"o":"m 610 0 l 389 446 l 381 446 l 381 0 l 71 0 l 71 956 l 403 956 l 589 586 l 599 586 l 599 956 l 908 956 l 908 0 l 610 0 m 347 -301 q 411 -297 390 -301 q 438 -282 432 -292 q 444 -251 444 -272 l 444 -243 l 347 -243 l 347 -79 l 632 -79 l 632 -183 q 613 -319 632 -275 q 535 -383 594 -364 q 347 -401 475 -401 l 347 -301 z "},"Ṅ":{"ha":979,"x_min":71,"x_max":908,"o":"m 610 0 l 389 446 l 381 446 l 381 0 l 71 0 l 71 956 l 403 956 l 589 586 l 599 586 l 599 956 l 908 956 l 908 0 l 610 0 m 375 1043 l 375 1215 l 604 1215 l 604 1043 l 375 1043 z "},"Ŋ":{"ha":979,"x_min":71,"x_max":908,"o":"m 908 956 l 908 51 q 878 -169 908 -103 q 767 -256 849 -236 q 499 -276 686 -276 l 499 -85 q 566 -78 544 -85 q 593 -56 588 -71 q 599 -14 599 -42 l 599 22 l 389 446 l 381 446 l 381 0 l 71 0 l 71 956 l 403 956 l 589 586 l 599 586 l 599 956 l 908 956 z "},"Ɲ":{"ha":979,"x_min":-29,"x_max":908,"o":"m 908 956 l 908 0 l 610 0 l 389 446 l 381 446 l 381 51 q 351 -169 381 -103 q 240 -256 321 -236 q -29 -276 158 -276 l -29 -85 q 38 -78 17 -85 q 65 -56 60 -71 q 71 -14 71 -42 l 71 956 l 403 956 l 589 586 l 599 586 l 599 956 l 908 956 z "},"ǋ":{"ha":1404,"x_min":71,"x_max":1343,"o":"m 610 0 l 389 446 l 381 446 l 381 0 l 71 0 l 71 956 l 403 956 l 589 586 l 599 586 l 599 956 l 908 956 l 908 0 l 610 0 m 1040 822 l 1040 1032 l 1343 1032 l 1343 822 l 1040 822 m 940 -85 q 1008 -78 986 -85 q 1035 -56 1029 -71 q 1040 -14 1040 -42 l 1040 708 l 1343 708 l 1343 51 q 1313 -169 1343 -103 q 1204 -256 1283 -236 q 940 -276 1125 -276 l 940 -85 z "},"Ñ":{"ha":979,"x_min":71,"x_max":908,"o":"m 610 0 l 389 446 l 381 446 l 381 0 l 71 0 l 71 956 l 403 956 l 589 586 l 599 586 l 599 956 l 908 956 l 908 0 l 610 0 m 774 1278 q 767 1151 774 1193 q 729 1085 760 1110 q 629 1060 699 1060 q 467 1082 575 1060 q 423 1090 454 1085 q 375 1096 392 1096 q 349 1085 354 1096 q 344 1043 344 1075 l 206 1043 q 213 1169 206 1128 q 250 1236 219 1211 q 350 1261 281 1261 q 513 1239 404 1261 q 556 1231 525 1236 q 604 1225 588 1225 q 630 1235 625 1225 q 635 1278 635 1246 l 774 1278 z "},"O":{"ha":965,"x_min":58,"x_max":907,"o":"m 482 -11 q 187 31 274 -11 q 79 166 100 74 q 58 478 58 258 q 79 790 58 697 q 187 924 100 882 q 482 967 274 967 q 778 924 690 967 q 886 790 865 882 q 907 478 907 697 q 886 166 907 258 q 778 31 865 74 q 482 -11 690 -11 m 482 221 q 553 233 535 221 q 576 292 571 246 q 581 478 581 339 q 576 663 581 617 q 553 722 571 710 q 482 735 535 735 q 411 722 429 735 q 389 664 393 710 q 385 478 385 618 q 389 292 385 338 q 411 233 393 246 q 482 221 429 221 z "},"Ó":{"ha":965,"x_min":58,"x_max":907,"o":"m 482 -11 q 187 31 274 -11 q 79 166 100 74 q 58 478 58 258 q 79 790 58 697 q 187 924 100 882 q 482 967 274 967 q 778 924 690 967 q 886 790 865 882 q 907 478 907 697 q 886 166 907 258 q 778 31 865 74 q 482 -11 690 -11 m 482 221 q 553 233 535 221 q 576 292 571 246 q 581 478 581 339 q 576 663 581 617 q 553 722 571 710 q 482 735 535 735 q 411 722 429 735 q 389 664 393 710 q 385 478 385 618 q 389 292 385 338 q 411 233 393 246 q 482 221 429 221 m 365 1042 l 365 1049 l 485 1247 l 760 1247 l 760 1240 l 571 1042 l 365 1042 z "},"Ŏ":{"ha":965,"x_min":58,"x_max":907,"o":"m 482 -11 q 187 31 274 -11 q 79 166 100 74 q 58 478 58 258 q 79 790 58 697 q 187 924 100 882 q 482 967 274 967 q 778 924 690 967 q 886 790 865 882 q 907 478 907 697 q 886 166 907 258 q 778 31 865 74 q 482 -11 690 -11 m 482 221 q 553 233 535 221 q 576 292 571 246 q 581 478 581 339 q 576 663 581 617 q 553 722 571 710 q 482 735 535 735 q 411 722 429 735 q 389 664 393 710 q 385 478 385 618 q 389 292 385 338 q 411 233 393 246 q 482 221 429 221 m 707 1233 q 690 1119 707 1165 q 623 1048 672 1074 q 482 1022 574 1022 q 342 1048 390 1022 q 276 1119 293 1074 q 258 1233 258 1165 l 413 1233 q 416 1197 413 1210 q 435 1175 419 1183 q 482 1167 450 1167 q 531 1175 515 1167 q 549 1197 546 1183 q 553 1233 553 1210 l 707 1233 z "},"Ǒ":{"ha":965,"x_min":58,"x_max":907,"o":"m 482 -11 q 187 31 274 -11 q 79 166 100 74 q 58 478 58 258 q 79 790 58 697 q 187 924 100 882 q 482 967 274 967 q 778 924 690 967 q 886 790 865 882 q 907 478 907 697 q 886 166 907 258 q 778 31 865 74 q 482 -11 690 -11 m 482 221 q 553 233 535 221 q 576 292 571 246 q 581 478 581 339 q 576 663 581 617 q 553 722 571 710 q 482 735 535 735 q 411 722 429 735 q 389 664 393 710 q 385 478 385 618 q 389 292 385 338 q 411 233 393 246 q 482 221 429 221 m 351 1028 l 228 1222 l 228 1233 l 414 1233 l 486 1133 l 553 1233 l 739 1233 l 739 1222 l 614 1028 l 351 1028 z "},"Ô":{"ha":965,"x_min":58,"x_max":907,"o":"m 482 -11 q 187 31 274 -11 q 79 166 100 74 q 58 478 58 258 q 79 790 58 697 q 187 924 100 882 q 482 967 274 967 q 778 924 690 967 q 886 790 865 882 q 907 478 907 697 q 886 166 907 258 q 778 31 865 74 q 482 -11 690 -11 m 482 221 q 553 233 535 221 q 576 292 571 246 q 581 478 581 339 q 576 663 581 617 q 553 722 571 710 q 482 735 535 735 q 411 722 429 735 q 389 664 393 710 q 385 478 385 618 q 389 292 385 338 q 411 233 393 246 q 482 221 429 221 m 226 1042 l 226 1053 l 350 1247 l 613 1247 l 738 1053 l 738 1042 l 551 1042 l 481 1142 l 413 1042 l 226 1042 z "},"Ố":{"ha":965,"x_min":58,"x_max":907,"o":"m 482 -11 q 187 31 274 -11 q 79 166 100 74 q 58 478 58 258 q 79 790 58 697 q 187 924 100 882 q 482 967 274 967 q 778 924 690 967 q 886 790 865 882 q 907 478 907 697 q 886 166 907 258 q 778 31 865 74 q 482 -11 690 -11 m 482 221 q 553 233 535 221 q 576 292 571 246 q 581 478 581 339 q 576 663 581 617 q 553 722 571 710 q 482 735 535 735 q 411 722 429 735 q 389 664 393 710 q 385 478 385 618 q 389 292 385 338 q 411 233 393 246 q 482 221 429 221 m 226 1028 l 226 1039 l 350 1233 l 613 1233 l 738 1039 l 738 1028 l 551 1028 l 481 1128 l 413 1028 l 226 1028 m 485 1268 l 485 1275 l 604 1474 l 879 1474 l 879 1467 l 690 1268 l 485 1268 z "},"Ộ":{"ha":965,"x_min":58,"x_max":907,"o":"m 482 -11 q 187 31 274 -11 q 79 166 100 74 q 58 478 58 258 q 79 790 58 697 q 187 924 100 882 q 482 967 274 967 q 778 924 690 967 q 886 790 865 882 q 907 478 907 697 q 886 166 907 258 q 778 31 865 74 q 482 -11 690 -11 m 482 221 q 553 233 535 221 q 576 292 571 246 q 581 478 581 339 q 576 663 581 617 q 553 722 571 710 q 482 735 535 735 q 411 722 429 735 q 389 664 393 710 q 385 478 385 618 q 389 292 385 338 q 411 233 393 246 q 482 221 429 221 m 331 -324 l 331 -86 l 635 -86 l 635 -324 l 331 -324 m 228 1028 l 228 1039 l 351 1233 l 614 1233 l 739 1039 l 739 1028 l 553 1028 l 482 1128 l 414 1028 l 228 1028 z "},"Ồ":{"ha":965,"x_min":58,"x_max":907,"o":"m 482 -11 q 187 31 274 -11 q 79 166 100 74 q 58 478 58 258 q 79 790 58 697 q 187 924 100 882 q 482 967 274 967 q 778 924 690 967 q 886 790 865 882 q 907 478 907 697 q 886 166 907 258 q 778 31 865 74 q 482 -11 690 -11 m 482 221 q 553 233 535 221 q 576 292 571 246 q 581 478 581 339 q 576 663 581 617 q 553 722 571 710 q 482 735 535 735 q 411 722 429 735 q 389 664 393 710 q 385 478 385 618 q 389 292 385 338 q 411 233 393 246 q 482 221 429 221 m 211 1028 l 211 1039 l 335 1233 l 597 1233 l 722 1039 l 722 1028 l 536 1028 l 465 1128 l 397 1028 l 211 1028 m 549 1268 l 360 1467 l 360 1474 l 635 1474 l 754 1275 l 754 1268 l 549 1268 z "},"Ổ":{"ha":965,"x_min":58,"x_max":907,"o":"m 482 -11 q 187 31 274 -11 q 79 166 100 74 q 58 478 58 258 q 79 790 58 697 q 187 924 100 882 q 482 967 274 967 q 778 924 690 967 q 886 790 865 882 q 907 478 907 697 q 886 166 907 258 q 778 31 865 74 q 482 -11 690 -11 m 482 221 q 553 233 535 221 q 576 292 571 246 q 581 478 581 339 q 576 663 581 617 q 553 722 571 710 q 482 735 535 735 q 411 722 429 735 q 389 664 393 710 q 385 478 385 618 q 389 292 385 338 q 411 233 393 246 q 482 221 429 221 m 228 1028 l 228 1039 l 351 1233 l 614 1233 l 739 1039 l 739 1028 l 553 1028 l 482 1128 l 414 1028 l 228 1028 m 560 1265 q 573 1338 560 1318 q 631 1368 586 1357 l 651 1374 q 682 1386 675 1381 q 689 1407 689 1392 q 675 1436 689 1431 q 615 1442 661 1442 q 542 1440 582 1442 q 469 1433 501 1438 l 469 1560 q 561 1572 507 1567 q 661 1576 615 1576 q 774 1568 732 1576 q 844 1527 817 1560 q 871 1425 871 1494 q 858 1357 871 1381 q 824 1323 844 1333 q 763 1301 803 1313 l 749 1297 q 717 1283 725 1290 q 710 1263 710 1275 l 560 1263 l 560 1265 z "},"Ỗ":{"ha":965,"x_min":58,"x_max":907,"o":"m 482 -11 q 187 31 274 -11 q 79 166 100 74 q 58 478 58 258 q 79 790 58 697 q 187 924 100 882 q 482 967 274 967 q 778 924 690 967 q 886 790 865 882 q 907 478 907 697 q 886 166 907 258 q 778 31 865 74 q 482 -11 690 -11 m 482 221 q 553 233 535 221 q 576 292 571 246 q 581 478 581 339 q 576 663 581 617 q 553 722 571 710 q 482 735 535 735 q 411 722 429 735 q 389 664 393 710 q 385 478 385 618 q 389 292 385 338 q 411 233 393 246 q 482 221 429 221 m 225 1028 l 225 1039 l 349 1233 l 611 1233 l 736 1039 l 736 1028 l 550 1028 l 479 1128 l 411 1028 l 225 1028 m 767 1474 q 760 1347 767 1389 q 722 1281 753 1306 q 622 1256 692 1256 q 460 1278 568 1256 q 416 1286 447 1281 q 368 1292 385 1292 q 342 1281 347 1292 q 338 1239 338 1271 l 199 1239 q 206 1365 199 1324 q 243 1432 213 1407 q 343 1457 274 1457 q 506 1435 397 1457 q 549 1426 518 1432 q 597 1421 581 1421 q 623 1431 618 1421 q 628 1474 628 1442 l 767 1474 z "},"Ȍ":{"ha":965,"x_min":58,"x_max":907,"o":"m 482 -11 q 187 31 274 -11 q 79 166 100 74 q 58 478 58 258 q 79 790 58 697 q 187 924 100 882 q 482 967 274 967 q 778 924 690 967 q 886 790 865 882 q 907 478 907 697 q 886 166 907 258 q 778 31 865 74 q 482 -11 690 -11 m 482 221 q 553 233 535 221 q 576 292 571 246 q 581 478 581 339 q 576 663 581 617 q 553 722 571 710 q 482 735 535 735 q 411 722 429 735 q 389 664 393 710 q 385 478 385 618 q 389 292 385 338 q 411 233 393 246 q 482 221 429 221 m 450 1050 l 282 1050 l 133 1208 l 133 1214 l 354 1214 l 450 1056 l 450 1050 m 713 1050 l 547 1050 l 397 1208 l 397 1214 l 619 1214 l 713 1056 l 713 1050 z "},"Ö":{"ha":965,"x_min":58,"x_max":907,"o":"m 482 -11 q 187 31 274 -11 q 79 166 100 74 q 58 478 58 258 q 79 790 58 697 q 187 924 100 882 q 482 967 274 967 q 778 924 690 967 q 886 790 865 882 q 907 478 907 697 q 886 166 907 258 q 778 31 865 74 q 482 -11 690 -11 m 482 221 q 553 233 535 221 q 576 292 571 246 q 581 478 581 339 q 576 663 581 617 q 553 722 571 710 q 482 735 535 735 q 411 722 429 735 q 389 664 393 710 q 385 478 385 618 q 389 292 385 338 q 411 233 393 246 q 482 221 429 221 m 215 1079 l 215 1251 l 444 1251 l 444 1079 l 215 1079 m 519 1079 l 519 1251 l 749 1251 l 749 1079 l 519 1079 z "},"Ọ":{"ha":965,"x_min":58,"x_max":907,"o":"m 482 -11 q 187 31 274 -11 q 79 166 100 74 q 58 478 58 258 q 79 790 58 697 q 187 924 100 882 q 482 967 274 967 q 778 924 690 967 q 886 790 865 882 q 907 478 907 697 q 886 166 907 258 q 778 31 865 74 q 482 -11 690 -11 m 482 221 q 553 233 535 221 q 576 292 571 246 q 581 478 581 339 q 576 663 581 617 q 553 722 571 710 q 482 735 535 735 q 411 722 429 735 q 389 664 393 710 q 385 478 385 618 q 389 292 385 338 q 411 233 393 246 q 482 221 429 221 m 331 -324 l 331 -86 l 635 -86 l 635 -324 l 331 -324 z "},"Ò":{"ha":965,"x_min":58,"x_max":907,"o":"m 482 -11 q 187 31 274 -11 q 79 166 100 74 q 58 478 58 258 q 79 790 58 697 q 187 924 100 882 q 482 967 274 967 q 778 924 690 967 q 886 790 865 882 q 907 478 907 697 q 886 166 907 258 q 778 31 865 74 q 482 -11 690 -11 m 482 221 q 553 233 535 221 q 576 292 571 246 q 581 478 581 339 q 576 663 581 617 q 553 722 571 710 q 482 735 535 735 q 411 722 429 735 q 389 664 393 710 q 385 478 385 618 q 389 292 385 338 q 411 233 393 246 q 482 221 429 221 m 400 1042 l 211 1240 l 211 1247 l 486 1247 l 606 1049 l 606 1042 l 400 1042 z "},"Ỏ":{"ha":965,"x_min":58,"x_max":907,"o":"m 482 -11 q 187 31 274 -11 q 79 166 100 74 q 58 478 58 258 q 79 790 58 697 q 187 924 100 882 q 482 967 274 967 q 778 924 690 967 q 886 790 865 882 q 907 478 907 697 q 886 166 907 258 q 778 31 865 74 q 482 -11 690 -11 m 482 221 q 553 233 535 221 q 576 292 571 246 q 581 478 581 339 q 576 663 581 617 q 553 722 571 710 q 482 735 535 735 q 411 722 429 735 q 389 664 393 710 q 385 478 385 618 q 389 292 385 338 q 411 233 393 246 q 482 221 429 221 m 372 1008 q 385 1081 372 1061 q 443 1111 399 1100 l 464 1117 q 494 1129 488 1124 q 501 1150 501 1135 q 488 1179 501 1174 q 428 1185 474 1185 q 354 1183 394 1185 q 282 1176 314 1181 l 282 1303 q 374 1315 319 1310 q 474 1319 428 1319 q 587 1311 544 1319 q 656 1270 629 1303 q 683 1168 683 1238 q 670 1100 683 1124 q 636 1066 657 1076 q 575 1044 615 1056 l 561 1040 q 530 1026 538 1033 q 522 1006 522 1018 l 372 1006 l 372 1008 z "},"Ơ":{"ha":965,"x_min":58,"x_max":986,"o":"m 986 1078 l 986 1060 q 976 957 986 994 q 938 897 967 919 q 851 865 908 875 q 898 731 889 814 q 907 478 907 647 q 886 166 907 258 q 778 31 865 74 q 482 -11 690 -11 q 187 31 274 -11 q 79 166 100 74 q 58 478 58 258 q 79 790 58 697 q 187 924 100 882 q 482 967 274 967 q 667 956 599 967 l 701 956 q 765 964 744 956 q 792 991 786 972 q 799 1047 799 1010 l 799 1078 l 986 1078 m 482 221 q 553 233 535 221 q 576 292 571 246 q 581 478 581 339 q 576 663 581 617 q 553 722 571 710 q 482 735 535 735 q 411 722 429 735 q 389 664 393 710 q 385 478 385 618 q 389 292 385 338 q 411 233 393 246 q 482 221 429 221 z "},"Ớ":{"ha":965,"x_min":58,"x_max":986,"o":"m 986 1078 l 986 1060 q 976 957 986 994 q 938 897 967 919 q 851 865 908 875 q 898 731 889 814 q 907 478 907 647 q 886 166 907 258 q 778 31 865 74 q 482 -11 690 -11 q 187 31 274 -11 q 79 166 100 74 q 58 478 58 258 q 79 790 58 697 q 187 924 100 882 q 482 967 274 967 q 667 956 599 967 l 701 956 q 765 964 744 956 q 792 991 786 972 q 799 1047 799 1010 l 799 1078 l 986 1078 m 482 221 q 553 233 535 221 q 576 292 571 246 q 581 478 581 339 q 576 663 581 617 q 553 722 571 710 q 482 735 535 735 q 411 722 429 735 q 389 664 393 710 q 385 478 385 618 q 389 292 385 338 q 411 233 393 246 q 482 221 429 221 m 368 1028 l 368 1035 l 488 1233 l 763 1233 l 763 1226 l 574 1028 l 368 1028 z "},"Ợ":{"ha":965,"x_min":58,"x_max":986,"o":"m 986 1078 l 986 1060 q 976 957 986 994 q 938 897 967 919 q 851 865 908 875 q 898 731 889 814 q 907 478 907 647 q 886 166 907 258 q 778 31 865 74 q 482 -11 690 -11 q 187 31 274 -11 q 79 166 100 74 q 58 478 58 258 q 79 790 58 697 q 187 924 100 882 q 482 967 274 967 q 667 956 599 967 l 701 956 q 765 964 744 956 q 792 991 786 972 q 799 1047 799 1010 l 799 1078 l 986 1078 m 482 221 q 553 233 535 221 q 576 292 571 246 q 581 478 581 339 q 576 663 581 617 q 553 722 571 710 q 482 735 535 735 q 411 722 429 735 q 389 664 393 710 q 385 478 385 618 q 389 292 385 338 q 411 233 393 246 q 482 221 429 221 m 331 -324 l 331 -86 l 635 -86 l 635 -324 l 331 -324 z "},"Ờ":{"ha":965,"x_min":58,"x_max":986,"o":"m 986 1078 l 986 1060 q 976 957 986 994 q 938 897 967 919 q 851 865 908 875 q 898 731 889 814 q 907 478 907 647 q 886 166 907 258 q 778 31 865 74 q 482 -11 690 -11 q 187 31 274 -11 q 79 166 100 74 q 58 478 58 258 q 79 790 58 697 q 187 924 100 882 q 482 967 274 967 q 667 956 599 967 l 701 956 q 765 964 744 956 q 792 991 786 972 q 799 1047 799 1010 l 799 1078 l 986 1078 m 482 221 q 553 233 535 221 q 576 292 571 246 q 581 478 581 339 q 576 663 581 617 q 553 722 571 710 q 482 735 535 735 q 411 722 429 735 q 389 664 393 710 q 385 478 385 618 q 389 292 385 338 q 411 233 393 246 q 482 221 429 221 m 397 1028 l 208 1226 l 208 1233 l 483 1233 l 603 1035 l 603 1028 l 397 1028 z "},"Ở":{"ha":965,"x_min":58,"x_max":986,"o":"m 986 1078 l 986 1060 q 976 957 986 994 q 938 897 967 919 q 851 865 908 875 q 898 731 889 814 q 907 478 907 647 q 886 166 907 258 q 778 31 865 74 q 482 -11 690 -11 q 187 31 274 -11 q 79 166 100 74 q 58 478 58 258 q 79 790 58 697 q 187 924 100 882 q 482 967 274 967 q 667 956 599 967 l 701 956 q 765 964 744 956 q 792 991 786 972 q 799 1047 799 1010 l 799 1078 l 986 1078 m 482 221 q 553 233 535 221 q 576 292 571 246 q 581 478 581 339 q 576 663 581 617 q 553 722 571 710 q 482 735 535 735 q 411 722 429 735 q 389 664 393 710 q 385 478 385 618 q 389 292 385 338 q 411 233 393 246 q 482 221 429 221 m 372 1008 q 385 1081 372 1061 q 443 1111 399 1100 l 464 1117 q 494 1129 488 1124 q 501 1150 501 1135 q 488 1179 501 1174 q 428 1185 474 1185 q 354 1183 394 1185 q 282 1176 314 1181 l 282 1303 q 374 1315 319 1310 q 474 1319 428 1319 q 587 1311 544 1319 q 656 1270 629 1303 q 683 1168 683 1238 q 670 1100 683 1124 q 636 1066 657 1076 q 575 1044 615 1056 l 561 1040 q 530 1026 538 1033 q 522 1006 522 1018 l 372 1006 l 372 1008 z "},"Ỡ":{"ha":965,"x_min":58,"x_max":986,"o":"m 986 1078 l 986 1060 q 976 957 986 994 q 938 897 967 919 q 851 865 908 875 q 898 731 889 814 q 907 478 907 647 q 886 166 907 258 q 778 31 865 74 q 482 -11 690 -11 q 187 31 274 -11 q 79 166 100 74 q 58 478 58 258 q 79 790 58 697 q 187 924 100 882 q 482 967 274 967 q 667 956 599 967 l 701 956 q 765 964 744 956 q 792 991 786 972 q 799 1047 799 1010 l 799 1078 l 986 1078 m 482 221 q 553 233 535 221 q 576 292 571 246 q 581 478 581 339 q 576 663 581 617 q 553 722 571 710 q 482 735 535 735 q 411 722 429 735 q 389 664 393 710 q 385 478 385 618 q 389 292 385 338 q 411 233 393 246 q 482 221 429 221 m 767 1233 q 760 1107 767 1149 q 722 1040 753 1065 q 622 1015 692 1015 q 460 1038 568 1015 q 416 1046 447 1040 q 368 1051 385 1051 q 342 1041 347 1051 q 338 999 338 1031 l 199 999 q 206 1125 199 1083 q 243 1192 213 1167 q 343 1217 274 1217 q 506 1194 397 1217 q 549 1186 518 1192 q 597 1181 581 1181 q 623 1191 618 1181 q 628 1233 628 1201 l 767 1233 z "},"Ő":{"ha":965,"x_min":58,"x_max":907,"o":"m 482 -11 q 187 31 274 -11 q 79 166 100 74 q 58 478 58 258 q 79 790 58 697 q 187 924 100 882 q 482 967 274 967 q 778 924 690 967 q 886 790 865 882 q 907 478 907 697 q 886 166 907 258 q 778 31 865 74 q 482 -11 690 -11 m 482 221 q 553 233 535 221 q 576 292 571 246 q 581 478 581 339 q 576 663 581 617 q 553 722 571 710 q 482 735 535 735 q 411 722 429 735 q 389 664 393 710 q 385 478 385 618 q 389 292 385 338 q 411 233 393 246 q 482 221 429 221 m 272 1050 l 272 1056 l 365 1214 l 588 1214 l 588 1208 l 438 1050 l 272 1050 m 535 1050 l 535 1056 l 631 1214 l 851 1214 l 851 1208 l 703 1050 l 535 1050 z "},"Ȏ":{"ha":965,"x_min":58,"x_max":907,"o":"m 482 -11 q 187 31 274 -11 q 79 166 100 74 q 58 478 58 258 q 79 790 58 697 q 187 924 100 882 q 482 967 274 967 q 778 924 690 967 q 886 790 865 882 q 907 478 907 697 q 886 166 907 258 q 778 31 865 74 q 482 -11 690 -11 m 482 221 q 553 233 535 221 q 576 292 571 246 q 581 478 581 339 q 576 663 581 617 q 553 722 571 710 q 482 735 535 735 q 411 722 429 735 q 389 664 393 710 q 385 478 385 618 q 389 292 385 338 q 411 233 393 246 q 482 221 429 221 m 258 1029 q 276 1143 258 1097 q 342 1215 293 1189 q 483 1240 392 1240 q 624 1215 575 1240 q 690 1143 672 1189 q 707 1029 707 1097 l 553 1029 q 549 1066 553 1053 q 531 1088 546 1079 q 483 1096 515 1096 q 435 1088 450 1096 q 416 1066 419 1079 q 413 1029 413 1053 l 258 1029 z "},"Ō":{"ha":965,"x_min":58,"x_max":907,"o":"m 482 -11 q 187 31 274 -11 q 79 166 100 74 q 58 478 58 258 q 79 790 58 697 q 187 924 100 882 q 482 967 274 967 q 778 924 690 967 q 886 790 865 882 q 907 478 907 697 q 886 166 907 258 q 778 31 865 74 q 482 -11 690 -11 m 482 221 q 553 233 535 221 q 576 292 571 246 q 581 478 581 339 q 576 663 581 617 q 553 722 571 710 q 482 735 535 735 q 411 722 429 735 q 389 664 393 710 q 385 478 385 618 q 389 292 385 338 q 411 233 393 246 q 482 221 429 221 m 276 1013 l 276 1233 l 690 1233 l 690 1013 l 276 1013 z "},"Ǫ":{"ha":965,"x_min":58,"x_max":907,"o":"m 638 -272 q 481 -238 528 -272 q 435 -150 435 -204 q 500 -11 435 -81 l 482 -11 q 187 31 274 -11 q 79 166 100 74 q 58 478 58 258 q 79 790 58 697 q 187 924 100 882 q 482 967 274 967 q 778 924 690 967 q 886 790 865 882 q 907 478 907 697 q 900 247 907 325 q 865 114 893 168 q 775 31 838 60 q 694 -26 719 6 q 668 -96 668 -57 q 733 -137 668 -137 l 757 -136 l 757 -267 q 638 -272 693 -272 m 482 221 q 553 233 535 221 q 576 292 571 246 q 581 478 581 339 q 576 663 581 617 q 553 722 571 710 q 482 735 535 735 q 411 722 429 735 q 389 664 393 710 q 385 478 385 618 q 389 292 385 338 q 411 233 393 246 q 482 221 429 221 z "},"Ø":{"ha":965,"x_min":58,"x_max":907,"o":"m 828 890 q 882 801 865 856 q 903 677 899 747 q 907 478 907 607 q 886 166 907 258 q 778 31 865 74 q 482 -11 690 -11 q 338 -6 393 -11 l 299 -76 l 58 -76 l 136 65 q 83 153 100 99 q 63 278 67 207 q 58 478 58 349 q 79 790 58 697 q 187 924 100 882 q 482 967 274 967 q 625 961 569 967 l 665 1032 l 907 1032 l 828 890 m 482 221 q 553 233 535 221 q 576 292 571 246 q 581 478 581 339 q 576 663 581 617 q 553 722 571 710 q 482 735 535 735 q 411 722 429 735 q 389 664 393 710 q 385 478 385 618 q 389 292 385 338 q 411 233 393 246 q 482 221 429 221 z "},"Ǿ":{"ha":965,"x_min":58,"x_max":907,"o":"m 828 890 q 882 801 865 856 q 903 677 899 747 q 907 478 907 607 q 886 166 907 258 q 778 31 865 74 q 482 -11 690 -11 q 338 -6 393 -11 l 299 -76 l 58 -76 l 136 65 q 83 153 100 99 q 63 278 67 207 q 58 478 58 349 q 79 790 58 697 q 187 924 100 882 q 482 967 274 967 q 625 961 569 967 l 665 1032 l 907 1032 l 828 890 m 482 221 q 553 233 535 221 q 576 292 571 246 q 581 478 581 339 q 576 663 581 617 q 553 722 571 710 q 482 735 535 735 q 411 722 429 735 q 389 664 393 710 q 385 478 385 618 q 389 292 385 338 q 411 233 393 246 q 482 221 429 221 m 368 1028 l 368 1035 l 488 1233 l 763 1233 l 763 1226 l 574 1028 l 368 1028 z "},"Õ":{"ha":965,"x_min":58,"x_max":907,"o":"m 482 -11 q 187 31 274 -11 q 79 166 100 74 q 58 478 58 258 q 79 790 58 697 q 187 924 100 882 q 482 967 274 967 q 778 924 690 967 q 886 790 865 882 q 907 478 907 697 q 886 166 907 258 q 778 31 865 74 q 482 -11 690 -11 m 482 221 q 553 233 535 221 q 576 292 571 246 q 581 478 581 339 q 576 663 581 617 q 553 722 571 710 q 482 735 535 735 q 411 722 429 735 q 389 664 393 710 q 385 478 385 618 q 389 292 385 338 q 411 233 393 246 q 482 221 429 221 m 769 1276 q 763 1150 769 1192 q 725 1083 756 1108 q 625 1058 694 1058 q 463 1081 571 1058 q 419 1089 450 1083 q 371 1094 388 1094 q 345 1084 350 1094 q 340 1042 340 1074 l 201 1042 q 208 1168 201 1126 q 246 1235 215 1210 q 346 1260 276 1260 q 508 1238 400 1260 q 552 1229 521 1235 q 600 1224 583 1224 q 626 1234 621 1224 q 631 1276 631 1244 l 769 1276 z "},"Œ":{"ha":1353,"x_min":58,"x_max":1286,"o":"m 482 0 q 187 42 274 0 q 79 173 100 83 q 58 478 58 263 q 79 783 58 693 q 187 914 100 872 q 482 956 274 956 l 1286 956 l 1286 724 l 982 724 q 924 726 951 724 q 883 735 896 729 q 906 596 899 678 l 1221 596 l 1221 369 l 906 369 q 883 221 906 282 q 982 232 913 232 l 1286 232 l 1286 0 l 482 0 m 482 232 q 553 244 535 232 q 576 301 571 256 q 581 478 581 346 q 576 655 581 610 q 553 712 571 700 q 482 724 535 724 q 411 712 429 724 q 389 656 393 700 q 385 478 385 613 q 389 299 385 343 q 411 244 393 256 q 482 232 429 232 z "},"P":{"ha":883,"x_min":71,"x_max":854,"o":"m 71 956 l 561 956 q 748 920 685 956 q 833 815 811 885 q 854 622 854 746 q 834 438 854 507 q 751 329 814 368 q 561 290 688 290 l 396 290 l 396 0 l 71 0 l 71 956 m 439 517 q 499 523 482 517 q 522 549 517 529 q 528 622 528 569 q 522 697 528 675 q 500 724 517 718 q 439 729 483 729 l 396 729 l 396 517 l 439 517 z "},"Þ":{"ha":883,"x_min":72,"x_max":854,"o":"m 72 956 l 396 956 l 396 822 l 561 822 q 748 787 685 822 q 833 682 811 751 q 854 489 854 613 q 834 304 854 374 q 751 196 814 235 q 561 157 688 157 l 396 157 l 396 0 l 72 0 l 72 956 m 439 383 q 499 390 482 383 q 522 416 517 396 q 528 489 528 436 q 522 563 528 542 q 500 590 517 585 q 439 596 483 596 l 396 596 l 396 383 l 439 383 z "},"Q":{"ha":965,"x_min":58,"x_max":972,"o":"m 543 -8 q 482 -11 504 -11 q 187 31 274 -11 q 79 166 100 74 q 58 478 58 258 q 79 790 58 697 q 187 924 100 882 q 482 967 274 967 q 778 924 690 967 q 886 790 865 882 q 907 478 907 697 q 888 210 907 303 q 819 72 869 118 l 972 -147 l 972 -160 l 642 -160 l 543 -8 m 482 221 q 553 233 535 221 q 576 292 571 246 q 581 478 581 339 q 576 663 581 617 q 553 722 571 710 q 482 735 535 735 q 411 722 429 735 q 389 664 393 710 q 385 478 385 618 q 389 292 385 338 q 411 233 393 246 q 482 221 429 221 z "},"R":{"ha":924,"x_min":71,"x_max":890,"o":"m 557 0 l 461 318 l 396 318 l 396 0 l 71 0 l 71 956 l 574 956 q 763 922 699 956 q 848 821 826 888 q 869 636 869 754 q 847 459 869 525 q 760 357 825 393 l 890 0 l 557 0 m 454 533 q 515 539 497 533 q 538 563 532 544 q 544 631 544 582 q 540 699 544 681 q 518 723 536 717 q 453 729 500 729 l 396 729 l 396 533 l 454 533 z "},"Ŕ":{"ha":924,"x_min":71,"x_max":890,"o":"m 557 0 l 461 318 l 396 318 l 396 0 l 71 0 l 71 956 l 574 956 q 763 922 699 956 q 848 821 826 888 q 869 636 869 754 q 847 459 869 525 q 760 357 825 393 l 890 0 l 557 0 m 454 533 q 515 539 497 533 q 538 563 532 544 q 544 631 544 582 q 540 699 544 681 q 518 723 536 717 q 453 729 500 729 l 396 729 l 396 533 l 454 533 m 347 1028 l 347 1035 l 467 1233 l 742 1233 l 742 1226 l 553 1028 l 347 1028 z "},"Ř":{"ha":924,"x_min":71,"x_max":890,"o":"m 557 0 l 461 318 l 396 318 l 396 0 l 71 0 l 71 956 l 574 956 q 763 922 699 956 q 848 821 826 888 q 869 636 869 754 q 847 459 869 525 q 760 357 825 393 l 890 0 l 557 0 m 454 533 q 515 539 497 533 q 538 563 532 544 q 544 631 544 582 q 540 699 544 681 q 518 723 536 717 q 453 729 500 729 l 396 729 l 396 533 l 454 533 m 331 1028 l 207 1222 l 207 1233 l 393 1233 l 465 1133 l 532 1233 l 718 1233 l 718 1222 l 593 1028 l 331 1028 z "},"Ŗ":{"ha":924,"x_min":71,"x_max":890,"o":"m 557 0 l 461 318 l 396 318 l 396 0 l 71 0 l 71 956 l 574 956 q 763 922 699 956 q 848 821 826 888 q 869 636 869 754 q 847 459 869 525 q 760 357 825 393 l 890 0 l 557 0 m 454 533 q 515 539 497 533 q 538 563 532 544 q 544 631 544 582 q 540 699 544 681 q 518 723 536 717 q 453 729 500 729 l 396 729 l 396 533 l 454 533 m 319 -301 q 383 -297 363 -301 q 410 -282 404 -292 q 417 -251 417 -272 l 417 -243 l 319 -243 l 319 -79 l 604 -79 l 604 -183 q 585 -319 604 -275 q 507 -383 567 -364 q 319 -401 447 -401 l 319 -301 z "},"Ȑ":{"ha":924,"x_min":71,"x_max":890,"o":"m 557 0 l 461 318 l 396 318 l 396 0 l 71 0 l 71 956 l 574 956 q 763 922 699 956 q 848 821 826 888 q 869 636 869 754 q 847 459 869 525 q 760 357 825 393 l 890 0 l 557 0 m 454 533 q 515 539 497 533 q 538 563 532 544 q 544 631 544 582 q 540 699 544 681 q 518 723 536 717 q 453 729 500 729 l 396 729 l 396 533 l 454 533 m 429 1050 l 261 1050 l 113 1208 l 113 1214 l 333 1214 l 429 1056 l 429 1050 m 692 1050 l 526 1050 l 376 1208 l 376 1214 l 599 1214 l 692 1056 l 692 1050 z "},"Ṛ":{"ha":924,"x_min":71,"x_max":890,"o":"m 557 0 l 461 318 l 396 318 l 396 0 l 71 0 l 71 956 l 574 956 q 763 922 699 956 q 848 821 826 888 q 869 636 869 754 q 847 459 869 525 q 760 357 825 393 l 890 0 l 557 0 m 454 533 q 515 539 497 533 q 538 563 532 544 q 544 631 544 582 q 540 699 544 681 q 518 723 536 717 q 453 729 500 729 l 396 729 l 396 533 l 454 533 m 310 -324 l 310 -86 l 614 -86 l 614 -324 l 310 -324 z "},"Ȓ":{"ha":924,"x_min":71,"x_max":890,"o":"m 557 0 l 461 318 l 396 318 l 396 0 l 71 0 l 71 956 l 574 956 q 763 922 699 956 q 848 821 826 888 q 869 636 869 754 q 847 459 869 525 q 760 357 825 393 l 890 0 l 557 0 m 454 533 q 515 539 497 533 q 538 563 532 544 q 544 631 544 582 q 540 699 544 681 q 518 723 536 717 q 453 729 500 729 l 396 729 l 396 533 l 454 533 m 238 1029 q 255 1143 238 1097 q 322 1215 272 1189 q 463 1240 371 1240 q 603 1215 554 1240 q 669 1143 651 1189 q 686 1029 686 1097 l 532 1029 q 528 1066 532 1053 q 510 1088 525 1079 q 463 1096 494 1096 q 414 1088 429 1096 q 395 1066 399 1079 q 392 1029 392 1053 l 238 1029 z "},"S":{"ha":846,"x_min":46,"x_max":800,"o":"m 444 -11 q 251 -4 356 -11 q 74 14 146 3 l 74 235 q 342 221 243 221 q 427 223 401 221 q 463 232 453 225 q 474 249 472 239 q 476 283 476 260 q 468 323 476 311 q 438 340 460 335 q 351 353 415 344 l 189 374 q 77 458 108 383 q 46 674 46 532 q 94 858 46 793 q 224 944 143 922 q 424 967 306 967 q 603 958 511 967 q 751 938 696 950 l 751 719 q 619 731 697 726 q 476 735 542 735 q 390 725 407 735 q 369 682 369 711 q 374 644 369 656 q 394 628 379 633 q 447 618 408 624 l 593 600 q 699 571 657 592 q 769 496 742 550 q 800 310 800 439 q 756 101 800 171 q 636 10 711 32 q 444 -11 561 -11 z "},"Ś":{"ha":846,"x_min":46,"x_max":800,"o":"m 444 -11 q 251 -4 356 -11 q 74 14 146 3 l 74 235 q 342 221 243 221 q 427 223 401 221 q 463 232 453 225 q 474 249 472 239 q 476 283 476 260 q 468 323 476 311 q 438 340 460 335 q 351 353 415 344 l 189 374 q 77 458 108 383 q 46 674 46 532 q 94 858 46 793 q 224 944 143 922 q 424 967 306 967 q 603 958 511 967 q 751 938 696 950 l 751 719 q 619 731 697 726 q 476 735 542 735 q 390 725 407 735 q 369 682 369 711 q 374 644 369 656 q 394 628 379 633 q 447 618 408 624 l 593 600 q 699 571 657 592 q 769 496 742 550 q 800 310 800 439 q 756 101 800 171 q 636 10 711 32 q 444 -11 561 -11 m 308 1028 l 308 1035 l 428 1233 l 703 1233 l 703 1226 l 514 1028 l 308 1028 z "},"Ꞌ":{"ha":347,"x_min":46,"x_max":301,"o":"m 46 363 l 46 956 l 301 956 l 301 725 l 243 363 l 46 363 z "},"Š":{"ha":846,"x_min":46,"x_max":800,"o":"m 444 -11 q 251 -4 356 -11 q 74 14 146 3 l 74 235 q 342 221 243 221 q 427 223 401 221 q 463 232 453 225 q 474 249 472 239 q 476 283 476 260 q 468 323 476 311 q 438 340 460 335 q 351 353 415 344 l 189 374 q 77 458 108 383 q 46 674 46 532 q 94 858 46 793 q 224 944 143 922 q 424 967 306 967 q 603 958 511 967 q 751 938 696 950 l 751 719 q 619 731 697 726 q 476 735 542 735 q 390 725 407 735 q 369 682 369 711 q 374 644 369 656 q 394 628 379 633 q 447 618 408 624 l 593 600 q 699 571 657 592 q 769 496 742 550 q 800 310 800 439 q 756 101 800 171 q 636 10 711 32 q 444 -11 561 -11 m 294 1042 l 171 1236 l 171 1247 l 357 1247 l 429 1147 l 496 1247 l 682 1247 l 682 1236 l 557 1042 l 294 1042 z "},"Ş":{"ha":846,"x_min":46,"x_max":800,"o":"m 800 310 q 765 119 800 188 q 669 24 731 51 q 518 -10 608 -4 l 475 -262 l 215 -262 l 215 -256 l 322 -8 q 74 14 176 -1 l 74 235 q 342 221 243 221 q 427 223 401 221 q 463 232 453 225 q 474 249 472 239 q 476 283 476 260 q 468 323 476 311 q 438 340 460 335 q 351 353 415 344 l 189 374 q 77 458 108 383 q 46 674 46 532 q 94 858 46 793 q 224 944 143 922 q 424 967 306 967 q 603 958 511 967 q 751 938 696 950 l 751 719 q 619 731 697 726 q 476 735 542 735 q 390 725 407 735 q 369 682 369 711 q 374 644 369 656 q 394 628 379 633 q 447 618 408 624 l 593 600 q 699 571 657 592 q 769 496 742 550 q 800 310 800 439 z "},"Ŝ":{"ha":846,"x_min":46,"x_max":800,"o":"m 444 -11 q 251 -4 356 -11 q 74 14 146 3 l 74 235 q 342 221 243 221 q 427 223 401 221 q 463 232 453 225 q 474 249 472 239 q 476 283 476 260 q 468 323 476 311 q 438 340 460 335 q 351 353 415 344 l 189 374 q 77 458 108 383 q 46 674 46 532 q 94 858 46 793 q 224 944 143 922 q 424 967 306 967 q 603 958 511 967 q 751 938 696 950 l 751 719 q 619 731 697 726 q 476 735 542 735 q 390 725 407 735 q 369 682 369 711 q 374 644 369 656 q 394 628 379 633 q 447 618 408 624 l 593 600 q 699 571 657 592 q 769 496 742 550 q 800 310 800 439 q 756 101 800 171 q 636 10 711 32 q 444 -11 561 -11 m 168 1028 l 168 1039 l 292 1233 l 554 1233 l 679 1039 l 679 1028 l 493 1028 l 422 1128 l 354 1028 l 168 1028 z "},"Ș":{"ha":846,"x_min":46,"x_max":800,"o":"m 444 -11 q 251 -4 356 -11 q 74 14 146 3 l 74 235 q 342 221 243 221 q 427 223 401 221 q 463 232 453 225 q 474 249 472 239 q 476 283 476 260 q 468 323 476 311 q 438 340 460 335 q 351 353 415 344 l 189 374 q 77 458 108 383 q 46 674 46 532 q 94 858 46 793 q 224 944 143 922 q 424 967 306 967 q 603 958 511 967 q 751 938 696 950 l 751 719 q 619 731 697 726 q 476 735 542 735 q 390 725 407 735 q 369 682 369 711 q 374 644 369 656 q 394 628 379 633 q 447 618 408 624 l 593 600 q 699 571 657 592 q 769 496 742 550 q 800 310 800 439 q 756 101 800 171 q 636 10 711 32 q 444 -11 561 -11 m 281 -301 q 344 -297 324 -301 q 372 -282 365 -292 q 378 -251 378 -272 l 378 -243 l 281 -243 l 281 -79 l 565 -79 l 565 -183 q 547 -319 565 -275 q 468 -383 528 -364 q 281 -401 408 -401 l 281 -301 z "},"Ṣ":{"ha":846,"x_min":46,"x_max":800,"o":"m 444 -11 q 251 -4 356 -11 q 74 14 146 3 l 74 235 q 342 221 243 221 q 427 223 401 221 q 463 232 453 225 q 474 249 472 239 q 476 283 476 260 q 468 323 476 311 q 438 340 460 335 q 351 353 415 344 l 189 374 q 77 458 108 383 q 46 674 46 532 q 94 858 46 793 q 224 944 143 922 q 424 967 306 967 q 603 958 511 967 q 751 938 696 950 l 751 719 q 619 731 697 726 q 476 735 542 735 q 390 725 407 735 q 369 682 369 711 q 374 644 369 656 q 394 628 379 633 q 447 618 408 624 l 593 600 q 699 571 657 592 q 769 496 742 550 q 800 310 800 439 q 756 101 800 171 q 636 10 711 32 q 444 -11 561 -11 m 271 -324 l 271 -86 l 575 -86 l 575 -324 l 271 -324 z "},"ẞ":{"ha":1097,"x_min":71,"x_max":1046,"o":"m 817 521 q 991 447 936 506 q 1046 256 1046 389 q 1015 108 1046 165 q 901 20 983 51 q 671 -11 819 -11 q 570 -2 626 -11 q 472 21 514 7 l 472 238 q 611 221 556 221 q 685 224 664 221 q 713 242 706 228 q 721 290 721 256 q 713 344 721 328 q 685 365 706 361 q 619 369 665 369 l 499 369 l 499 567 l 649 731 q 547 735 600 735 q 439 717 468 735 q 403 647 410 699 q 396 450 396 596 l 396 0 l 71 0 l 71 450 q 99 776 71 672 q 215 923 126 879 q 494 967 303 967 q 733 953 614 967 q 999 918 853 940 l 999 721 l 817 521 z "},"Ə":{"ha":965,"x_min":58,"x_max":893,"o":"m 435 967 q 736 923 640 967 q 863 781 832 879 q 893 478 893 682 q 872 166 893 258 q 764 31 851 74 q 468 -11 676 -11 q 183 31 267 -11 q 78 166 99 74 q 58 478 58 258 l 58 596 l 565 596 q 544 688 561 660 q 488 726 528 717 q 358 735 447 735 q 171 724 257 735 l 171 944 q 293 960 218 954 q 435 967 368 967 m 468 221 q 540 228 519 221 q 569 266 561 236 q 581 369 578 296 l 371 369 q 380 266 372 296 q 405 228 388 236 q 468 221 422 221 z "},"T":{"ha":829,"x_min":18,"x_max":811,"o":"m 251 0 l 251 711 l 18 711 l 18 956 l 811 956 l 811 711 l 576 711 l 576 0 l 251 0 z "},"Ŧ":{"ha":829,"x_min":18,"x_max":811,"o":"m 811 711 l 576 711 l 576 539 l 782 539 l 782 349 l 576 349 l 576 0 l 251 0 l 251 349 l 46 349 l 46 539 l 251 539 l 251 711 l 18 711 l 18 956 l 811 956 l 811 711 z "},"Ť":{"ha":829,"x_min":18,"x_max":811,"o":"m 251 0 l 251 711 l 18 711 l 18 956 l 811 956 l 811 711 l 576 711 l 576 0 l 251 0 m 283 1028 l 160 1222 l 160 1233 l 346 1233 l 418 1133 l 485 1233 l 671 1233 l 671 1222 l 546 1028 l 283 1028 z "},"Ţ":{"ha":829,"x_min":18,"x_max":811,"o":"m 18 956 l 811 956 l 811 711 l 576 711 l 576 0 l 511 0 l 467 -262 l 207 -262 l 207 -256 l 318 0 l 251 0 l 251 711 l 18 711 l 18 956 z "},"Ț":{"ha":829,"x_min":18,"x_max":811,"o":"m 251 0 l 251 711 l 18 711 l 18 956 l 811 956 l 811 711 l 576 711 l 576 0 l 251 0 m 272 -301 q 336 -297 315 -301 q 363 -282 357 -292 q 369 -251 369 -272 l 369 -243 l 272 -243 l 272 -79 l 557 -79 l 557 -183 q 538 -319 557 -275 q 460 -383 519 -364 q 272 -401 400 -401 l 272 -301 z "},"Ṭ":{"ha":829,"x_min":18,"x_max":811,"o":"m 251 0 l 251 711 l 18 711 l 18 956 l 811 956 l 811 711 l 576 711 l 576 0 l 251 0 m 263 -324 l 263 -86 l 567 -86 l 567 -324 l 263 -324 z "},"U":{"ha":938,"x_min":71,"x_max":867,"o":"m 867 956 l 867 439 q 847 155 867 240 q 745 29 828 69 q 468 -11 663 -11 q 192 29 274 -11 q 90 155 110 69 q 71 439 71 240 l 71 956 l 396 956 l 396 386 q 399 272 396 300 q 416 234 403 243 q 468 225 429 225 q 521 234 507 225 q 538 272 535 243 q 542 386 542 301 l 542 956 l 867 956 z "},"Ú":{"ha":938,"x_min":71,"x_max":867,"o":"m 867 956 l 867 439 q 847 155 867 240 q 745 29 828 69 q 468 -11 663 -11 q 192 29 274 -11 q 90 155 110 69 q 71 439 71 240 l 71 956 l 396 956 l 396 386 q 399 272 396 300 q 416 234 403 243 q 468 225 429 225 q 521 234 507 225 q 538 272 535 243 q 542 386 542 301 l 542 956 l 867 956 m 356 1042 l 356 1049 l 475 1247 l 750 1247 l 750 1240 l 561 1042 l 356 1042 z "},"Ŭ":{"ha":938,"x_min":71,"x_max":867,"o":"m 867 956 l 867 439 q 847 155 867 240 q 745 29 828 69 q 468 -11 663 -11 q 192 29 274 -11 q 90 155 110 69 q 71 439 71 240 l 71 956 l 396 956 l 396 386 q 399 272 396 300 q 416 234 403 243 q 468 225 429 225 q 521 234 507 225 q 538 272 535 243 q 542 386 542 301 l 542 956 l 867 956 m 693 1233 q 676 1119 693 1165 q 609 1048 658 1074 q 468 1022 560 1022 q 328 1048 376 1022 q 262 1119 279 1074 q 244 1233 244 1165 l 399 1233 q 402 1197 399 1210 q 421 1175 406 1183 q 468 1167 436 1167 q 517 1175 501 1167 q 535 1197 532 1183 q 539 1233 539 1210 l 693 1233 z "},"Ǔ":{"ha":938,"x_min":71,"x_max":867,"o":"m 867 956 l 867 439 q 847 155 867 240 q 745 29 828 69 q 468 -11 663 -11 q 192 29 274 -11 q 90 155 110 69 q 71 439 71 240 l 71 956 l 396 956 l 396 386 q 399 272 396 300 q 416 234 403 243 q 468 225 429 225 q 521 234 507 225 q 538 272 535 243 q 542 386 542 301 l 542 956 l 867 956 m 338 1028 l 214 1222 l 214 1233 l 400 1233 l 472 1133 l 539 1233 l 725 1233 l 725 1222 l 600 1028 l 338 1028 z "},"Û":{"ha":938,"x_min":71,"x_max":867,"o":"m 867 956 l 867 439 q 847 155 867 240 q 745 29 828 69 q 468 -11 663 -11 q 192 29 274 -11 q 90 155 110 69 q 71 439 71 240 l 71 956 l 396 956 l 396 386 q 399 272 396 300 q 416 234 403 243 q 468 225 429 225 q 521 234 507 225 q 538 272 535 243 q 542 386 542 301 l 542 956 l 867 956 m 213 1042 l 213 1053 l 336 1247 l 599 1247 l 724 1053 l 724 1042 l 538 1042 l 467 1142 l 399 1042 l 213 1042 z "},"Ȕ":{"ha":938,"x_min":71,"x_max":867,"o":"m 867 956 l 867 439 q 847 155 867 240 q 745 29 828 69 q 468 -11 663 -11 q 192 29 274 -11 q 90 155 110 69 q 71 439 71 240 l 71 956 l 396 956 l 396 386 q 399 272 396 300 q 416 234 403 243 q 468 225 429 225 q 521 234 507 225 q 538 272 535 243 q 542 386 542 301 l 542 956 l 867 956 m 436 1050 l 268 1050 l 119 1208 l 119 1214 l 340 1214 l 436 1056 l 436 1050 m 699 1050 l 533 1050 l 383 1208 l 383 1214 l 606 1214 l 699 1056 l 699 1050 z "},"Ü":{"ha":938,"x_min":71,"x_max":867,"o":"m 867 956 l 867 439 q 847 155 867 240 q 745 29 828 69 q 468 -11 663 -11 q 192 29 274 -11 q 90 155 110 69 q 71 439 71 240 l 71 956 l 396 956 l 396 386 q 399 272 396 300 q 416 234 403 243 q 468 225 429 225 q 521 234 507 225 q 538 272 535 243 q 542 386 542 301 l 542 956 l 867 956 m 201 1079 l 201 1251 l 431 1251 l 431 1079 l 201 1079 m 506 1079 l 506 1251 l 735 1251 l 735 1079 l 506 1079 z "},"Ǘ":{"ha":938,"x_min":71,"x_max":867,"o":"m 432 1204 l 432 1043 l 203 1043 l 203 1215 l 360 1215 l 476 1410 l 751 1410 l 751 1403 l 574 1215 l 736 1215 l 736 1043 l 507 1043 l 507 1204 l 432 1204 m 867 956 l 867 439 q 847 155 867 240 q 745 29 828 69 q 468 -11 663 -11 q 192 29 274 -11 q 90 155 110 69 q 71 439 71 240 l 71 956 l 396 956 l 396 386 q 399 272 396 300 q 416 234 403 243 q 468 225 429 225 q 521 234 507 225 q 538 272 535 243 q 542 386 542 301 l 542 956 l 867 956 z "},"Ǚ":{"ha":938,"x_min":71,"x_max":867,"o":"m 432 1204 l 432 1043 l 203 1043 l 203 1215 l 333 1215 l 217 1399 l 217 1410 l 403 1410 l 475 1310 l 542 1410 l 728 1410 l 728 1399 l 610 1215 l 736 1215 l 736 1043 l 507 1043 l 507 1204 l 432 1204 m 867 956 l 867 439 q 847 155 867 240 q 745 29 828 69 q 468 -11 663 -11 q 192 29 274 -11 q 90 155 110 69 q 71 439 71 240 l 71 956 l 396 956 l 396 386 q 399 272 396 300 q 416 234 403 243 q 468 225 429 225 q 521 234 507 225 q 538 272 535 243 q 542 386 542 301 l 542 956 l 867 956 z "},"Ǜ":{"ha":938,"x_min":71,"x_max":867,"o":"m 203 1215 l 375 1215 l 197 1403 l 197 1410 l 472 1410 l 589 1215 l 736 1215 l 736 1043 l 507 1043 l 507 1204 l 432 1204 l 432 1043 l 203 1043 l 203 1215 m 867 956 l 867 439 q 847 155 867 240 q 745 29 828 69 q 468 -11 663 -11 q 192 29 274 -11 q 90 155 110 69 q 71 439 71 240 l 71 956 l 396 956 l 396 386 q 399 272 396 300 q 416 234 403 243 q 468 225 429 225 q 521 234 507 225 q 538 272 535 243 q 542 386 542 301 l 542 956 l 867 956 z "},"Ǖ":{"ha":938,"x_min":71,"x_max":867,"o":"m 265 1258 l 265 1414 l 679 1414 l 679 1258 l 265 1258 m 203 1043 l 203 1215 l 432 1215 l 432 1043 l 203 1043 m 507 1043 l 507 1215 l 736 1215 l 736 1043 l 507 1043 m 867 956 l 867 439 q 847 155 867 240 q 745 29 828 69 q 468 -11 663 -11 q 192 29 274 -11 q 90 155 110 69 q 71 439 71 240 l 71 956 l 396 956 l 396 386 q 399 272 396 300 q 416 234 403 243 q 468 225 429 225 q 521 234 507 225 q 538 272 535 243 q 542 386 542 301 l 542 956 l 867 956 z "},"Ụ":{"ha":938,"x_min":71,"x_max":867,"o":"m 867 956 l 867 439 q 847 155 867 240 q 745 29 828 69 q 468 -11 663 -11 q 192 29 274 -11 q 90 155 110 69 q 71 439 71 240 l 71 956 l 396 956 l 396 386 q 399 272 396 300 q 416 234 403 243 q 468 225 429 225 q 521 234 507 225 q 538 272 535 243 q 542 386 542 301 l 542 956 l 867 956 m 317 -324 l 317 -86 l 621 -86 l 621 -324 l 317 -324 z "},"Ù":{"ha":938,"x_min":71,"x_max":867,"o":"m 867 956 l 867 439 q 847 155 867 240 q 745 29 828 69 q 468 -11 663 -11 q 192 29 274 -11 q 90 155 110 69 q 71 439 71 240 l 71 956 l 396 956 l 396 386 q 399 272 396 300 q 416 234 403 243 q 468 225 429 225 q 521 234 507 225 q 538 272 535 243 q 542 386 542 301 l 542 956 l 867 956 m 376 1042 l 188 1240 l 188 1247 l 463 1247 l 582 1049 l 582 1042 l 376 1042 z "},"Ủ":{"ha":938,"x_min":71,"x_max":867,"o":"m 867 956 l 867 439 q 847 155 867 240 q 745 29 828 69 q 468 -11 663 -11 q 192 29 274 -11 q 90 155 110 69 q 71 439 71 240 l 71 956 l 396 956 l 396 386 q 399 272 396 300 q 416 234 403 243 q 468 225 429 225 q 521 234 507 225 q 538 272 535 243 q 542 386 542 301 l 542 956 l 867 956 m 358 1008 q 372 1081 358 1061 q 429 1111 385 1100 l 450 1117 q 481 1129 474 1124 q 488 1150 488 1135 q 474 1179 488 1174 q 414 1185 460 1185 q 340 1183 381 1185 q 268 1176 300 1181 l 268 1303 q 360 1315 306 1310 q 460 1319 414 1319 q 573 1311 531 1319 q 642 1270 615 1303 q 669 1168 669 1238 q 656 1100 669 1124 q 622 1066 643 1076 q 561 1044 601 1056 l 547 1040 q 516 1026 524 1033 q 508 1006 508 1018 l 358 1006 l 358 1008 z "},"Ư":{"ha":938,"x_min":71,"x_max":979,"o":"m 979 1078 l 979 1060 q 971 963 979 999 q 938 903 963 926 q 867 869 914 881 l 867 439 q 847 155 867 240 q 745 29 828 69 q 468 -11 663 -11 q 192 29 274 -11 q 90 155 110 69 q 71 439 71 240 l 71 956 l 396 956 l 396 386 q 399 272 396 300 q 416 234 403 243 q 468 225 429 225 q 521 234 507 225 q 538 272 535 243 q 542 386 542 301 l 542 956 l 694 956 q 758 964 738 956 q 785 991 779 972 q 792 1047 792 1010 l 792 1078 l 979 1078 z "},"Ứ":{"ha":938,"x_min":71,"x_max":979,"o":"m 979 1078 l 979 1060 q 971 963 979 999 q 938 903 963 926 q 867 869 914 881 l 867 439 q 847 155 867 240 q 745 29 828 69 q 468 -11 663 -11 q 192 29 274 -11 q 90 155 110 69 q 71 439 71 240 l 71 956 l 396 956 l 396 386 q 399 272 396 300 q 416 234 403 243 q 468 225 429 225 q 521 234 507 225 q 538 272 535 243 q 542 386 542 301 l 542 956 l 694 956 q 758 964 738 956 q 785 991 779 972 q 792 1047 792 1010 l 792 1078 l 979 1078 m 354 1028 l 354 1035 l 474 1233 l 749 1233 l 749 1226 l 560 1028 l 354 1028 z "},"Ự":{"ha":938,"x_min":71,"x_max":979,"o":"m 979 1078 l 979 1060 q 971 963 979 999 q 938 903 963 926 q 867 869 914 881 l 867 439 q 847 155 867 240 q 745 29 828 69 q 468 -11 663 -11 q 192 29 274 -11 q 90 155 110 69 q 71 439 71 240 l 71 956 l 396 956 l 396 386 q 399 272 396 300 q 416 234 403 243 q 468 225 429 225 q 521 234 507 225 q 538 272 535 243 q 542 386 542 301 l 542 956 l 694 956 q 758 964 738 956 q 785 991 779 972 q 792 1047 792 1010 l 792 1078 l 979 1078 m 317 -324 l 317 -86 l 621 -86 l 621 -324 l 317 -324 z "},"Ừ":{"ha":938,"x_min":71,"x_max":979,"o":"m 979 1078 l 979 1060 q 971 963 979 999 q 938 903 963 926 q 867 869 914 881 l 867 439 q 847 155 867 240 q 745 29 828 69 q 468 -11 663 -11 q 192 29 274 -11 q 90 155 110 69 q 71 439 71 240 l 71 956 l 396 956 l 396 386 q 399 272 396 300 q 416 234 403 243 q 468 225 429 225 q 521 234 507 225 q 538 272 535 243 q 542 386 542 301 l 542 956 l 694 956 q 758 964 738 956 q 785 991 779 972 q 792 1047 792 1010 l 792 1078 l 979 1078 m 383 1028 l 194 1226 l 194 1233 l 469 1233 l 589 1035 l 589 1028 l 383 1028 z "},"Ử":{"ha":938,"x_min":71,"x_max":979,"o":"m 979 1078 l 979 1060 q 971 963 979 999 q 938 903 963 926 q 867 869 914 881 l 867 439 q 847 155 867 240 q 745 29 828 69 q 468 -11 663 -11 q 192 29 274 -11 q 90 155 110 69 q 71 439 71 240 l 71 956 l 396 956 l 396 386 q 399 272 396 300 q 416 234 403 243 q 468 225 429 225 q 521 234 507 225 q 538 272 535 243 q 542 386 542 301 l 542 956 l 694 956 q 758 964 738 956 q 785 991 779 972 q 792 1047 792 1010 l 792 1078 l 979 1078 m 358 1008 q 372 1081 358 1061 q 429 1111 385 1100 l 450 1117 q 481 1129 474 1124 q 488 1150 488 1135 q 474 1179 488 1174 q 414 1185 460 1185 q 340 1183 381 1185 q 268 1176 300 1181 l 268 1303 q 360 1315 306 1310 q 460 1319 414 1319 q 573 1311 531 1319 q 642 1270 615 1303 q 669 1168 669 1238 q 656 1100 669 1124 q 622 1066 643 1076 q 561 1044 601 1056 l 547 1040 q 516 1026 524 1033 q 508 1006 508 1018 l 358 1006 l 358 1008 z "},"Ữ":{"ha":938,"x_min":71,"x_max":979,"o":"m 979 1078 l 979 1060 q 971 963 979 999 q 938 903 963 926 q 867 869 914 881 l 867 439 q 847 155 867 240 q 745 29 828 69 q 468 -11 663 -11 q 192 29 274 -11 q 90 155 110 69 q 71 439 71 240 l 71 956 l 396 956 l 396 386 q 399 272 396 300 q 416 234 403 243 q 468 225 429 225 q 521 234 507 225 q 538 272 535 243 q 542 386 542 301 l 542 956 l 694 956 q 758 964 738 956 q 785 991 779 972 q 792 1047 792 1010 l 792 1078 l 979 1078 m 753 1233 q 746 1107 753 1149 q 708 1040 739 1065 q 608 1015 678 1015 q 446 1038 554 1015 q 402 1046 433 1040 q 354 1051 371 1051 q 328 1041 333 1051 q 324 999 324 1031 l 185 999 q 192 1125 185 1083 q 229 1192 199 1167 q 329 1217 260 1217 q 492 1194 383 1217 q 535 1186 504 1192 q 583 1181 567 1181 q 609 1191 604 1181 q 614 1233 614 1201 l 753 1233 z "},"Ű":{"ha":938,"x_min":71,"x_max":867,"o":"m 867 956 l 867 439 q 847 155 867 240 q 745 29 828 69 q 468 -11 663 -11 q 192 29 274 -11 q 90 155 110 69 q 71 439 71 240 l 71 956 l 396 956 l 396 386 q 399 272 396 300 q 416 234 403 243 q 468 225 429 225 q 521 234 507 225 q 538 272 535 243 q 542 386 542 301 l 542 956 l 867 956 m 258 1050 l 258 1056 l 351 1214 l 574 1214 l 574 1208 l 424 1050 l 258 1050 m 521 1050 l 521 1056 l 617 1214 l 838 1214 l 838 1208 l 689 1050 l 521 1050 z "},"Ȗ":{"ha":938,"x_min":71,"x_max":867,"o":"m 867 956 l 867 439 q 847 155 867 240 q 745 29 828 69 q 468 -11 663 -11 q 192 29 274 -11 q 90 155 110 69 q 71 439 71 240 l 71 956 l 396 956 l 396 386 q 399 272 396 300 q 416 234 403 243 q 468 225 429 225 q 521 234 507 225 q 538 272 535 243 q 542 386 542 301 l 542 956 l 867 956 m 244 1029 q 262 1143 244 1097 q 328 1215 279 1189 q 469 1240 378 1240 q 610 1215 561 1240 q 676 1143 658 1189 q 693 1029 693 1097 l 539 1029 q 535 1066 539 1053 q 517 1088 532 1079 q 469 1096 501 1096 q 421 1088 436 1096 q 402 1066 406 1079 q 399 1029 399 1053 l 244 1029 z "},"Ū":{"ha":938,"x_min":71,"x_max":867,"o":"m 867 956 l 867 439 q 847 155 867 240 q 745 29 828 69 q 468 -11 663 -11 q 192 29 274 -11 q 90 155 110 69 q 71 439 71 240 l 71 956 l 396 956 l 396 386 q 399 272 396 300 q 416 234 403 243 q 468 225 429 225 q 521 234 507 225 q 538 272 535 243 q 542 386 542 301 l 542 956 l 867 956 m 263 1013 l 263 1233 l 676 1233 l 676 1013 l 263 1013 z "},"Ų":{"ha":938,"x_min":71,"x_max":867,"o":"m 867 956 l 867 439 q 860 226 867 299 q 825 103 853 154 q 736 25 797 51 q 656 -24 685 3 q 628 -92 628 -51 q 642 -126 628 -114 q 693 -137 656 -137 l 717 -136 l 717 -267 q 596 -272 653 -272 q 440 -238 486 -272 q 394 -149 394 -204 q 465 -11 394 -82 q 191 29 272 -11 q 90 155 110 69 q 71 439 71 240 l 71 956 l 396 956 l 396 386 q 399 272 396 300 q 416 234 403 243 q 468 225 429 225 q 521 234 507 225 q 538 272 535 243 q 542 386 542 301 l 542 956 l 867 956 z "},"Ů":{"ha":938,"x_min":71,"x_max":867,"o":"m 867 956 l 867 439 q 847 155 867 240 q 745 29 828 69 q 468 -11 663 -11 q 192 29 274 -11 q 90 155 110 69 q 71 439 71 240 l 71 956 l 396 956 l 396 386 q 399 272 396 300 q 416 234 403 243 q 468 225 429 225 q 521 234 507 225 q 538 272 535 243 q 542 386 542 301 l 542 956 l 867 956 m 468 981 q 327 996 372 981 q 267 1046 282 1011 q 253 1150 253 1081 q 267 1256 253 1221 q 327 1306 282 1290 q 468 1322 372 1322 q 610 1306 564 1322 q 670 1255 656 1290 q 685 1150 685 1219 q 670 1046 685 1081 q 610 996 656 1011 q 468 981 564 981 m 468 1088 q 518 1092 504 1088 q 535 1109 532 1097 q 539 1150 539 1121 q 535 1192 539 1181 q 517 1210 532 1204 q 468 1215 503 1215 q 419 1210 433 1215 q 402 1192 406 1204 q 399 1150 399 1181 q 402 1109 399 1121 q 419 1092 406 1097 q 468 1088 433 1088 z "},"Ũ":{"ha":938,"x_min":71,"x_max":867,"o":"m 867 956 l 867 439 q 847 155 867 240 q 745 29 828 69 q 468 -11 663 -11 q 192 29 274 -11 q 90 155 110 69 q 71 439 71 240 l 71 956 l 396 956 l 396 386 q 399 272 396 300 q 416 234 403 243 q 468 225 429 225 q 521 234 507 225 q 538 272 535 243 q 542 386 542 301 l 542 956 l 867 956 m 753 1233 q 746 1107 753 1149 q 708 1040 739 1065 q 608 1015 678 1015 q 446 1038 554 1015 q 402 1046 433 1040 q 354 1051 371 1051 q 328 1041 333 1051 q 324 999 324 1031 l 185 999 q 192 1125 185 1083 q 229 1192 199 1167 q 329 1217 260 1217 q 492 1194 383 1217 q 535 1186 504 1192 q 583 1181 567 1181 q 609 1191 604 1181 q 614 1233 614 1201 l 753 1233 z "},"V":{"ha":921,"x_min":-4,"x_max":925,"o":"m 246 0 l -4 956 l 326 956 l 456 342 l 471 342 l 600 956 l 925 956 l 675 0 l 246 0 z "},"W":{"ha":1368,"x_min":0,"x_max":1368,"o":"m 782 0 l 692 482 l 676 482 l 586 0 l 176 0 l 0 956 l 322 956 l 403 356 l 418 356 l 521 956 l 854 956 l 960 356 l 975 356 l 1044 956 l 1368 956 l 1192 0 l 782 0 z "},"Ẃ":{"ha":1368,"x_min":0,"x_max":1368,"o":"m 782 0 l 692 482 l 676 482 l 586 0 l 176 0 l 0 956 l 322 956 l 403 356 l 418 356 l 521 956 l 854 956 l 960 356 l 975 356 l 1044 956 l 1368 956 l 1192 0 l 782 0 m 569 1028 l 569 1035 l 689 1233 l 964 1233 l 964 1226 l 775 1028 l 569 1028 z "},"Ŵ":{"ha":1368,"x_min":0,"x_max":1368,"o":"m 782 0 l 692 482 l 676 482 l 586 0 l 176 0 l 0 956 l 322 956 l 403 356 l 418 356 l 521 956 l 854 956 l 960 356 l 975 356 l 1044 956 l 1368 956 l 1192 0 l 782 0 m 429 1028 l 429 1039 l 553 1233 l 815 1233 l 940 1039 l 940 1028 l 754 1028 l 683 1128 l 615 1028 l 429 1028 z "},"Ẅ":{"ha":1368,"x_min":0,"x_max":1368,"o":"m 782 0 l 692 482 l 676 482 l 586 0 l 176 0 l 0 956 l 322 956 l 403 356 l 418 356 l 521 956 l 854 956 l 960 356 l 975 356 l 1044 956 l 1368 956 l 1192 0 l 782 0 m 418 1043 l 418 1215 l 647 1215 l 647 1043 l 418 1043 m 722 1043 l 722 1215 l 951 1215 l 951 1043 l 722 1043 z "},"Ẁ":{"ha":1368,"x_min":0,"x_max":1368,"o":"m 782 0 l 692 482 l 676 482 l 586 0 l 176 0 l 0 956 l 322 956 l 403 356 l 418 356 l 521 956 l 854 956 l 960 356 l 975 356 l 1044 956 l 1368 956 l 1192 0 l 782 0 m 599 1028 l 410 1226 l 410 1233 l 685 1233 l 804 1035 l 804 1028 l 599 1028 z "},"X":{"ha":975,"x_min":7,"x_max":968,"o":"m 607 0 l 489 243 l 474 243 l 354 0 l 7 0 l 282 481 l 13 956 l 374 956 l 486 717 l 499 717 l 617 956 l 964 956 l 694 486 l 968 0 l 607 0 z "},"Y":{"ha":919,"x_min":-4,"x_max":924,"o":"m 297 0 l 297 308 l -4 956 l 326 956 l 458 600 l 468 600 l 600 956 l 924 956 l 622 308 l 622 0 l 297 0 z "},"Ý":{"ha":919,"x_min":-4,"x_max":924,"o":"m 297 0 l 297 308 l -4 956 l 326 956 l 458 600 l 468 600 l 600 956 l 924 956 l 622 308 l 622 0 l 297 0 m 358 1042 l 358 1049 l 478 1247 l 753 1247 l 753 1240 l 564 1042 l 358 1042 z "},"Ŷ":{"ha":919,"x_min":-4,"x_max":924,"o":"m 297 0 l 297 308 l -4 956 l 326 956 l 458 600 l 468 600 l 600 956 l 924 956 l 622 308 l 622 0 l 297 0 m 204 1028 l 204 1039 l 328 1233 l 590 1233 l 715 1039 l 715 1028 l 529 1028 l 458 1128 l 390 1028 l 204 1028 z "},"Ÿ":{"ha":919,"x_min":-4,"x_max":924,"o":"m 297 0 l 297 308 l -4 956 l 326 956 l 458 600 l 468 600 l 600 956 l 924 956 l 622 308 l 622 0 l 297 0 m 197 1079 l 197 1251 l 426 1251 l 426 1079 l 197 1079 m 501 1079 l 501 1251 l 731 1251 l 731 1079 l 501 1079 z "},"Ỵ":{"ha":919,"x_min":-4,"x_max":924,"o":"m 297 0 l 297 308 l -4 956 l 326 956 l 458 600 l 468 600 l 600 956 l 924 956 l 622 308 l 622 0 l 297 0 m 307 -324 l 307 -86 l 611 -86 l 611 -324 l 307 -324 z "},"Ỳ":{"ha":919,"x_min":-4,"x_max":924,"o":"m 297 0 l 297 308 l -4 956 l 326 956 l 458 600 l 468 600 l 600 956 l 924 956 l 622 308 l 622 0 l 297 0 m 374 1028 l 185 1226 l 185 1233 l 460 1233 l 579 1035 l 579 1028 l 374 1028 z "},"Ỷ":{"ha":919,"x_min":-4,"x_max":924,"o":"m 297 0 l 297 308 l -4 956 l 326 956 l 458 600 l 468 600 l 600 956 l 924 956 l 622 308 l 622 0 l 297 0 m 349 1008 q 362 1081 349 1061 q 419 1111 375 1100 l 440 1117 q 471 1129 464 1124 q 478 1150 478 1135 q 464 1179 478 1174 q 404 1185 450 1185 q 331 1183 371 1185 q 258 1176 290 1181 l 258 1303 q 350 1315 296 1310 q 450 1319 404 1319 q 563 1311 521 1319 q 633 1270 606 1303 q 660 1168 660 1238 q 647 1100 660 1124 q 613 1066 633 1076 q 551 1044 592 1056 l 538 1040 q 506 1026 514 1033 q 499 1006 499 1018 l 349 1006 l 349 1008 z "},"Ȳ":{"ha":919,"x_min":-4,"x_max":924,"o":"m 297 0 l 297 308 l -4 956 l 326 956 l 458 600 l 468 600 l 600 956 l 924 956 l 622 308 l 622 0 l 297 0 m 253 1013 l 253 1233 l 667 1233 l 667 1013 l 253 1013 z "},"Ỹ":{"ha":919,"x_min":-4,"x_max":924,"o":"m 297 0 l 297 308 l -4 956 l 326 956 l 458 600 l 468 600 l 600 956 l 924 956 l 622 308 l 622 0 l 297 0 m 743 1233 q 736 1107 743 1149 q 699 1040 729 1065 q 599 1015 668 1015 q 436 1038 544 1015 q 392 1046 424 1040 q 344 1051 361 1051 q 319 1041 324 1051 q 314 999 314 1031 l 175 999 q 182 1125 175 1083 q 219 1192 189 1167 q 319 1217 250 1217 q 482 1194 374 1217 q 526 1186 494 1192 q 574 1181 557 1181 q 599 1191 594 1181 q 604 1233 604 1201 l 743 1233 z "},"Z":{"ha":861,"x_min":53,"x_max":808,"o":"m 53 0 l 53 224 l 414 724 l 68 724 l 68 956 l 808 956 l 808 739 l 442 232 l 807 232 l 807 0 l 53 0 z "},"Ź":{"ha":861,"x_min":53,"x_max":808,"o":"m 53 0 l 53 224 l 414 724 l 68 724 l 68 956 l 808 956 l 808 739 l 442 232 l 807 232 l 807 0 l 53 0 m 315 1028 l 315 1035 l 435 1233 l 710 1233 l 710 1226 l 521 1028 l 315 1028 z "},"Ž":{"ha":861,"x_min":53,"x_max":808,"o":"m 53 0 l 53 224 l 414 724 l 68 724 l 68 956 l 808 956 l 808 739 l 442 232 l 807 232 l 807 0 l 53 0 m 310 1043 l 186 1238 l 186 1249 l 372 1249 l 444 1149 l 511 1249 l 697 1249 l 697 1238 l 572 1043 l 310 1043 z "},"Ż":{"ha":861,"x_min":53,"x_max":808,"o":"m 53 0 l 53 224 l 414 724 l 68 724 l 68 956 l 808 956 l 808 739 l 442 232 l 807 232 l 807 0 l 53 0 m 315 1043 l 315 1215 l 544 1215 l 544 1043 l 315 1043 z "},"Ẓ":{"ha":861,"x_min":53,"x_max":808,"o":"m 53 0 l 53 224 l 414 724 l 68 724 l 68 956 l 808 956 l 808 739 l 442 232 l 807 232 l 807 0 l 53 0 m 278 -324 l 278 -86 l 582 -86 l 582 -324 l 278 -324 z "},"a":{"ha":788,"x_min":39,"x_max":726,"o":"m 231 -11 q 86 41 133 -11 q 39 207 39 93 q 58 335 39 290 q 125 399 76 379 q 268 419 174 419 q 429 414 326 419 l 429 438 q 420 490 429 476 q 384 508 411 504 q 282 511 357 511 q 76 503 201 511 l 76 694 q 374 719 215 719 q 610 687 535 719 q 706 594 686 654 q 726 419 726 535 l 726 0 l 436 0 l 431 78 l 417 78 q 335 6 376 22 q 231 -11 293 -11 m 371 179 q 406 185 394 179 q 424 206 418 192 q 429 261 429 218 l 429 299 l 374 299 q 333 294 344 299 q 317 277 321 290 q 313 233 313 264 q 315 199 313 210 q 331 184 318 189 q 371 179 343 179 z "},"á":{"ha":788,"x_min":39,"x_max":726,"o":"m 231 -11 q 86 41 133 -11 q 39 207 39 93 q 58 335 39 290 q 125 399 76 379 q 268 419 174 419 q 429 414 326 419 l 429 438 q 420 490 429 476 q 384 508 411 504 q 282 511 357 511 q 76 503 201 511 l 76 694 q 374 719 215 719 q 610 687 535 719 q 706 594 686 654 q 726 419 726 535 l 726 0 l 436 0 l 431 78 l 417 78 q 335 6 376 22 q 231 -11 293 -11 m 371 179 q 406 185 394 179 q 424 206 418 192 q 429 261 429 218 l 429 299 l 374 299 q 333 294 344 299 q 317 277 321 290 q 313 233 313 264 q 315 199 313 210 q 331 184 318 189 q 371 179 343 179 m 285 826 l 285 833 l 404 1032 l 679 1032 l 679 1025 l 490 826 l 285 826 z "},"ă":{"ha":788,"x_min":39,"x_max":726,"o":"m 231 -11 q 86 41 133 -11 q 39 207 39 93 q 58 335 39 290 q 125 399 76 379 q 268 419 174 419 q 429 414 326 419 l 429 438 q 420 490 429 476 q 384 508 411 504 q 282 511 357 511 q 76 503 201 511 l 76 694 q 374 719 215 719 q 610 687 535 719 q 706 594 686 654 q 726 419 726 535 l 726 0 l 436 0 l 431 78 l 417 78 q 335 6 376 22 q 231 -11 293 -11 m 371 179 q 406 185 394 179 q 424 206 418 192 q 429 261 429 218 l 429 299 l 374 299 q 333 294 344 299 q 317 277 321 290 q 313 233 313 264 q 315 199 313 210 q 331 184 318 189 q 371 179 343 179 m 618 1032 q 601 918 618 964 q 534 847 583 872 q 393 821 485 821 q 253 847 301 821 q 187 918 204 872 q 169 1032 169 964 l 324 1032 q 327 995 324 1008 q 346 974 331 982 q 393 965 361 965 q 442 974 426 965 q 460 995 457 982 q 464 1032 464 1008 l 618 1032 z "},"ắ":{"ha":788,"x_min":39,"x_max":726,"o":"m 231 -11 q 86 41 133 -11 q 39 207 39 93 q 58 335 39 290 q 125 399 76 379 q 268 419 174 419 q 429 414 326 419 l 429 438 q 420 490 429 476 q 384 508 411 504 q 282 511 357 511 q 76 503 201 511 l 76 694 q 374 719 215 719 q 610 687 535 719 q 706 594 686 654 q 726 419 726 535 l 726 0 l 436 0 l 431 78 l 417 78 q 335 6 376 22 q 231 -11 293 -11 m 371 179 q 406 185 394 179 q 424 206 418 192 q 429 261 429 218 l 429 299 l 374 299 q 333 294 344 299 q 317 277 321 290 q 313 233 313 264 q 315 199 313 210 q 331 184 318 189 q 371 179 343 179 m 594 1032 q 577 918 594 964 q 510 847 560 872 q 369 821 461 821 q 229 847 278 821 q 163 918 181 872 q 146 1032 146 964 l 300 1032 q 303 995 300 1008 q 322 974 307 982 q 369 965 338 965 q 418 974 403 965 q 437 995 433 982 q 440 1032 440 1008 l 594 1032 m 249 1067 l 249 1074 l 368 1272 l 643 1272 l 643 1265 l 454 1067 l 249 1067 z "},"ặ":{"ha":788,"x_min":39,"x_max":726,"o":"m 231 -11 q 86 41 133 -11 q 39 207 39 93 q 58 335 39 290 q 125 399 76 379 q 268 419 174 419 q 429 414 326 419 l 429 438 q 420 490 429 476 q 384 508 411 504 q 282 511 357 511 q 76 503 201 511 l 76 694 q 374 719 215 719 q 610 687 535 719 q 706 594 686 654 q 726 419 726 535 l 726 0 l 436 0 l 431 78 l 417 78 q 335 6 376 22 q 231 -11 293 -11 m 371 179 q 406 185 394 179 q 424 206 418 192 q 429 261 429 218 l 429 299 l 374 299 q 333 294 344 299 q 317 277 321 290 q 313 233 313 264 q 315 199 313 210 q 331 184 318 189 q 371 179 343 179 m 242 -324 l 242 -86 l 546 -86 l 546 -324 l 242 -324 m 618 1032 q 601 918 618 964 q 534 847 583 872 q 393 821 485 821 q 253 847 301 821 q 187 918 204 872 q 169 1032 169 964 l 324 1032 q 327 995 324 1008 q 346 974 331 982 q 393 965 361 965 q 442 974 426 965 q 460 995 457 982 q 464 1032 464 1008 l 618 1032 z "},"ằ":{"ha":788,"x_min":39,"x_max":726,"o":"m 231 -11 q 86 41 133 -11 q 39 207 39 93 q 58 335 39 290 q 125 399 76 379 q 268 419 174 419 q 429 414 326 419 l 429 438 q 420 490 429 476 q 384 508 411 504 q 282 511 357 511 q 76 503 201 511 l 76 694 q 374 719 215 719 q 610 687 535 719 q 706 594 686 654 q 726 419 726 535 l 726 0 l 436 0 l 431 78 l 417 78 q 335 6 376 22 q 231 -11 293 -11 m 371 179 q 406 185 394 179 q 424 206 418 192 q 429 261 429 218 l 429 299 l 374 299 q 333 294 344 299 q 317 277 321 290 q 313 233 313 264 q 315 199 313 210 q 331 184 318 189 q 371 179 343 179 m 649 1032 q 631 918 649 964 q 565 847 614 872 q 424 821 515 821 q 283 847 332 821 q 217 918 235 872 q 200 1032 200 964 l 354 1032 q 358 995 354 1008 q 376 974 361 982 q 424 965 392 965 q 472 974 457 965 q 491 995 488 982 q 494 1032 494 1008 l 649 1032 m 329 1067 l 140 1265 l 140 1272 l 415 1272 l 535 1074 l 535 1067 l 329 1067 z "},"ẳ":{"ha":788,"x_min":39,"x_max":726,"o":"m 231 -11 q 86 41 133 -11 q 39 207 39 93 q 58 335 39 290 q 125 399 76 379 q 268 419 174 419 q 429 414 326 419 l 429 438 q 420 490 429 476 q 384 508 411 504 q 282 511 357 511 q 76 503 201 511 l 76 694 q 374 719 215 719 q 610 687 535 719 q 706 594 686 654 q 726 419 726 535 l 726 0 l 436 0 l 431 78 l 417 78 q 335 6 376 22 q 231 -11 293 -11 m 371 179 q 406 185 394 179 q 424 206 418 192 q 429 261 429 218 l 429 299 l 374 299 q 333 294 344 299 q 317 277 321 290 q 313 233 313 264 q 315 199 313 210 q 331 184 318 189 q 371 179 343 179 m 614 1032 q 597 918 614 964 q 530 847 579 872 q 389 821 481 821 q 249 847 297 821 q 183 918 200 872 q 165 1032 165 964 l 319 1032 q 323 995 319 1008 q 342 974 326 982 q 389 965 357 965 q 438 974 422 965 q 456 995 453 982 q 460 1032 460 1008 l 614 1032 m 313 1050 q 326 1122 313 1103 q 383 1153 339 1142 l 404 1158 q 435 1171 428 1165 q 442 1192 442 1176 q 428 1221 442 1215 q 368 1226 414 1226 q 294 1224 335 1226 q 222 1218 254 1222 l 222 1344 q 314 1356 260 1351 q 414 1361 368 1361 q 527 1353 485 1361 q 597 1312 569 1344 q 624 1210 624 1279 q 610 1142 624 1165 q 576 1108 597 1118 q 515 1086 556 1097 l 501 1082 q 470 1067 478 1075 q 463 1047 463 1060 l 313 1047 l 313 1050 z "},"ẵ":{"ha":788,"x_min":39,"x_max":726,"o":"m 231 -11 q 86 41 133 -11 q 39 207 39 93 q 58 335 39 290 q 125 399 76 379 q 268 419 174 419 q 429 414 326 419 l 429 438 q 420 490 429 476 q 384 508 411 504 q 282 511 357 511 q 76 503 201 511 l 76 694 q 374 719 215 719 q 610 687 535 719 q 706 594 686 654 q 726 419 726 535 l 726 0 l 436 0 l 431 78 l 417 78 q 335 6 376 22 q 231 -11 293 -11 m 371 179 q 406 185 394 179 q 424 206 418 192 q 429 261 429 218 l 429 299 l 374 299 q 333 294 344 299 q 317 277 321 290 q 313 233 313 264 q 315 199 313 210 q 331 184 318 189 q 371 179 343 179 m 615 1032 q 598 918 615 964 q 531 847 581 872 q 390 821 482 821 q 250 847 299 821 q 184 918 201 872 q 167 1032 167 964 l 321 1032 q 324 995 321 1008 q 343 974 328 982 q 390 965 358 965 q 439 974 424 965 q 458 995 454 982 q 461 1032 461 1008 l 615 1032 m 678 1342 q 671 1215 678 1257 q 633 1149 664 1174 q 533 1124 603 1124 q 371 1146 479 1124 q 327 1154 358 1149 q 279 1160 296 1160 q 253 1149 258 1160 q 249 1107 249 1139 l 110 1107 q 117 1233 110 1192 q 154 1300 124 1275 q 254 1325 185 1325 q 417 1303 308 1325 q 460 1294 429 1300 q 508 1289 492 1289 q 534 1299 529 1289 q 539 1342 539 1310 l 678 1342 z "},"ǎ":{"ha":788,"x_min":39,"x_max":726,"o":"m 231 -11 q 86 41 133 -11 q 39 207 39 93 q 58 335 39 290 q 125 399 76 379 q 268 419 174 419 q 429 414 326 419 l 429 438 q 420 490 429 476 q 384 508 411 504 q 282 511 357 511 q 76 503 201 511 l 76 694 q 374 719 215 719 q 610 687 535 719 q 706 594 686 654 q 726 419 726 535 l 726 0 l 436 0 l 431 78 l 417 78 q 335 6 376 22 q 231 -11 293 -11 m 371 179 q 406 185 394 179 q 424 206 418 192 q 429 261 429 218 l 429 299 l 374 299 q 333 294 344 299 q 317 277 321 290 q 313 233 313 264 q 315 199 313 210 q 331 184 318 189 q 371 179 343 179 m 263 826 l 139 1021 l 139 1032 l 325 1032 l 397 932 l 464 1032 l 650 1032 l 650 1021 l 525 826 l 263 826 z "},"â":{"ha":788,"x_min":39,"x_max":726,"o":"m 231 -11 q 86 41 133 -11 q 39 207 39 93 q 58 335 39 290 q 125 399 76 379 q 268 419 174 419 q 429 414 326 419 l 429 438 q 420 490 429 476 q 384 508 411 504 q 282 511 357 511 q 76 503 201 511 l 76 694 q 374 719 215 719 q 610 687 535 719 q 706 594 686 654 q 726 419 726 535 l 726 0 l 436 0 l 431 78 l 417 78 q 335 6 376 22 q 231 -11 293 -11 m 371 179 q 406 185 394 179 q 424 206 418 192 q 429 261 429 218 l 429 299 l 374 299 q 333 294 344 299 q 317 277 321 290 q 313 233 313 264 q 315 199 313 210 q 331 184 318 189 q 371 179 343 179 m 143 826 l 143 838 l 267 1032 l 529 1032 l 654 838 l 654 826 l 468 826 l 397 926 l 329 826 l 143 826 z "},"ấ":{"ha":788,"x_min":39,"x_max":790,"o":"m 231 -11 q 86 41 133 -11 q 39 207 39 93 q 58 335 39 290 q 125 399 76 379 q 268 419 174 419 q 429 414 326 419 l 429 438 q 420 490 429 476 q 384 508 411 504 q 282 511 357 511 q 76 503 201 511 l 76 694 q 374 719 215 719 q 610 687 535 719 q 706 594 686 654 q 726 419 726 535 l 726 0 l 436 0 l 431 78 l 417 78 q 335 6 376 22 q 231 -11 293 -11 m 371 179 q 406 185 394 179 q 424 206 418 192 q 429 261 429 218 l 429 299 l 374 299 q 333 294 344 299 q 317 277 321 290 q 313 233 313 264 q 315 199 313 210 q 331 184 318 189 q 371 179 343 179 m 138 826 l 138 838 l 261 1032 l 524 1032 l 649 838 l 649 826 l 463 826 l 392 926 l 324 826 l 138 826 m 396 1067 l 396 1074 l 515 1272 l 790 1272 l 790 1265 l 601 1067 l 396 1067 z "},"ậ":{"ha":788,"x_min":39,"x_max":726,"o":"m 231 -11 q 86 41 133 -11 q 39 207 39 93 q 58 335 39 290 q 125 399 76 379 q 268 419 174 419 q 429 414 326 419 l 429 438 q 420 490 429 476 q 384 508 411 504 q 282 511 357 511 q 76 503 201 511 l 76 694 q 374 719 215 719 q 610 687 535 719 q 706 594 686 654 q 726 419 726 535 l 726 0 l 436 0 l 431 78 l 417 78 q 335 6 376 22 q 231 -11 293 -11 m 371 179 q 406 185 394 179 q 424 206 418 192 q 429 261 429 218 l 429 299 l 374 299 q 333 294 344 299 q 317 277 321 290 q 313 233 313 264 q 315 199 313 210 q 331 184 318 189 q 371 179 343 179 m 242 -324 l 242 -86 l 546 -86 l 546 -324 l 242 -324 m 139 826 l 139 838 l 263 1032 l 525 1032 l 650 838 l 650 826 l 464 826 l 393 926 l 325 826 l 139 826 z "},"ầ":{"ha":788,"x_min":39,"x_max":726,"o":"m 231 -11 q 86 41 133 -11 q 39 207 39 93 q 58 335 39 290 q 125 399 76 379 q 268 419 174 419 q 429 414 326 419 l 429 438 q 420 490 429 476 q 384 508 411 504 q 282 511 357 511 q 76 503 201 511 l 76 694 q 374 719 215 719 q 610 687 535 719 q 706 594 686 654 q 726 419 726 535 l 726 0 l 436 0 l 431 78 l 417 78 q 335 6 376 22 q 231 -11 293 -11 m 371 179 q 406 185 394 179 q 424 206 418 192 q 429 261 429 218 l 429 299 l 374 299 q 333 294 344 299 q 317 277 321 290 q 313 233 313 264 q 315 199 313 210 q 331 184 318 189 q 371 179 343 179 m 122 826 l 122 838 l 246 1032 l 508 1032 l 633 838 l 633 826 l 447 826 l 376 926 l 308 826 l 122 826 m 460 1067 l 271 1265 l 271 1272 l 546 1272 l 665 1074 l 665 1067 l 460 1067 z "},"ẩ":{"ha":788,"x_min":39,"x_max":782,"o":"m 231 -11 q 86 41 133 -11 q 39 207 39 93 q 58 335 39 290 q 125 399 76 379 q 268 419 174 419 q 429 414 326 419 l 429 438 q 420 490 429 476 q 384 508 411 504 q 282 511 357 511 q 76 503 201 511 l 76 694 q 374 719 215 719 q 610 687 535 719 q 706 594 686 654 q 726 419 726 535 l 726 0 l 436 0 l 431 78 l 417 78 q 335 6 376 22 q 231 -11 293 -11 m 371 179 q 406 185 394 179 q 424 206 418 192 q 429 261 429 218 l 429 299 l 374 299 q 333 294 344 299 q 317 277 321 290 q 313 233 313 264 q 315 199 313 210 q 331 184 318 189 q 371 179 343 179 m 139 826 l 139 838 l 263 1032 l 525 1032 l 650 838 l 650 826 l 464 826 l 393 926 l 325 826 l 139 826 m 471 1064 q 484 1136 471 1117 q 542 1167 497 1156 l 563 1172 q 593 1185 586 1179 q 600 1206 600 1190 q 586 1235 600 1229 q 526 1240 572 1240 q 453 1238 493 1240 q 381 1232 413 1236 l 381 1358 q 472 1370 418 1365 q 572 1375 526 1375 q 685 1367 643 1375 q 755 1326 728 1358 q 782 1224 782 1293 q 769 1156 782 1179 q 735 1122 756 1132 q 674 1100 714 1111 l 660 1096 q 628 1081 636 1089 q 621 1061 621 1074 l 471 1061 l 471 1064 z "},"ẫ":{"ha":788,"x_min":39,"x_max":726,"o":"m 231 -11 q 86 41 133 -11 q 39 207 39 93 q 58 335 39 290 q 125 399 76 379 q 268 419 174 419 q 429 414 326 419 l 429 438 q 420 490 429 476 q 384 508 411 504 q 282 511 357 511 q 76 503 201 511 l 76 694 q 374 719 215 719 q 610 687 535 719 q 706 594 686 654 q 726 419 726 535 l 726 0 l 436 0 l 431 78 l 417 78 q 335 6 376 22 q 231 -11 293 -11 m 371 179 q 406 185 394 179 q 424 206 418 192 q 429 261 429 218 l 429 299 l 374 299 q 333 294 344 299 q 317 277 321 290 q 313 233 313 264 q 315 199 313 210 q 331 184 318 189 q 371 179 343 179 m 136 826 l 136 838 l 260 1032 l 522 1032 l 647 838 l 647 826 l 461 826 l 390 926 l 322 826 l 136 826 m 678 1272 q 671 1146 678 1188 q 633 1079 664 1104 q 533 1054 603 1054 q 371 1076 479 1054 q 327 1085 358 1079 q 279 1090 296 1090 q 253 1080 258 1090 q 249 1038 249 1069 l 110 1038 q 117 1164 110 1122 q 154 1231 124 1206 q 254 1256 185 1256 q 417 1233 308 1256 q 460 1225 429 1231 q 508 1219 492 1219 q 534 1230 529 1219 q 539 1272 539 1240 l 678 1272 z "},"ȁ":{"ha":788,"x_min":39,"x_max":726,"o":"m 231 -11 q 86 41 133 -11 q 39 207 39 93 q 58 335 39 290 q 125 399 76 379 q 268 419 174 419 q 429 414 326 419 l 429 438 q 420 490 429 476 q 384 508 411 504 q 282 511 357 511 q 76 503 201 511 l 76 694 q 374 719 215 719 q 610 687 535 719 q 706 594 686 654 q 726 419 726 535 l 726 0 l 436 0 l 431 78 l 417 78 q 335 6 376 22 q 231 -11 293 -11 m 371 179 q 406 185 394 179 q 424 206 418 192 q 429 261 429 218 l 429 299 l 374 299 q 333 294 344 299 q 317 277 321 290 q 313 233 313 264 q 315 199 313 210 q 331 184 318 189 q 371 179 343 179 m 361 849 l 193 849 l 44 1007 l 44 1013 l 265 1013 l 361 854 l 361 849 m 624 849 l 458 849 l 308 1007 l 308 1013 l 531 1013 l 624 854 l 624 849 z "},"ä":{"ha":788,"x_min":39,"x_max":726,"o":"m 231 -11 q 86 41 133 -11 q 39 207 39 93 q 58 335 39 290 q 125 399 76 379 q 268 419 174 419 q 429 414 326 419 l 429 438 q 420 490 429 476 q 384 508 411 504 q 282 511 357 511 q 76 503 201 511 l 76 694 q 374 719 215 719 q 610 687 535 719 q 706 594 686 654 q 726 419 726 535 l 726 0 l 436 0 l 431 78 l 417 78 q 335 6 376 22 q 231 -11 293 -11 m 371 179 q 406 185 394 179 q 424 206 418 192 q 429 261 429 218 l 429 299 l 374 299 q 333 294 344 299 q 317 277 321 290 q 313 233 313 264 q 315 199 313 210 q 331 184 318 189 q 371 179 343 179 m 132 842 l 132 1014 l 361 1014 l 361 842 l 132 842 m 436 842 l 436 1014 l 665 1014 l 665 842 l 436 842 z "},"ạ":{"ha":788,"x_min":39,"x_max":726,"o":"m 231 -11 q 86 41 133 -11 q 39 207 39 93 q 58 335 39 290 q 125 399 76 379 q 268 419 174 419 q 429 414 326 419 l 429 438 q 420 490 429 476 q 384 508 411 504 q 282 511 357 511 q 76 503 201 511 l 76 694 q 374 719 215 719 q 610 687 535 719 q 706 594 686 654 q 726 419 726 535 l 726 0 l 436 0 l 431 78 l 417 78 q 335 6 376 22 q 231 -11 293 -11 m 371 179 q 406 185 394 179 q 424 206 418 192 q 429 261 429 218 l 429 299 l 374 299 q 333 294 344 299 q 317 277 321 290 q 313 233 313 264 q 315 199 313 210 q 331 184 318 189 q 371 179 343 179 m 242 -324 l 242 -86 l 546 -86 l 546 -324 l 242 -324 z "},"à":{"ha":788,"x_min":39,"x_max":726,"o":"m 231 -11 q 86 41 133 -11 q 39 207 39 93 q 58 335 39 290 q 125 399 76 379 q 268 419 174 419 q 429 414 326 419 l 429 438 q 420 490 429 476 q 384 508 411 504 q 282 511 357 511 q 76 503 201 511 l 76 694 q 374 719 215 719 q 610 687 535 719 q 706 594 686 654 q 726 419 726 535 l 726 0 l 436 0 l 431 78 l 417 78 q 335 6 376 22 q 231 -11 293 -11 m 371 179 q 406 185 394 179 q 424 206 418 192 q 429 261 429 218 l 429 299 l 374 299 q 333 294 344 299 q 317 277 321 290 q 313 233 313 264 q 315 199 313 210 q 331 184 318 189 q 371 179 343 179 m 303 826 l 114 1025 l 114 1032 l 389 1032 l 508 833 l 508 826 l 303 826 z "},"ả":{"ha":788,"x_min":39,"x_max":726,"o":"m 231 -11 q 86 41 133 -11 q 39 207 39 93 q 58 335 39 290 q 125 399 76 379 q 268 419 174 419 q 429 414 326 419 l 429 438 q 420 490 429 476 q 384 508 411 504 q 282 511 357 511 q 76 503 201 511 l 76 694 q 374 719 215 719 q 610 687 535 719 q 706 594 686 654 q 726 419 726 535 l 726 0 l 436 0 l 431 78 l 417 78 q 335 6 376 22 q 231 -11 293 -11 m 371 179 q 406 185 394 179 q 424 206 418 192 q 429 261 429 218 l 429 299 l 374 299 q 333 294 344 299 q 317 277 321 290 q 313 233 313 264 q 315 199 313 210 q 331 184 318 189 q 371 179 343 179 m 283 851 q 297 924 283 904 q 354 954 310 943 l 375 960 q 406 972 399 967 q 413 993 413 978 q 399 1022 413 1017 q 339 1028 385 1028 q 265 1026 306 1028 q 193 1019 225 1024 l 193 1146 q 285 1158 231 1153 q 385 1163 339 1163 q 498 1154 456 1163 q 567 1113 540 1146 q 594 1011 594 1081 q 581 943 594 967 q 547 909 568 919 q 486 888 526 899 l 472 883 q 441 869 449 876 q 433 849 433 861 l 283 849 l 283 851 z "},"ȃ":{"ha":788,"x_min":39,"x_max":726,"o":"m 231 -11 q 86 41 133 -11 q 39 207 39 93 q 58 335 39 290 q 125 399 76 379 q 268 419 174 419 q 429 414 326 419 l 429 438 q 420 490 429 476 q 384 508 411 504 q 282 511 357 511 q 76 503 201 511 l 76 694 q 374 719 215 719 q 610 687 535 719 q 706 594 686 654 q 726 419 726 535 l 726 0 l 436 0 l 431 78 l 417 78 q 335 6 376 22 q 231 -11 293 -11 m 371 179 q 406 185 394 179 q 424 206 418 192 q 429 261 429 218 l 429 299 l 374 299 q 333 294 344 299 q 317 277 321 290 q 313 233 313 264 q 315 199 313 210 q 331 184 318 189 q 371 179 343 179 m 169 828 q 187 942 169 896 q 253 1013 204 988 q 394 1039 303 1039 q 535 1013 486 1039 q 601 942 583 988 q 618 828 618 896 l 464 828 q 460 865 464 851 q 442 886 457 878 q 394 894 426 894 q 346 886 361 894 q 327 865 331 878 q 324 828 324 851 l 169 828 z "},"ā":{"ha":788,"x_min":39,"x_max":726,"o":"m 231 -11 q 86 41 133 -11 q 39 207 39 93 q 58 335 39 290 q 125 399 76 379 q 268 419 174 419 q 429 414 326 419 l 429 438 q 420 490 429 476 q 384 508 411 504 q 282 511 357 511 q 76 503 201 511 l 76 694 q 374 719 215 719 q 610 687 535 719 q 706 594 686 654 q 726 419 726 535 l 726 0 l 436 0 l 431 78 l 417 78 q 335 6 376 22 q 231 -11 293 -11 m 371 179 q 406 185 394 179 q 424 206 418 192 q 429 261 429 218 l 429 299 l 374 299 q 333 294 344 299 q 317 277 321 290 q 313 233 313 264 q 315 199 313 210 q 331 184 318 189 q 371 179 343 179 m 188 811 l 188 1032 l 601 1032 l 601 811 l 188 811 z "},"ą":{"ha":788,"x_min":39,"x_max":726,"o":"m 726 0 q 661 -40 688 -12 q 635 -96 635 -67 q 700 -137 635 -137 l 724 -136 l 724 -267 q 604 -272 660 -272 q 449 -238 496 -272 q 401 -151 401 -204 q 492 0 401 -76 l 436 0 l 431 78 l 417 78 q 335 6 376 22 q 231 -11 293 -11 q 86 41 133 -11 q 39 207 39 93 q 58 335 39 290 q 125 399 76 379 q 268 419 174 419 q 429 414 326 419 l 429 438 q 420 490 429 476 q 384 508 411 504 q 282 511 357 511 q 157 507 231 511 q 76 503 83 503 l 76 694 q 374 719 215 719 q 610 687 535 719 q 706 594 686 654 q 726 419 726 535 l 726 0 m 429 299 l 374 299 q 333 294 344 299 q 317 277 321 290 q 313 233 313 264 q 315 199 313 210 q 331 184 318 189 q 371 179 343 179 q 406 185 394 179 q 424 206 418 192 q 429 261 429 218 l 429 299 z "},"å":{"ha":788,"x_min":39,"x_max":726,"o":"m 231 -11 q 86 41 133 -11 q 39 207 39 93 q 58 335 39 290 q 125 399 76 379 q 268 419 174 419 q 429 414 326 419 l 429 438 q 420 490 429 476 q 384 508 411 504 q 282 511 357 511 q 76 503 201 511 l 76 694 q 374 719 215 719 q 610 687 535 719 q 706 594 686 654 q 726 419 726 535 l 726 0 l 436 0 l 431 78 l 417 78 q 335 6 376 22 q 231 -11 293 -11 m 371 179 q 406 185 394 179 q 424 206 418 192 q 429 261 429 218 l 429 299 l 374 299 q 333 294 344 299 q 317 277 321 290 q 313 233 313 264 q 315 199 313 210 q 331 184 318 189 q 371 179 343 179 m 404 803 q 263 818 308 803 q 203 868 218 833 q 189 972 189 903 q 203 1078 189 1043 q 263 1128 218 1113 q 404 1144 308 1144 q 546 1128 500 1144 q 606 1077 592 1113 q 621 972 621 1042 q 606 868 621 903 q 546 818 592 833 q 404 803 500 803 m 404 910 q 454 915 440 910 q 472 931 468 919 q 475 972 475 943 q 472 1015 475 1003 q 453 1032 468 1026 q 404 1038 439 1038 q 356 1032 369 1038 q 338 1015 342 1026 q 335 972 335 1003 q 338 931 335 943 q 356 915 342 919 q 404 910 369 910 z "},"ǻ":{"ha":788,"x_min":39,"x_max":726,"o":"m 231 -11 q 86 41 133 -11 q 39 207 39 93 q 58 335 39 290 q 125 399 76 379 q 268 419 174 419 q 429 414 326 419 l 429 438 q 420 490 429 476 q 384 508 411 504 q 282 511 357 511 q 76 503 201 511 l 76 694 q 374 719 215 719 q 610 687 535 719 q 706 594 686 654 q 726 419 726 535 l 726 0 l 436 0 l 431 78 l 417 78 q 335 6 376 22 q 231 -11 293 -11 m 371 179 q 406 185 394 179 q 424 206 418 192 q 429 261 429 218 l 429 299 l 374 299 q 333 294 344 299 q 317 277 321 290 q 313 233 313 264 q 315 199 313 210 q 331 184 318 189 q 371 179 343 179 m 393 821 q 252 836 297 821 q 192 886 207 851 q 178 990 178 921 q 192 1096 178 1061 q 252 1147 207 1131 q 393 1163 297 1163 q 535 1147 489 1163 q 595 1095 581 1131 q 610 990 610 1060 q 595 886 610 921 q 535 836 581 851 q 393 821 489 821 m 393 928 q 443 933 429 928 q 460 949 457 938 q 464 990 464 961 q 460 1033 464 1021 q 442 1050 457 1044 q 393 1056 428 1056 q 344 1050 358 1056 q 327 1033 331 1044 q 324 990 324 1021 q 327 949 324 961 q 344 933 331 938 q 393 928 358 928 m 296 1197 l 296 1204 l 415 1403 l 690 1403 l 690 1396 l 501 1197 l 296 1197 z "},"ã":{"ha":788,"x_min":39,"x_max":726,"o":"m 231 -11 q 86 41 133 -11 q 39 207 39 93 q 58 335 39 290 q 125 399 76 379 q 268 419 174 419 q 429 414 326 419 l 429 438 q 420 490 429 476 q 384 508 411 504 q 282 511 357 511 q 76 503 201 511 l 76 694 q 374 719 215 719 q 610 687 535 719 q 706 594 686 654 q 726 419 726 535 l 726 0 l 436 0 l 431 78 l 417 78 q 335 6 376 22 q 231 -11 293 -11 m 371 179 q 406 185 394 179 q 424 206 418 192 q 429 261 429 218 l 429 299 l 374 299 q 333 294 344 299 q 317 277 321 290 q 313 233 313 264 q 315 199 313 210 q 331 184 318 189 q 371 179 343 179 m 678 1032 q 671 906 678 947 q 633 839 664 864 q 533 814 603 814 q 371 836 479 814 q 327 844 358 839 q 279 850 296 850 q 253 840 258 850 q 249 797 249 829 l 110 797 q 117 924 110 882 q 154 990 124 965 q 254 1015 185 1015 q 417 993 308 1015 q 460 985 429 990 q 508 979 492 979 q 534 990 529 979 q 539 1032 539 1000 l 678 1032 z "},"æ":{"ha":1169,"x_min":39,"x_max":1121,"o":"m 1121 299 l 726 299 q 735 226 726 244 q 774 202 744 207 q 886 197 803 197 q 1093 207 960 197 l 1093 17 q 974 -3 1051 4 q 815 -11 896 -11 q 549 40 622 -11 q 440 -1 496 8 q 300 -11 383 -11 q 135 11 190 -11 q 59 78 79 33 q 39 207 39 124 q 58 335 39 290 q 125 399 76 379 q 268 419 174 419 q 429 414 326 419 l 429 438 q 420 490 429 476 q 384 508 411 504 q 282 511 357 511 q 76 503 194 511 l 76 694 q 346 719 204 719 q 582 665 499 719 q 813 719 663 719 q 1028 687 964 719 q 1106 585 1092 654 q 1121 353 1121 517 l 1121 299 m 785 532 q 745 526 756 532 q 731 498 735 521 q 726 417 726 475 l 846 417 q 842 499 846 476 q 827 526 839 521 q 785 532 815 532 m 429 299 l 374 299 q 333 294 344 299 q 317 277 321 290 q 313 233 313 264 q 315 199 313 210 q 331 184 318 189 q 371 179 343 179 q 413 189 400 179 q 428 218 425 199 q 429 261 429 233 l 429 299 z "},"ǽ":{"ha":1169,"x_min":39,"x_max":1121,"o":"m 1121 299 l 726 299 q 735 226 726 244 q 774 202 744 207 q 886 197 803 197 q 1093 207 960 197 l 1093 17 q 974 -3 1051 4 q 815 -11 896 -11 q 549 40 622 -11 q 440 -1 496 8 q 300 -11 383 -11 q 135 11 190 -11 q 59 78 79 33 q 39 207 39 124 q 58 335 39 290 q 125 399 76 379 q 268 419 174 419 q 429 414 326 419 l 429 438 q 420 490 429 476 q 384 508 411 504 q 282 511 357 511 q 76 503 194 511 l 76 694 q 346 719 204 719 q 582 665 499 719 q 813 719 663 719 q 1028 687 964 719 q 1106 585 1092 654 q 1121 353 1121 517 l 1121 299 m 785 532 q 745 526 756 532 q 731 498 735 521 q 726 417 726 475 l 846 417 q 842 499 846 476 q 827 526 839 521 q 785 532 815 532 m 429 299 l 374 299 q 333 294 344 299 q 317 277 321 290 q 313 233 313 264 q 315 199 313 210 q 331 184 318 189 q 371 179 343 179 q 413 189 400 179 q 428 218 425 199 q 429 261 429 233 l 429 299 m 483 826 l 483 833 l 603 1032 l 878 1032 l 878 1025 l 689 826 l 483 826 z "},"b":{"ha":811,"x_min":61,"x_max":769,"o":"m 556 -11 q 445 8 492 -11 q 369 79 399 28 l 354 79 l 349 0 l 61 0 l 61 1032 l 358 1032 l 358 638 l 372 638 q 447 702 404 686 q 551 718 490 718 q 677 686 631 718 q 747 574 724 654 q 769 351 769 494 q 747 130 769 208 q 679 20 725 51 q 556 -11 633 -11 m 415 218 q 458 224 447 218 q 471 255 468 231 q 474 354 474 279 q 471 453 474 429 q 458 484 468 478 q 415 490 447 490 q 377 485 388 490 q 363 461 367 481 q 358 354 358 438 q 363 249 358 271 q 378 224 367 229 q 415 218 389 218 z "},"c":{"ha":647,"x_min":42,"x_max":601,"o":"m 601 15 q 367 -11 481 -11 q 147 33 217 -11 q 59 149 76 76 q 42 353 42 221 q 58 558 42 486 q 145 675 75 631 q 367 719 215 719 q 596 694 488 719 l 596 503 q 450 511 529 511 q 377 500 399 511 q 349 458 356 489 q 343 354 343 428 q 349 249 343 279 q 376 208 354 219 q 450 197 397 197 q 601 207 521 197 l 601 15 z "},"ć":{"ha":647,"x_min":42,"x_max":617,"o":"m 601 15 q 367 -11 481 -11 q 147 33 217 -11 q 59 149 76 76 q 42 353 42 221 q 58 558 42 486 q 145 675 75 631 q 367 719 215 719 q 596 694 488 719 l 596 503 q 450 511 529 511 q 377 500 399 511 q 349 458 356 489 q 343 354 343 428 q 349 249 343 279 q 376 208 354 219 q 450 197 397 197 q 601 207 521 197 l 601 15 m 222 826 l 222 833 l 342 1032 l 617 1032 l 617 1025 l 428 826 l 222 826 z "},"č":{"ha":647,"x_min":42,"x_max":601,"o":"m 601 15 q 367 -11 481 -11 q 147 33 217 -11 q 59 149 76 76 q 42 353 42 221 q 58 558 42 486 q 145 675 75 631 q 367 719 215 719 q 596 694 488 719 l 596 503 q 450 511 529 511 q 377 500 399 511 q 349 458 356 489 q 343 354 343 428 q 349 249 343 279 q 376 208 354 219 q 450 197 397 197 q 601 207 521 197 l 601 15 m 192 826 l 68 1021 l 68 1032 l 254 1032 l 326 932 l 393 1032 l 579 1032 l 579 1021 l 454 826 l 192 826 z "},"ç":{"ha":647,"x_min":42,"x_max":601,"o":"m 601 15 q 418 -10 500 -6 l 375 -262 l 115 -262 l 115 -256 l 226 3 q 101 69 142 22 q 51 179 61 115 q 42 353 42 243 q 58 558 42 486 q 145 675 75 631 q 367 719 215 719 q 596 694 488 719 l 596 503 q 450 511 529 511 q 377 500 399 511 q 349 458 356 489 q 343 354 343 428 q 349 249 343 279 q 376 208 354 219 q 450 197 397 197 q 601 207 521 197 l 601 15 z "},"ĉ":{"ha":647,"x_min":42,"x_max":601,"o":"m 601 15 q 367 -11 481 -11 q 147 33 217 -11 q 59 149 76 76 q 42 353 42 221 q 58 558 42 486 q 145 675 75 631 q 367 719 215 719 q 596 694 488 719 l 596 503 q 450 511 529 511 q 377 500 399 511 q 349 458 356 489 q 343 354 343 428 q 349 249 343 279 q 376 208 354 219 q 450 197 397 197 q 601 207 521 197 l 601 15 m 68 826 l 68 838 l 192 1032 l 454 1032 l 579 838 l 579 826 l 393 826 l 322 926 l 254 826 l 68 826 z "},"ċ":{"ha":647,"x_min":42,"x_max":601,"o":"m 601 15 q 367 -11 481 -11 q 147 33 217 -11 q 59 149 76 76 q 42 353 42 221 q 58 558 42 486 q 145 675 75 631 q 367 719 215 719 q 596 694 488 719 l 596 503 q 450 511 529 511 q 377 500 399 511 q 349 458 356 489 q 343 354 343 428 q 349 249 343 279 q 376 208 354 219 q 450 197 397 197 q 601 207 521 197 l 601 15 m 208 842 l 208 1014 l 438 1014 l 438 842 l 208 842 z "},"d":{"ha":811,"x_min":42,"x_max":750,"o":"m 256 -11 q 132 20 178 -11 q 64 130 86 51 q 42 351 42 208 q 65 574 42 494 q 134 686 88 654 q 260 718 181 718 q 364 702 321 718 q 439 638 407 686 l 453 638 l 453 1032 l 750 1032 l 750 0 l 463 0 l 457 79 l 442 79 q 366 8 413 28 q 256 -11 319 -11 m 396 218 q 435 224 425 218 q 449 253 446 231 q 453 354 453 281 q 450 449 453 426 q 436 483 447 476 q 396 490 425 490 q 353 484 364 490 q 340 453 343 478 q 338 354 338 429 q 340 255 338 279 q 353 224 343 231 q 396 218 364 218 z "},"ð":{"ha":793,"x_min":42,"x_max":751,"o":"m 396 -11 q 153 20 226 -11 q 61 122 81 51 q 42 354 42 193 q 58 576 42 501 q 127 685 75 650 q 290 719 179 719 q 400 708 333 719 l 408 715 q 376 794 399 751 l 189 771 l 189 924 l 279 935 q 181 1026 240 978 l 181 1032 l 497 1032 q 556 972 528 1007 l 744 997 l 744 844 l 664 832 q 739 581 717 728 q 751 354 751 485 q 732 122 751 193 q 639 20 713 51 q 396 -11 565 -11 m 396 197 q 439 206 428 197 q 453 243 450 214 q 456 354 456 272 q 453 465 456 436 q 439 503 450 494 q 396 511 428 511 q 353 503 364 511 q 340 467 343 494 q 338 354 338 439 q 340 242 338 269 q 353 206 343 214 q 396 197 364 197 z "},"ď":{"ha":978,"x_min":42,"x_max":1058,"o":"m 256 -11 q 132 20 178 -11 q 64 130 86 51 q 42 351 42 208 q 65 574 42 494 q 134 686 88 654 q 260 718 181 718 q 364 702 321 718 q 439 638 407 686 l 453 638 l 453 1032 l 750 1032 l 750 0 l 463 0 l 457 79 l 442 79 q 366 8 413 28 q 256 -11 319 -11 m 396 218 q 435 224 425 218 q 449 253 446 231 q 453 354 453 281 q 450 449 453 426 q 436 483 447 476 q 396 490 425 490 q 353 484 364 490 q 340 453 343 478 q 338 354 338 429 q 340 255 338 279 q 353 224 343 231 q 396 218 364 218 m 790 585 l 803 892 l 803 956 l 1058 956 l 1058 892 l 988 585 l 790 585 z "},"đ":{"ha":811,"x_min":42,"x_max":824,"o":"m 824 765 l 750 765 l 750 0 l 463 0 l 457 79 l 442 79 q 366 8 413 28 q 256 -11 319 -11 q 132 20 178 -11 q 64 130 86 51 q 42 351 42 208 q 65 574 42 494 q 134 686 88 654 q 260 718 181 718 q 364 702 321 718 q 439 638 407 686 l 453 638 l 453 765 l 288 765 l 288 956 l 453 956 l 453 1032 l 750 1032 l 750 956 l 824 956 l 824 765 m 449 253 q 453 354 453 281 q 450 449 453 426 q 436 483 447 476 q 396 490 425 490 q 353 484 364 490 q 340 453 343 478 q 338 354 338 429 q 340 255 338 279 q 353 224 343 231 q 396 218 364 218 q 435 224 425 218 q 449 253 446 231 z "},"ḍ":{"ha":811,"x_min":42,"x_max":750,"o":"m 256 -11 q 132 20 178 -11 q 64 130 86 51 q 42 351 42 208 q 65 574 42 494 q 134 686 88 654 q 260 718 181 718 q 364 702 321 718 q 439 638 407 686 l 453 638 l 453 1032 l 750 1032 l 750 0 l 463 0 l 457 79 l 442 79 q 366 8 413 28 q 256 -11 319 -11 m 396 218 q 435 224 425 218 q 449 253 446 231 q 453 354 453 281 q 450 449 453 426 q 436 483 447 476 q 396 490 425 490 q 353 484 364 490 q 340 453 343 478 q 338 354 338 429 q 340 255 338 279 q 353 224 343 231 q 396 218 364 218 m 253 -324 l 253 -86 l 557 -86 l 557 -324 l 253 -324 z "},"ǳ":{"ha":1557,"x_min":42,"x_max":1508,"o":"m 256 -11 q 132 20 178 -11 q 64 130 86 51 q 42 351 42 208 q 65 574 42 494 q 134 686 88 654 q 260 718 181 718 q 364 702 321 718 q 439 638 407 686 l 453 638 l 453 1032 l 750 1032 l 750 0 l 463 0 l 457 79 l 442 79 q 366 8 413 28 q 256 -11 319 -11 m 396 218 q 435 224 425 218 q 449 253 446 231 q 453 354 453 281 q 450 449 453 426 q 436 483 447 476 q 396 490 425 490 q 353 484 364 490 q 340 453 343 478 q 338 354 338 429 q 340 255 338 279 q 353 224 343 231 q 396 218 364 218 m 860 0 l 860 197 l 1135 500 l 876 500 l 876 708 l 1506 708 l 1506 511 l 1231 208 l 1508 208 l 1508 0 l 860 0 z "},"ǆ":{"ha":1557,"x_min":42,"x_max":1508,"o":"m 256 -11 q 132 20 178 -11 q 64 130 86 51 q 42 351 42 208 q 65 574 42 494 q 134 686 88 654 q 260 718 181 718 q 364 702 321 718 q 439 638 407 686 l 453 638 l 453 1032 l 750 1032 l 750 0 l 463 0 l 457 79 l 442 79 q 366 8 413 28 q 256 -11 319 -11 m 396 218 q 435 224 425 218 q 449 253 446 231 q 453 354 453 281 q 450 449 453 426 q 436 483 447 476 q 396 490 425 490 q 353 484 364 490 q 340 453 343 478 q 338 354 338 429 q 340 255 338 279 q 353 224 343 231 q 396 218 364 218 m 860 0 l 860 197 l 1135 500 l 876 500 l 876 708 l 1506 708 l 1506 511 l 1231 208 l 1508 208 l 1508 0 l 860 0 m 1051 826 l 928 1021 l 928 1032 l 1114 1032 l 1186 932 l 1253 1032 l 1439 1032 l 1439 1021 l 1314 826 l 1051 826 z "},"e":{"ha":775,"x_min":42,"x_max":726,"o":"m 726 299 l 332 299 q 341 226 332 244 q 379 202 350 207 q 492 197 408 197 q 699 207 565 197 l 699 17 q 579 -3 657 4 q 421 -11 501 -11 q 163 24 242 -11 q 63 131 83 60 q 42 353 42 203 q 61 576 42 503 q 154 684 81 649 q 390 719 228 719 q 625 687 556 719 q 710 585 694 654 q 726 353 726 517 l 726 299 m 390 532 q 351 526 361 532 q 336 498 340 521 q 332 417 332 475 l 451 417 q 448 499 451 476 q 433 526 444 521 q 390 532 422 532 z "},"é":{"ha":775,"x_min":42,"x_max":726,"o":"m 726 299 l 332 299 q 341 226 332 244 q 379 202 350 207 q 492 197 408 197 q 699 207 565 197 l 699 17 q 579 -3 657 4 q 421 -11 501 -11 q 163 24 242 -11 q 63 131 83 60 q 42 353 42 203 q 61 576 42 503 q 154 684 81 649 q 390 719 228 719 q 625 687 556 719 q 710 585 694 654 q 726 353 726 517 l 726 299 m 390 532 q 351 526 361 532 q 336 498 340 521 q 332 417 332 475 l 451 417 q 448 499 451 476 q 433 526 444 521 q 390 532 422 532 m 290 826 l 290 833 l 410 1032 l 685 1032 l 685 1025 l 496 826 l 290 826 z "},"ĕ":{"ha":775,"x_min":42,"x_max":726,"o":"m 726 299 l 332 299 q 341 226 332 244 q 379 202 350 207 q 492 197 408 197 q 699 207 565 197 l 699 17 q 579 -3 657 4 q 421 -11 501 -11 q 163 24 242 -11 q 63 131 83 60 q 42 353 42 203 q 61 576 42 503 q 154 684 81 649 q 390 719 228 719 q 625 687 556 719 q 710 585 694 654 q 726 353 726 517 l 726 299 m 390 532 q 351 526 361 532 q 336 498 340 521 q 332 417 332 475 l 451 417 q 448 499 451 476 q 433 526 444 521 q 390 532 422 532 m 611 1032 q 594 918 611 964 q 527 847 576 872 q 386 821 478 821 q 246 847 294 821 q 180 918 197 872 q 163 1032 163 964 l 317 1032 q 320 995 317 1008 q 339 974 324 982 q 386 965 354 965 q 435 974 419 965 q 453 995 450 982 q 457 1032 457 1008 l 611 1032 z "},"ě":{"ha":775,"x_min":42,"x_max":726,"o":"m 726 299 l 332 299 q 341 226 332 244 q 379 202 350 207 q 492 197 408 197 q 699 207 565 197 l 699 17 q 579 -3 657 4 q 421 -11 501 -11 q 163 24 242 -11 q 63 131 83 60 q 42 353 42 203 q 61 576 42 503 q 154 684 81 649 q 390 719 228 719 q 625 687 556 719 q 710 585 694 654 q 726 353 726 517 l 726 299 m 390 532 q 351 526 361 532 q 336 498 340 521 q 332 417 332 475 l 451 417 q 448 499 451 476 q 433 526 444 521 q 390 532 422 532 m 256 826 l 132 1021 l 132 1032 l 318 1032 l 390 932 l 457 1032 l 643 1032 l 643 1021 l 518 826 l 256 826 z "},"ê":{"ha":775,"x_min":42,"x_max":726,"o":"m 726 299 l 332 299 q 341 226 332 244 q 379 202 350 207 q 492 197 408 197 q 699 207 565 197 l 699 17 q 579 -3 657 4 q 421 -11 501 -11 q 163 24 242 -11 q 63 131 83 60 q 42 353 42 203 q 61 576 42 503 q 154 684 81 649 q 390 719 228 719 q 625 687 556 719 q 710 585 694 654 q 726 353 726 517 l 726 299 m 390 532 q 351 526 361 532 q 336 498 340 521 q 332 417 332 475 l 451 417 q 448 499 451 476 q 433 526 444 521 q 390 532 422 532 m 144 826 l 144 838 l 268 1032 l 531 1032 l 656 838 l 656 826 l 469 826 l 399 926 l 331 826 l 144 826 z "},"ế":{"ha":775,"x_min":42,"x_max":783,"o":"m 726 299 l 332 299 q 341 226 332 244 q 379 202 350 207 q 492 197 408 197 q 699 207 565 197 l 699 17 q 579 -3 657 4 q 421 -11 501 -11 q 163 24 242 -11 q 63 131 83 60 q 42 353 42 203 q 61 576 42 503 q 154 684 81 649 q 390 719 228 719 q 625 687 556 719 q 710 585 694 654 q 726 353 726 517 l 726 299 m 390 532 q 351 526 361 532 q 336 498 340 521 q 332 417 332 475 l 451 417 q 448 499 451 476 q 433 526 444 521 q 390 532 422 532 m 131 826 l 131 838 l 254 1032 l 517 1032 l 642 838 l 642 826 l 456 826 l 385 926 l 317 826 l 131 826 m 389 1067 l 389 1074 l 508 1272 l 783 1272 l 783 1265 l 594 1067 l 389 1067 z "},"ệ":{"ha":775,"x_min":42,"x_max":726,"o":"m 726 299 l 332 299 q 341 226 332 244 q 379 202 350 207 q 492 197 408 197 q 699 207 565 197 l 699 17 q 579 -3 657 4 q 421 -11 501 -11 q 163 24 242 -11 q 63 131 83 60 q 42 353 42 203 q 61 576 42 503 q 154 684 81 649 q 390 719 228 719 q 625 687 556 719 q 710 585 694 654 q 726 353 726 517 l 726 299 m 390 532 q 351 526 361 532 q 336 498 340 521 q 332 417 332 475 l 451 417 q 448 499 451 476 q 433 526 444 521 q 390 532 422 532 m 235 -324 l 235 -86 l 539 -86 l 539 -324 l 235 -324 m 132 826 l 132 838 l 256 1032 l 518 1032 l 643 838 l 643 826 l 457 826 l 386 926 l 318 826 l 132 826 z "},"ề":{"ha":775,"x_min":42,"x_max":726,"o":"m 726 299 l 332 299 q 341 226 332 244 q 379 202 350 207 q 492 197 408 197 q 699 207 565 197 l 699 17 q 579 -3 657 4 q 421 -11 501 -11 q 163 24 242 -11 q 63 131 83 60 q 42 353 42 203 q 61 576 42 503 q 154 684 81 649 q 390 719 228 719 q 625 687 556 719 q 710 585 694 654 q 726 353 726 517 l 726 299 m 390 532 q 351 526 361 532 q 336 498 340 521 q 332 417 332 475 l 451 417 q 448 499 451 476 q 433 526 444 521 q 390 532 422 532 m 115 826 l 115 838 l 239 1032 l 501 1032 l 626 838 l 626 826 l 440 826 l 369 926 l 301 826 l 115 826 m 453 1067 l 264 1265 l 264 1272 l 539 1272 l 658 1074 l 658 1067 l 453 1067 z "},"ể":{"ha":775,"x_min":42,"x_max":775,"o":"m 726 299 l 332 299 q 341 226 332 244 q 379 202 350 207 q 492 197 408 197 q 699 207 565 197 l 699 17 q 579 -3 657 4 q 421 -11 501 -11 q 163 24 242 -11 q 63 131 83 60 q 42 353 42 203 q 61 576 42 503 q 154 684 81 649 q 390 719 228 719 q 625 687 556 719 q 710 585 694 654 q 726 353 726 517 l 726 299 m 390 532 q 351 526 361 532 q 336 498 340 521 q 332 417 332 475 l 451 417 q 448 499 451 476 q 433 526 444 521 q 390 532 422 532 m 132 826 l 132 838 l 256 1032 l 518 1032 l 643 838 l 643 826 l 457 826 l 386 926 l 318 826 l 132 826 m 464 1064 q 477 1136 464 1117 q 535 1167 490 1156 l 556 1172 q 586 1185 579 1179 q 593 1206 593 1190 q 579 1235 593 1229 q 519 1240 565 1240 q 446 1238 486 1240 q 374 1232 406 1236 l 374 1358 q 465 1370 411 1365 q 565 1375 519 1375 q 678 1367 636 1375 q 748 1326 721 1358 q 775 1224 775 1293 q 762 1156 775 1179 q 728 1122 749 1132 q 667 1100 707 1111 l 653 1096 q 622 1081 629 1089 q 614 1061 614 1074 l 464 1061 l 464 1064 z "},"ễ":{"ha":775,"x_min":42,"x_max":726,"o":"m 726 299 l 332 299 q 341 226 332 244 q 379 202 350 207 q 492 197 408 197 q 699 207 565 197 l 699 17 q 579 -3 657 4 q 421 -11 501 -11 q 163 24 242 -11 q 63 131 83 60 q 42 353 42 203 q 61 576 42 503 q 154 684 81 649 q 390 719 228 719 q 625 687 556 719 q 710 585 694 654 q 726 353 726 517 l 726 299 m 390 532 q 351 526 361 532 q 336 498 340 521 q 332 417 332 475 l 451 417 q 448 499 451 476 q 433 526 444 521 q 390 532 422 532 m 129 826 l 129 838 l 253 1032 l 515 1032 l 640 838 l 640 826 l 454 826 l 383 926 l 315 826 l 129 826 m 671 1272 q 664 1146 671 1188 q 626 1079 657 1104 q 526 1054 596 1054 q 364 1076 472 1054 q 320 1085 351 1079 q 272 1090 289 1090 q 247 1080 251 1090 q 242 1038 242 1069 l 103 1038 q 110 1164 103 1122 q 147 1231 117 1206 q 247 1256 178 1256 q 410 1233 301 1256 q 453 1225 422 1231 q 501 1219 485 1219 q 527 1230 522 1219 q 532 1272 532 1240 l 671 1272 z "},"ȅ":{"ha":775,"x_min":38,"x_max":726,"o":"m 726 299 l 332 299 q 341 226 332 244 q 379 202 350 207 q 492 197 408 197 q 699 207 565 197 l 699 17 q 579 -3 657 4 q 421 -11 501 -11 q 163 24 242 -11 q 63 131 83 60 q 42 353 42 203 q 61 576 42 503 q 154 684 81 649 q 390 719 228 719 q 625 687 556 719 q 710 585 694 654 q 726 353 726 517 l 726 299 m 390 532 q 351 526 361 532 q 336 498 340 521 q 332 417 332 475 l 451 417 q 448 499 451 476 q 433 526 444 521 q 390 532 422 532 m 354 849 l 186 849 l 38 1007 l 38 1013 l 258 1013 l 354 854 l 354 849 m 617 849 l 451 849 l 301 1007 l 301 1013 l 524 1013 l 617 854 l 617 849 z "},"ë":{"ha":775,"x_min":42,"x_max":726,"o":"m 726 299 l 332 299 q 341 226 332 244 q 379 202 350 207 q 492 197 408 197 q 699 207 565 197 l 699 17 q 579 -3 657 4 q 421 -11 501 -11 q 163 24 242 -11 q 63 131 83 60 q 42 353 42 203 q 61 576 42 503 q 154 684 81 649 q 390 719 228 719 q 625 687 556 719 q 710 585 694 654 q 726 353 726 517 l 726 299 m 390 532 q 351 526 361 532 q 336 498 340 521 q 332 417 332 475 l 451 417 q 448 499 451 476 q 433 526 444 521 q 390 532 422 532 m 133 842 l 133 1014 l 363 1014 l 363 842 l 133 842 m 438 842 l 438 1014 l 667 1014 l 667 842 l 438 842 z "},"ė":{"ha":775,"x_min":42,"x_max":726,"o":"m 726 299 l 332 299 q 341 226 332 244 q 379 202 350 207 q 492 197 408 197 q 699 207 565 197 l 699 17 q 579 -3 657 4 q 421 -11 501 -11 q 163 24 242 -11 q 63 131 83 60 q 42 353 42 203 q 61 576 42 503 q 154 684 81 649 q 390 719 228 719 q 625 687 556 719 q 710 585 694 654 q 726 353 726 517 l 726 299 m 390 532 q 351 526 361 532 q 336 498 340 521 q 332 417 332 475 l 451 417 q 448 499 451 476 q 433 526 444 521 q 390 532 422 532 m 272 842 l 272 1014 l 501 1014 l 501 842 l 272 842 z "},"ẹ":{"ha":775,"x_min":42,"x_max":726,"o":"m 726 299 l 332 299 q 341 226 332 244 q 379 202 350 207 q 492 197 408 197 q 699 207 565 197 l 699 17 q 579 -3 657 4 q 421 -11 501 -11 q 163 24 242 -11 q 63 131 83 60 q 42 353 42 203 q 61 576 42 503 q 154 684 81 649 q 390 719 228 719 q 625 687 556 719 q 710 585 694 654 q 726 353 726 517 l 726 299 m 390 532 q 351 526 361 532 q 336 498 340 521 q 332 417 332 475 l 451 417 q 448 499 451 476 q 433 526 444 521 q 390 532 422 532 m 235 -324 l 235 -86 l 539 -86 l 539 -324 l 235 -324 z "},"è":{"ha":775,"x_min":42,"x_max":726,"o":"m 726 299 l 332 299 q 341 226 332 244 q 379 202 350 207 q 492 197 408 197 q 699 207 565 197 l 699 17 q 579 -3 657 4 q 421 -11 501 -11 q 163 24 242 -11 q 63 131 83 60 q 42 353 42 203 q 61 576 42 503 q 154 684 81 649 q 390 719 228 719 q 625 687 556 719 q 710 585 694 654 q 726 353 726 517 l 726 299 m 390 532 q 351 526 361 532 q 336 498 340 521 q 332 417 332 475 l 451 417 q 448 499 451 476 q 433 526 444 521 q 390 532 422 532 m 303 826 l 114 1025 l 114 1032 l 389 1032 l 508 833 l 508 826 l 303 826 z "},"ẻ":{"ha":775,"x_min":42,"x_max":726,"o":"m 726 299 l 332 299 q 341 226 332 244 q 379 202 350 207 q 492 197 408 197 q 699 207 565 197 l 699 17 q 579 -3 657 4 q 421 -11 501 -11 q 163 24 242 -11 q 63 131 83 60 q 42 353 42 203 q 61 576 42 503 q 154 684 81 649 q 390 719 228 719 q 625 687 556 719 q 710 585 694 654 q 726 353 726 517 l 726 299 m 390 532 q 351 526 361 532 q 336 498 340 521 q 332 417 332 475 l 451 417 q 448 499 451 476 q 433 526 444 521 q 390 532 422 532 m 276 851 q 290 924 276 904 q 347 954 303 943 l 368 960 q 399 972 392 967 q 406 993 406 978 q 392 1022 406 1017 q 332 1028 378 1028 q 258 1026 299 1028 q 186 1019 218 1024 l 186 1146 q 278 1158 224 1153 q 378 1163 332 1163 q 491 1154 449 1163 q 560 1113 533 1146 q 588 1011 588 1081 q 574 943 588 967 q 540 909 561 919 q 479 888 519 899 l 465 883 q 434 869 442 876 q 426 849 426 861 l 276 849 l 276 851 z "},"ȇ":{"ha":775,"x_min":42,"x_max":726,"o":"m 726 299 l 332 299 q 341 226 332 244 q 379 202 350 207 q 492 197 408 197 q 699 207 565 197 l 699 17 q 579 -3 657 4 q 421 -11 501 -11 q 163 24 242 -11 q 63 131 83 60 q 42 353 42 203 q 61 576 42 503 q 154 684 81 649 q 390 719 228 719 q 625 687 556 719 q 710 585 694 654 q 726 353 726 517 l 726 299 m 390 532 q 351 526 361 532 q 336 498 340 521 q 332 417 332 475 l 451 417 q 448 499 451 476 q 433 526 444 521 q 390 532 422 532 m 163 828 q 180 942 163 896 q 247 1013 197 988 q 388 1039 296 1039 q 528 1013 479 1039 q 594 942 576 988 q 611 828 611 896 l 457 828 q 453 865 457 851 q 435 886 450 878 q 388 894 419 894 q 339 886 354 894 q 320 865 324 878 q 317 828 317 851 l 163 828 z "},"ē":{"ha":775,"x_min":42,"x_max":726,"o":"m 726 299 l 332 299 q 341 226 332 244 q 379 202 350 207 q 492 197 408 197 q 699 207 565 197 l 699 17 q 579 -3 657 4 q 421 -11 501 -11 q 163 24 242 -11 q 63 131 83 60 q 42 353 42 203 q 61 576 42 503 q 154 684 81 649 q 390 719 228 719 q 625 687 556 719 q 710 585 694 654 q 726 353 726 517 l 726 299 m 390 532 q 351 526 361 532 q 336 498 340 521 q 332 417 332 475 l 451 417 q 448 499 451 476 q 433 526 444 521 q 390 532 422 532 m 181 811 l 181 1032 l 594 1032 l 594 811 l 181 811 z "},"ę":{"ha":775,"x_min":42,"x_max":726,"o":"m 726 299 l 332 299 q 341 226 332 244 q 379 202 350 207 q 492 197 408 197 q 699 207 565 197 l 699 17 q 603 -32 646 -1 q 561 -97 561 -62 q 626 -137 561 -137 l 650 -136 l 650 -267 q 531 -272 586 -272 q 374 -238 421 -272 q 328 -154 328 -204 q 422 -11 328 -81 l 421 -11 q 163 24 242 -11 q 63 131 83 60 q 42 353 42 203 q 61 576 42 503 q 154 684 81 649 q 390 719 228 719 q 625 687 556 719 q 710 585 694 654 q 726 353 726 517 l 726 299 m 390 532 q 351 526 361 532 q 336 498 340 521 q 332 417 332 475 l 451 417 q 448 499 451 476 q 433 526 444 521 q 390 532 422 532 z "},"ẽ":{"ha":775,"x_min":42,"x_max":726,"o":"m 726 299 l 332 299 q 341 226 332 244 q 379 202 350 207 q 492 197 408 197 q 699 207 565 197 l 699 17 q 579 -3 657 4 q 421 -11 501 -11 q 163 24 242 -11 q 63 131 83 60 q 42 353 42 203 q 61 576 42 503 q 154 684 81 649 q 390 719 228 719 q 625 687 556 719 q 710 585 694 654 q 726 353 726 517 l 726 299 m 390 532 q 351 526 361 532 q 336 498 340 521 q 332 417 332 475 l 451 417 q 448 499 451 476 q 433 526 444 521 q 390 532 422 532 m 671 1032 q 664 906 671 947 q 626 839 657 864 q 526 814 596 814 q 364 836 472 814 q 320 844 351 839 q 272 850 289 850 q 247 840 251 850 q 242 797 242 829 l 103 797 q 110 924 103 882 q 147 990 117 965 q 247 1015 178 1015 q 410 993 301 1015 q 453 985 422 990 q 501 979 485 979 q 527 990 522 979 q 532 1032 532 1000 l 671 1032 z "},"ə":{"ha":775,"x_min":49,"x_max":733,"o":"m 354 719 q 613 684 533 719 q 713 577 692 649 q 733 356 733 506 q 714 133 733 206 q 621 24 694 60 q 385 -11 547 -11 q 150 22 219 -11 q 65 123 81 54 q 49 356 49 192 l 49 410 l 443 410 q 434 483 443 464 q 396 506 425 501 q 283 511 367 511 q 76 501 210 511 l 76 692 q 196 712 118 704 q 354 719 274 719 m 385 176 q 424 182 414 176 q 439 210 435 188 q 443 292 443 233 l 324 292 q 327 210 324 232 q 342 182 331 188 q 385 176 353 176 z "},"f":{"ha":635,"x_min":24,"x_max":600,"o":"m 142 500 l 24 500 l 24 708 l 142 708 l 142 726 q 174 940 142 879 q 292 1015 207 1000 q 600 1031 378 1031 l 600 840 q 489 836 518 840 q 451 817 460 832 q 443 760 443 801 l 443 708 l 600 708 l 600 500 l 443 500 l 443 0 l 142 0 l 142 500 z "},"g":{"ha":811,"x_min":42,"x_max":750,"o":"m 368 -286 q 224 -281 297 -286 q 104 -265 150 -275 l 104 -78 l 286 -78 q 407 -72 376 -78 q 445 -48 438 -67 q 453 28 453 -29 l 453 93 l 439 93 q 364 28 407 44 q 260 13 321 13 q 134 44 181 13 q 65 152 88 75 q 42 368 42 229 q 64 583 42 507 q 132 690 86 660 q 256 719 178 719 q 366 700 319 719 q 442 629 413 681 l 457 629 l 463 708 l 750 708 l 750 76 q 728 -135 750 -62 q 626 -247 707 -207 q 368 -286 544 -286 m 396 240 q 435 247 425 240 q 449 275 446 253 q 453 365 453 297 q 450 451 453 432 q 436 483 447 476 q 396 490 425 490 q 353 484 364 490 q 340 456 343 478 q 338 365 338 433 q 340 275 338 297 q 353 247 343 253 q 396 240 364 240 z "},"ǵ":{"ha":811,"x_min":42,"x_max":750,"o":"m 368 -286 q 224 -281 297 -286 q 104 -265 150 -275 l 104 -78 l 286 -78 q 407 -72 376 -78 q 445 -48 438 -67 q 453 28 453 -29 l 453 93 l 439 93 q 364 28 407 44 q 260 13 321 13 q 134 44 181 13 q 65 152 88 75 q 42 368 42 229 q 64 583 42 507 q 132 690 86 660 q 256 719 178 719 q 366 700 319 719 q 442 629 413 681 l 457 629 l 463 708 l 750 708 l 750 76 q 728 -135 750 -62 q 626 -247 707 -207 q 368 -286 544 -286 m 396 240 q 435 247 425 240 q 449 275 446 253 q 453 365 453 297 q 450 451 453 432 q 436 483 447 476 q 396 490 425 490 q 353 484 364 490 q 340 456 343 478 q 338 365 338 433 q 340 275 338 297 q 353 247 343 253 q 396 240 364 240 m 304 826 l 304 833 l 424 1032 l 699 1032 l 699 1025 l 510 826 l 304 826 z "},"ğ":{"ha":811,"x_min":42,"x_max":750,"o":"m 368 -286 q 224 -281 297 -286 q 104 -265 150 -275 l 104 -78 l 286 -78 q 407 -72 376 -78 q 445 -48 438 -67 q 453 28 453 -29 l 453 93 l 439 93 q 364 28 407 44 q 260 13 321 13 q 134 44 181 13 q 65 152 88 75 q 42 368 42 229 q 64 583 42 507 q 132 690 86 660 q 256 719 178 719 q 366 700 319 719 q 442 629 413 681 l 457 629 l 463 708 l 750 708 l 750 76 q 728 -135 750 -62 q 626 -247 707 -207 q 368 -286 544 -286 m 396 240 q 435 247 425 240 q 449 275 446 253 q 453 365 453 297 q 450 451 453 432 q 436 483 447 476 q 396 490 425 490 q 353 484 364 490 q 340 456 343 478 q 338 365 338 433 q 340 275 338 297 q 353 247 343 253 q 396 240 364 240 m 629 1032 q 612 918 629 964 q 545 847 594 872 q 404 821 496 821 q 264 847 313 821 q 198 918 215 872 q 181 1032 181 964 l 335 1032 q 338 995 335 1008 q 357 974 342 982 q 404 965 372 965 q 453 974 438 965 q 472 995 468 982 q 475 1032 475 1008 l 629 1032 z "},"ǧ":{"ha":811,"x_min":42,"x_max":750,"o":"m 368 -286 q 224 -281 297 -286 q 104 -265 150 -275 l 104 -78 l 286 -78 q 407 -72 376 -78 q 445 -48 438 -67 q 453 28 453 -29 l 453 93 l 439 93 q 364 28 407 44 q 260 13 321 13 q 134 44 181 13 q 65 152 88 75 q 42 368 42 229 q 64 583 42 507 q 132 690 86 660 q 256 719 178 719 q 366 700 319 719 q 442 629 413 681 l 457 629 l 463 708 l 750 708 l 750 76 q 728 -135 750 -62 q 626 -247 707 -207 q 368 -286 544 -286 m 396 240 q 435 247 425 240 q 449 275 446 253 q 453 365 453 297 q 450 451 453 432 q 436 483 447 476 q 396 490 425 490 q 353 484 364 490 q 340 456 343 478 q 338 365 338 433 q 340 275 338 297 q 353 247 343 253 q 396 240 364 240 m 274 826 l 150 1021 l 150 1032 l 336 1032 l 408 932 l 475 1032 l 661 1032 l 661 1021 l 536 826 l 274 826 z "},"ĝ":{"ha":811,"x_min":42,"x_max":750,"o":"m 368 -286 q 224 -281 297 -286 q 104 -265 150 -275 l 104 -78 l 286 -78 q 407 -72 376 -78 q 445 -48 438 -67 q 453 28 453 -29 l 453 93 l 439 93 q 364 28 407 44 q 260 13 321 13 q 134 44 181 13 q 65 152 88 75 q 42 368 42 229 q 64 583 42 507 q 132 690 86 660 q 256 719 178 719 q 366 700 319 719 q 442 629 413 681 l 457 629 l 463 708 l 750 708 l 750 76 q 728 -135 750 -62 q 626 -247 707 -207 q 368 -286 544 -286 m 396 240 q 435 247 425 240 q 449 275 446 253 q 453 365 453 297 q 450 451 453 432 q 436 483 447 476 q 396 490 425 490 q 353 484 364 490 q 340 456 343 478 q 338 365 338 433 q 340 275 338 297 q 353 247 343 253 q 396 240 364 240 m 150 826 l 150 838 l 274 1032 l 536 1032 l 661 838 l 661 826 l 475 826 l 404 926 l 336 826 l 150 826 z "},"ģ":{"ha":811,"x_min":42,"x_max":750,"o":"m 368 -286 q 224 -281 297 -286 q 104 -265 150 -275 l 104 -78 l 286 -78 q 407 -72 376 -78 q 445 -48 438 -67 q 453 28 453 -29 l 453 93 l 439 93 q 364 28 407 44 q 260 13 321 13 q 134 44 181 13 q 65 152 88 75 q 42 368 42 229 q 64 583 42 507 q 132 690 86 660 q 256 719 178 719 q 366 700 319 719 q 442 629 413 681 l 457 629 l 463 708 l 750 708 l 750 76 q 728 -135 750 -62 q 626 -247 707 -207 q 368 -286 544 -286 m 396 240 q 435 247 425 240 q 449 275 446 253 q 453 365 453 297 q 450 451 453 432 q 436 483 447 476 q 396 490 425 490 q 353 484 364 490 q 340 456 343 478 q 338 365 338 433 q 340 275 338 297 q 353 247 343 253 q 396 240 364 240 m 547 1050 q 483 1045 504 1050 q 456 1031 463 1040 q 450 1000 450 1021 l 450 992 l 547 992 l 547 828 l 263 828 l 263 932 q 281 1068 263 1024 q 360 1131 300 1113 q 547 1150 419 1150 l 547 1050 z "},"ġ":{"ha":811,"x_min":42,"x_max":750,"o":"m 368 -286 q 224 -281 297 -286 q 104 -265 150 -275 l 104 -78 l 286 -78 q 407 -72 376 -78 q 445 -48 438 -67 q 453 28 453 -29 l 453 93 l 439 93 q 364 28 407 44 q 260 13 321 13 q 134 44 181 13 q 65 152 88 75 q 42 368 42 229 q 64 583 42 507 q 132 690 86 660 q 256 719 178 719 q 366 700 319 719 q 442 629 413 681 l 457 629 l 463 708 l 750 708 l 750 76 q 728 -135 750 -62 q 626 -247 707 -207 q 368 -286 544 -286 m 396 240 q 435 247 425 240 q 449 275 446 253 q 453 365 453 297 q 450 451 453 432 q 436 483 447 476 q 396 490 425 490 q 353 484 364 490 q 340 456 343 478 q 338 365 338 433 q 340 275 338 297 q 353 247 343 253 q 396 240 364 240 m 290 842 l 290 1014 l 519 1014 l 519 842 l 290 842 z "},"h":{"ha":817,"x_min":61,"x_max":756,"o":"m 458 374 q 456 456 458 435 q 444 483 453 478 q 410 489 435 489 q 373 483 382 489 q 361 457 364 478 q 358 374 358 436 l 358 0 l 61 0 l 61 1032 l 358 1032 l 358 629 l 372 629 q 556 719 431 719 q 686 688 643 719 q 742 600 729 657 q 756 443 756 543 l 756 0 l 458 0 l 458 374 z "},"ħ":{"ha":817,"x_min":-12,"x_max":756,"o":"m 556 719 q 686 688 643 719 q 742 600 729 657 q 756 443 756 543 l 756 0 l 458 0 l 458 374 q 456 456 458 435 q 444 483 453 478 q 410 489 435 489 q 373 483 382 489 q 361 457 364 478 q 358 374 358 436 l 358 0 l 61 0 l 61 765 l -12 765 l -12 956 l 61 956 l 61 1032 l 358 1032 l 358 956 l 524 956 l 524 765 l 358 765 l 358 629 l 372 629 q 556 719 431 719 z "},"ĥ":{"ha":817,"x_min":-46,"x_max":756,"o":"m 458 374 q 456 456 458 435 q 444 483 453 478 q 410 489 435 489 q 373 483 382 489 q 361 457 364 478 q 358 374 358 436 l 358 0 l 61 0 l 61 1032 l 358 1032 l 358 629 l 372 629 q 556 719 431 719 q 686 688 643 719 q 742 600 729 657 q 756 443 756 543 l 756 0 l 458 0 l 458 374 m -46 1074 l -46 1085 l 78 1279 l 340 1279 l 465 1085 l 465 1074 l 279 1074 l 208 1174 l 140 1074 l -46 1074 z "},"ḥ":{"ha":817,"x_min":61,"x_max":756,"o":"m 458 374 q 456 456 458 435 q 444 483 453 478 q 410 489 435 489 q 373 483 382 489 q 361 457 364 478 q 358 374 358 436 l 358 0 l 61 0 l 61 1032 l 358 1032 l 358 629 l 372 629 q 556 719 431 719 q 686 688 643 719 q 742 600 729 657 q 756 443 756 543 l 756 0 l 458 0 l 458 374 m 256 -324 l 256 -86 l 560 -86 l 560 -324 l 256 -324 z "},"i":{"ha":425,"x_min":61,"x_max":364,"o":"m 61 822 l 61 1032 l 364 1032 l 364 822 l 61 822 m 61 0 l 61 708 l 364 708 l 364 0 l 61 0 z "},"ı":{"ha":425,"x_min":61,"x_max":364,"o":"m 61 0 l 61 708 l 364 708 l 364 0 l 61 0 z "},"í":{"ha":425,"x_min":61,"x_max":456,"o":"m 61 0 l 61 708 l 364 708 l 364 0 l 61 0 m 61 826 l 61 833 l 181 1032 l 456 1032 l 456 1025 l 267 826 l 61 826 z "},"ĭ":{"ha":425,"x_min":-12,"x_max":436,"o":"m 61 0 l 61 708 l 364 708 l 364 0 l 61 0 m 436 1032 q 419 918 436 964 q 352 847 401 872 q 211 821 303 821 q 71 847 119 821 q 5 918 22 872 q -12 1032 -12 964 l 142 1032 q 145 995 142 1008 q 164 974 149 982 q 211 965 179 965 q 260 974 244 965 q 278 995 275 982 q 282 1032 282 1008 l 436 1032 z "},"ǐ":{"ha":425,"x_min":-43,"x_max":468,"o":"m 61 0 l 61 708 l 364 708 l 364 0 l 61 0 m 81 826 l -43 1021 l -43 1032 l 143 1032 l 215 932 l 282 1032 l 468 1032 l 468 1021 l 343 826 l 81 826 z "},"î":{"ha":425,"x_min":-43,"x_max":468,"o":"m 61 0 l 61 708 l 364 708 l 364 0 l 61 0 m -43 826 l -43 838 l 81 1032 l 343 1032 l 468 838 l 468 826 l 282 826 l 211 926 l 143 826 l -43 826 z "},"ȉ":{"ha":425,"x_min":-137,"x_max":442,"o":"m 61 0 l 61 708 l 364 708 l 364 0 l 61 0 m 179 849 l 11 849 l -137 1007 l -137 1013 l 83 1013 l 179 854 l 179 849 m 442 849 l 276 849 l 126 1007 l 126 1013 l 349 1013 l 442 854 l 442 849 z "},"ï":{"ha":425,"x_min":-54,"x_max":479,"o":"m 61 0 l 61 708 l 364 708 l 364 0 l 61 0 m -54 842 l -54 1014 l 175 1014 l 175 842 l -54 842 m 250 842 l 250 1014 l 479 1014 l 479 842 l 250 842 z "},"ị":{"ha":425,"x_min":61,"x_max":393,"o":"m 61 822 l 61 1032 l 364 1032 l 364 822 l 61 822 m 61 0 l 61 708 l 364 708 l 364 0 l 61 0 m 89 -324 l 89 -86 l 393 -86 l 393 -324 l 89 -324 z "},"ì":{"ha":425,"x_min":-31,"x_max":364,"o":"m 61 0 l 61 708 l 364 708 l 364 0 l 61 0 m 158 826 l -31 1025 l -31 1032 l 244 1032 l 364 833 l 364 826 l 158 826 z "},"ỉ":{"ha":425,"x_min":11,"x_max":413,"o":"m 61 0 l 61 708 l 364 708 l 364 0 l 61 0 m 101 851 q 115 924 101 904 q 172 954 128 943 l 193 960 q 224 972 217 967 q 231 993 231 978 q 217 1022 231 1017 q 157 1028 203 1028 q 83 1026 124 1028 q 11 1019 43 1024 l 11 1146 q 103 1158 49 1153 q 203 1163 157 1163 q 316 1154 274 1163 q 385 1113 358 1146 q 413 1011 413 1081 q 399 943 413 967 q 365 909 386 919 q 304 888 344 899 l 290 883 q 259 869 267 876 q 251 849 251 861 l 101 849 l 101 851 z "},"ȋ":{"ha":425,"x_min":-12,"x_max":436,"o":"m 61 0 l 61 708 l 364 708 l 364 0 l 61 0 m -12 828 q 5 942 -12 896 q 72 1013 22 988 q 213 1039 121 1039 q 353 1013 304 1039 q 419 942 401 988 q 436 828 436 896 l 282 828 q 278 865 282 851 q 260 886 275 878 q 213 894 244 894 q 164 886 179 894 q 145 865 149 878 q 142 828 142 851 l -12 828 z "},"ĳ":{"ha":850,"x_min":61,"x_max":789,"o":"m 61 822 l 61 1032 l 364 1032 l 364 822 l 61 822 m 61 0 l 61 708 l 364 708 l 364 0 l 61 0 m 486 822 l 486 1032 l 789 1032 l 789 822 l 486 822 m 386 -85 q 453 -78 432 -85 q 481 -56 475 -71 q 486 -14 486 -42 l 486 708 l 789 708 l 789 51 q 759 -169 789 -103 q 650 -256 729 -236 q 386 -276 571 -276 l 386 -85 z "},"ī":{"ha":425,"x_min":6,"x_max":419,"o":"m 61 0 l 61 708 l 364 708 l 364 0 l 61 0 m 6 811 l 6 1032 l 419 1032 l 419 811 l 6 811 z "},"į":{"ha":425,"x_min":42,"x_max":364,"o":"m 326 1014 l 326 842 l 97 842 l 97 1014 l 326 1014 m 364 0 q 300 -39 325 -12 q 275 -96 275 -65 q 340 -137 275 -137 l 364 -136 l 364 -267 q 244 -272 300 -272 q 89 -238 136 -272 q 42 -151 42 -204 q 129 0 42 -75 l 61 0 l 61 708 l 364 708 l 364 0 z "},"ĩ":{"ha":425,"x_min":-72,"x_max":496,"o":"m 61 0 l 61 708 l 364 708 l 364 0 l 61 0 m 496 1032 q 489 906 496 947 q 451 839 482 864 q 351 814 421 814 q 189 836 297 814 q 145 844 176 839 q 97 850 114 850 q 72 840 76 850 q 67 797 67 829 l -72 797 q -65 924 -72 882 q -28 990 -58 965 q 72 1015 3 1015 q 235 993 126 1015 q 278 985 247 990 q 326 979 310 979 q 352 990 347 979 q 357 1032 357 1000 l 496 1032 z "},"j":{"ha":425,"x_min":-39,"x_max":364,"o":"m 61 822 l 61 1032 l 364 1032 l 364 822 l 61 822 m -39 -85 q 28 -78 7 -85 q 56 -56 50 -71 q 61 -14 61 -42 l 61 708 l 364 708 l 364 51 q 334 -169 364 -103 q 225 -256 304 -236 q -39 -276 146 -276 l -39 -85 z "},"ȷ":{"ha":425,"x_min":-39,"x_max":364,"o":"m -39 -85 q 28 -78 7 -85 q 56 -56 50 -71 q 61 -14 61 -42 l 61 708 l 364 708 l 364 51 q 334 -169 364 -103 q 225 -256 304 -236 q -39 -276 146 -276 l -39 -85 z "},"ĵ":{"ha":425,"x_min":-43,"x_max":468,"o":"m -39 -85 q 28 -78 7 -85 q 56 -56 50 -71 q 61 -14 61 -42 l 61 708 l 364 708 l 364 51 q 334 -169 364 -103 q 225 -256 304 -236 q -39 -276 146 -276 l -39 -85 m -43 826 l -43 838 l 81 1032 l 343 1032 l 468 838 l 468 826 l 282 826 l 211 926 l 143 826 l -43 826 z "},"k":{"ha":835,"x_min":61,"x_max":835,"o":"m 510 0 l 371 246 l 358 246 l 358 0 l 61 0 l 61 1032 l 358 1032 l 358 454 l 371 454 l 519 708 l 831 708 l 618 374 l 835 0 l 510 0 z "},"ķ":{"ha":835,"x_min":61,"x_max":835,"o":"m 510 0 l 371 246 l 358 246 l 358 0 l 61 0 l 61 1032 l 358 1032 l 358 454 l 371 454 l 519 708 l 831 708 l 618 374 l 835 0 l 510 0 m 275 -301 q 339 -297 318 -301 q 366 -282 360 -292 q 372 -251 372 -272 l 372 -243 l 275 -243 l 275 -79 l 560 -79 l 560 -183 q 541 -319 560 -275 q 463 -383 522 -364 q 275 -401 403 -401 l 275 -301 z "},"ĸ":{"ha":835,"x_min":61,"x_max":835,"o":"m 510 0 l 371 246 l 358 246 l 358 0 l 61 0 l 61 708 l 358 708 l 358 454 l 371 454 l 519 708 l 831 708 l 618 374 l 835 0 l 510 0 z "},"l":{"ha":425,"x_min":61,"x_max":364,"o":"m 61 0 l 61 1032 l 364 1032 l 364 0 l 61 0 z "},"ĺ":{"ha":425,"x_min":61,"x_max":506,"o":"m 61 0 l 61 1032 l 364 1032 l 364 0 l 61 0 m 111 1074 l 111 1081 l 231 1279 l 506 1279 l 506 1272 l 317 1074 l 111 1074 z "},"ľ":{"ha":604,"x_min":61,"x_max":675,"o":"m 61 0 l 61 1032 l 364 1032 l 364 0 l 61 0 m 407 585 l 419 892 l 419 956 l 675 956 l 675 892 l 604 585 l 407 585 z "},"ļ":{"ha":425,"x_min":61,"x_max":364,"o":"m 61 0 l 61 1032 l 364 1032 l 364 0 l 61 0 m 69 -301 q 133 -297 113 -301 q 160 -282 154 -292 q 167 -251 167 -272 l 167 -243 l 69 -243 l 69 -79 l 354 -79 l 354 -183 q 335 -319 354 -275 q 257 -383 317 -364 q 69 -401 197 -401 l 69 -301 z "},"ŀ":{"ha":636,"x_min":61,"x_max":650,"o":"m 61 0 l 61 1032 l 364 1032 l 364 0 l 61 0 m 407 297 l 407 535 l 650 535 l 650 297 l 407 297 z "},"ǉ":{"ha":850,"x_min":61,"x_max":789,"o":"m 61 0 l 61 1032 l 364 1032 l 364 0 l 61 0 m 486 822 l 486 1032 l 789 1032 l 789 822 l 486 822 m 386 -85 q 453 -78 432 -85 q 481 -56 475 -71 q 486 -14 486 -42 l 486 708 l 789 708 l 789 51 q 759 -169 789 -103 q 650 -256 729 -236 q 386 -276 571 -276 l 386 -85 z "},"ł":{"ha":471,"x_min":7,"x_max":464,"o":"m 83 0 l 83 386 l 7 358 l 7 554 l 83 582 l 83 1032 l 386 1032 l 386 681 l 464 708 l 464 513 l 386 485 l 386 0 l 83 0 z "},"m":{"ha":1201,"x_min":61,"x_max":1140,"o":"m 843 374 q 840 455 843 432 q 828 483 838 478 q 797 489 819 489 q 762 483 771 489 q 751 458 753 478 q 749 374 749 438 l 749 0 l 453 0 l 453 374 q 450 455 453 432 q 438 483 447 478 q 407 489 429 489 q 372 483 381 489 q 360 458 363 478 q 358 374 358 438 l 358 0 l 61 0 l 61 708 l 349 708 l 354 629 l 368 629 q 451 699 401 679 q 554 719 501 719 q 676 699 633 719 q 738 629 718 678 l 751 629 q 939 719 811 719 q 1067 688 1024 719 q 1126 599 1111 657 q 1140 443 1140 540 l 1140 0 l 843 0 l 843 374 z "},"n":{"ha":817,"x_min":61,"x_max":756,"o":"m 458 374 q 456 456 458 435 q 444 483 453 478 q 410 489 435 489 q 373 483 382 489 q 361 457 364 478 q 358 374 358 436 l 358 0 l 61 0 l 61 708 l 349 708 l 354 629 l 368 629 q 451 699 401 679 q 554 719 501 719 q 685 688 642 719 q 742 600 728 657 q 756 443 756 543 l 756 0 l 458 0 l 458 374 z "},"ń":{"ha":817,"x_min":61,"x_max":756,"o":"m 458 374 q 456 456 458 435 q 444 483 453 478 q 410 489 435 489 q 373 483 382 489 q 361 457 364 478 q 358 374 358 436 l 358 0 l 61 0 l 61 708 l 349 708 l 354 629 l 368 629 q 451 699 401 679 q 554 719 501 719 q 685 688 642 719 q 742 600 728 657 q 756 443 756 543 l 756 0 l 458 0 l 458 374 m 307 826 l 307 833 l 426 1032 l 701 1032 l 701 1025 l 513 826 l 307 826 z "},"ŉ":{"ha":1085,"x_min":35,"x_max":1024,"o":"m 35 740 q 99 749 78 740 q 126 776 119 757 q 132 832 132 794 l 132 851 l 35 851 l 35 1032 l 319 1032 l 319 900 q 301 739 319 792 q 222 663 282 686 q 35 640 163 640 l 35 740 m 726 374 q 724 456 726 435 q 712 483 721 478 q 678 489 703 489 q 641 483 650 489 q 629 457 632 478 q 626 374 626 436 l 626 0 l 329 0 l 329 708 l 617 708 l 622 629 l 636 629 q 719 699 669 679 q 822 719 769 719 q 953 688 910 719 q 1010 600 996 657 q 1024 443 1024 543 l 1024 0 l 726 0 l 726 374 z "},"ň":{"ha":817,"x_min":61,"x_max":756,"o":"m 458 374 q 456 456 458 435 q 444 483 453 478 q 410 489 435 489 q 373 483 382 489 q 361 457 364 478 q 358 374 358 436 l 358 0 l 61 0 l 61 708 l 349 708 l 354 629 l 368 629 q 451 699 401 679 q 554 719 501 719 q 685 688 642 719 q 742 600 728 657 q 756 443 756 543 l 756 0 l 458 0 l 458 374 m 276 826 l 153 1021 l 153 1032 l 339 1032 l 411 932 l 478 1032 l 664 1032 l 664 1021 l 539 826 l 276 826 z "},"ņ":{"ha":817,"x_min":61,"x_max":756,"o":"m 458 374 q 456 456 458 435 q 444 483 453 478 q 410 489 435 489 q 373 483 382 489 q 361 457 364 478 q 358 374 358 436 l 358 0 l 61 0 l 61 708 l 349 708 l 354 629 l 368 629 q 451 699 401 679 q 554 719 501 719 q 685 688 642 719 q 742 600 728 657 q 756 443 756 543 l 756 0 l 458 0 l 458 374 m 265 -301 q 329 -297 308 -301 q 356 -282 350 -292 q 363 -251 363 -272 l 363 -243 l 265 -243 l 265 -79 l 550 -79 l 550 -183 q 531 -319 550 -275 q 453 -383 513 -364 q 265 -401 393 -401 l 265 -301 z "},"ṅ":{"ha":817,"x_min":61,"x_max":756,"o":"m 458 374 q 456 456 458 435 q 444 483 453 478 q 410 489 435 489 q 373 483 382 489 q 361 457 364 478 q 358 374 358 436 l 358 0 l 61 0 l 61 708 l 349 708 l 354 629 l 368 629 q 451 699 401 679 q 554 719 501 719 q 685 688 642 719 q 742 600 728 657 q 756 443 756 543 l 756 0 l 458 0 l 458 374 m 293 842 l 293 1014 l 522 1014 l 522 842 l 293 842 z "},"ŋ":{"ha":817,"x_min":61,"x_max":756,"o":"m 554 719 q 685 688 642 719 q 742 600 728 657 q 756 443 756 543 l 756 51 q 726 -169 756 -103 q 619 -256 697 -236 q 358 -276 540 -276 l 358 -85 q 426 -78 404 -85 q 453 -56 447 -71 q 458 -14 458 -42 l 458 374 q 456 456 458 435 q 444 483 453 478 q 410 489 435 489 q 373 483 382 489 q 361 457 364 478 q 358 374 358 436 l 358 0 l 61 0 l 61 708 l 349 708 l 354 629 l 368 629 q 451 699 401 679 q 554 719 501 719 z "},"ɲ":{"ha":817,"x_min":-39,"x_max":756,"o":"m -39 -85 q 28 -78 7 -85 q 56 -56 50 -71 q 61 -14 61 -42 l 61 708 l 349 708 l 354 629 l 368 629 q 451 699 401 679 q 554 719 501 719 q 685 688 642 719 q 742 600 728 657 q 756 443 756 543 l 756 0 l 458 0 l 458 374 q 456 456 458 435 q 444 483 453 478 q 410 489 435 489 q 373 483 382 489 q 361 457 364 478 q 358 374 358 436 l 358 51 q 329 -169 358 -103 q 222 -256 300 -236 q -39 -276 143 -276 l -39 -85 z "},"ǌ":{"ha":1242,"x_min":61,"x_max":1181,"o":"m 458 374 q 456 456 458 435 q 444 483 453 478 q 410 489 435 489 q 373 483 382 489 q 361 457 364 478 q 358 374 358 436 l 358 0 l 61 0 l 61 708 l 349 708 l 354 629 l 368 629 q 451 699 401 679 q 554 719 501 719 q 685 688 642 719 q 742 600 728 657 q 756 443 756 543 l 756 0 l 458 0 l 458 374 m 878 822 l 878 1032 l 1181 1032 l 1181 822 l 878 822 m 778 -85 q 845 -78 824 -85 q 872 -56 867 -71 q 878 -14 878 -42 l 878 708 l 1181 708 l 1181 51 q 1151 -169 1181 -103 q 1042 -256 1121 -236 q 778 -276 963 -276 l 778 -85 z "},"ñ":{"ha":817,"x_min":61,"x_max":756,"o":"m 458 374 q 456 456 458 435 q 444 483 453 478 q 410 489 435 489 q 373 483 382 489 q 361 457 364 478 q 358 374 358 436 l 358 0 l 61 0 l 61 708 l 349 708 l 354 629 l 368 629 q 451 699 401 679 q 554 719 501 719 q 685 688 642 719 q 742 600 728 657 q 756 443 756 543 l 756 0 l 458 0 l 458 374 m 697 1032 q 690 906 697 947 q 653 839 683 864 q 553 814 622 814 q 390 836 499 814 q 347 844 378 839 q 299 850 315 850 q 273 840 278 850 q 268 797 268 829 l 129 797 q 136 924 129 882 q 174 990 143 965 q 274 1015 204 1015 q 436 993 328 1015 q 480 985 449 990 q 528 979 511 979 q 553 990 549 979 q 558 1032 558 1000 l 697 1032 z "},"o":{"ha":793,"x_min":42,"x_max":751,"o":"m 396 -11 q 153 20 226 -11 q 61 122 81 51 q 42 354 42 193 q 61 586 42 515 q 153 688 81 657 q 396 719 226 719 q 639 688 565 719 q 732 586 713 657 q 751 354 751 515 q 732 122 751 193 q 639 20 713 51 q 396 -11 565 -11 m 396 197 q 439 206 428 197 q 453 243 450 214 q 456 354 456 272 q 453 465 456 436 q 439 503 450 494 q 396 511 428 511 q 353 503 364 511 q 340 467 343 494 q 338 354 338 439 q 340 242 338 269 q 353 206 343 214 q 396 197 364 197 z "},"ó":{"ha":793,"x_min":42,"x_max":751,"o":"m 396 -11 q 153 20 226 -11 q 61 122 81 51 q 42 354 42 193 q 61 586 42 515 q 153 688 81 657 q 396 719 226 719 q 639 688 565 719 q 732 586 713 657 q 751 354 751 515 q 732 122 751 193 q 639 20 713 51 q 396 -11 565 -11 m 396 197 q 439 206 428 197 q 453 243 450 214 q 456 354 456 272 q 453 465 456 436 q 439 503 450 494 q 396 511 428 511 q 353 503 364 511 q 340 467 343 494 q 338 354 338 439 q 340 242 338 269 q 353 206 343 214 q 396 197 364 197 m 278 826 l 278 833 l 397 1032 l 672 1032 l 672 1025 l 483 826 l 278 826 z "},"ŏ":{"ha":793,"x_min":42,"x_max":751,"o":"m 396 -11 q 153 20 226 -11 q 61 122 81 51 q 42 354 42 193 q 61 586 42 515 q 153 688 81 657 q 396 719 226 719 q 639 688 565 719 q 732 586 713 657 q 751 354 751 515 q 732 122 751 193 q 639 20 713 51 q 396 -11 565 -11 m 396 197 q 439 206 428 197 q 453 243 450 214 q 456 354 456 272 q 453 465 456 436 q 439 503 450 494 q 396 511 428 511 q 353 503 364 511 q 340 467 343 494 q 338 354 338 439 q 340 242 338 269 q 353 206 343 214 q 396 197 364 197 m 621 1032 q 603 918 621 964 q 537 847 586 872 q 396 821 488 821 q 256 847 304 821 q 190 918 207 872 q 172 1032 172 964 l 326 1032 q 330 995 326 1008 q 349 974 333 982 q 396 965 364 965 q 444 974 429 965 q 463 995 460 982 q 467 1032 467 1008 l 621 1032 z "},"ǒ":{"ha":793,"x_min":42,"x_max":751,"o":"m 396 -11 q 153 20 226 -11 q 61 122 81 51 q 42 354 42 193 q 61 586 42 515 q 153 688 81 657 q 396 719 226 719 q 639 688 565 719 q 732 586 713 657 q 751 354 751 515 q 732 122 751 193 q 639 20 713 51 q 396 -11 565 -11 m 396 197 q 439 206 428 197 q 453 243 450 214 q 456 354 456 272 q 453 465 456 436 q 439 503 450 494 q 396 511 428 511 q 353 503 364 511 q 340 467 343 494 q 338 354 338 439 q 340 242 338 269 q 353 206 343 214 q 396 197 364 197 m 265 826 l 142 1021 l 142 1032 l 328 1032 l 400 932 l 467 1032 l 653 1032 l 653 1021 l 528 826 l 265 826 z "},"ô":{"ha":793,"x_min":42,"x_max":751,"o":"m 396 -11 q 153 20 226 -11 q 61 122 81 51 q 42 354 42 193 q 61 586 42 515 q 153 688 81 657 q 396 719 226 719 q 639 688 565 719 q 732 586 713 657 q 751 354 751 515 q 732 122 751 193 q 639 20 713 51 q 396 -11 565 -11 m 396 197 q 439 206 428 197 q 453 243 450 214 q 456 354 456 272 q 453 465 456 436 q 439 503 450 494 q 396 511 428 511 q 353 503 364 511 q 340 467 343 494 q 338 354 338 439 q 340 242 338 269 q 353 206 343 214 q 396 197 364 197 m 144 826 l 144 838 l 268 1032 l 531 1032 l 656 838 l 656 826 l 469 826 l 399 926 l 331 826 l 144 826 z "},"ố":{"ha":793,"x_min":42,"x_max":793,"o":"m 396 -11 q 153 20 226 -11 q 61 122 81 51 q 42 354 42 193 q 61 586 42 515 q 153 688 81 657 q 396 719 226 719 q 639 688 565 719 q 732 586 713 657 q 751 354 751 515 q 732 122 751 193 q 639 20 713 51 q 396 -11 565 -11 m 396 197 q 439 206 428 197 q 453 243 450 214 q 456 354 456 272 q 453 465 456 436 q 439 503 450 494 q 396 511 428 511 q 353 503 364 511 q 340 467 343 494 q 338 354 338 439 q 340 242 338 269 q 353 206 343 214 q 396 197 364 197 m 140 826 l 140 838 l 264 1032 l 526 1032 l 651 838 l 651 826 l 465 826 l 394 926 l 326 826 l 140 826 m 399 1067 l 399 1074 l 518 1272 l 793 1272 l 793 1265 l 604 1067 l 399 1067 z "},"ộ":{"ha":793,"x_min":42,"x_max":751,"o":"m 396 -11 q 153 20 226 -11 q 61 122 81 51 q 42 354 42 193 q 61 586 42 515 q 153 688 81 657 q 396 719 226 719 q 639 688 565 719 q 732 586 713 657 q 751 354 751 515 q 732 122 751 193 q 639 20 713 51 q 396 -11 565 -11 m 396 197 q 439 206 428 197 q 453 243 450 214 q 456 354 456 272 q 453 465 456 436 q 439 503 450 494 q 396 511 428 511 q 353 503 364 511 q 340 467 343 494 q 338 354 338 439 q 340 242 338 269 q 353 206 343 214 q 396 197 364 197 m 244 -324 l 244 -86 l 549 -86 l 549 -324 l 244 -324 m 142 826 l 142 838 l 265 1032 l 528 1032 l 653 838 l 653 826 l 467 826 l 396 926 l 328 826 l 142 826 z "},"ồ":{"ha":793,"x_min":42,"x_max":751,"o":"m 396 -11 q 153 20 226 -11 q 61 122 81 51 q 42 354 42 193 q 61 586 42 515 q 153 688 81 657 q 396 719 226 719 q 639 688 565 719 q 732 586 713 657 q 751 354 751 515 q 732 122 751 193 q 639 20 713 51 q 396 -11 565 -11 m 396 197 q 439 206 428 197 q 453 243 450 214 q 456 354 456 272 q 453 465 456 436 q 439 503 450 494 q 396 511 428 511 q 353 503 364 511 q 340 467 343 494 q 338 354 338 439 q 340 242 338 269 q 353 206 343 214 q 396 197 364 197 m 125 826 l 125 838 l 249 1032 l 511 1032 l 636 838 l 636 826 l 450 826 l 379 926 l 311 826 l 125 826 m 463 1067 l 274 1265 l 274 1272 l 549 1272 l 668 1074 l 668 1067 l 463 1067 z "},"ổ":{"ha":793,"x_min":42,"x_max":785,"o":"m 396 -11 q 153 20 226 -11 q 61 122 81 51 q 42 354 42 193 q 61 586 42 515 q 153 688 81 657 q 396 719 226 719 q 639 688 565 719 q 732 586 713 657 q 751 354 751 515 q 732 122 751 193 q 639 20 713 51 q 396 -11 565 -11 m 396 197 q 439 206 428 197 q 453 243 450 214 q 456 354 456 272 q 453 465 456 436 q 439 503 450 494 q 396 511 428 511 q 353 503 364 511 q 340 467 343 494 q 338 354 338 439 q 340 242 338 269 q 353 206 343 214 q 396 197 364 197 m 142 826 l 142 838 l 265 1032 l 528 1032 l 653 838 l 653 826 l 467 826 l 396 926 l 328 826 l 142 826 m 474 1064 q 487 1136 474 1117 q 544 1167 500 1156 l 565 1172 q 596 1185 589 1179 q 603 1206 603 1190 q 589 1235 603 1229 q 529 1240 575 1240 q 456 1238 496 1240 q 383 1232 415 1236 l 383 1358 q 475 1370 421 1365 q 575 1375 529 1375 q 688 1367 646 1375 q 758 1326 731 1358 q 785 1224 785 1293 q 772 1156 785 1179 q 738 1122 758 1132 q 676 1100 717 1111 l 663 1096 q 631 1081 639 1089 q 624 1061 624 1074 l 474 1061 l 474 1064 z "},"ỗ":{"ha":793,"x_min":42,"x_max":751,"o":"m 396 -11 q 153 20 226 -11 q 61 122 81 51 q 42 354 42 193 q 61 586 42 515 q 153 688 81 657 q 396 719 226 719 q 639 688 565 719 q 732 586 713 657 q 751 354 751 515 q 732 122 751 193 q 639 20 713 51 q 396 -11 565 -11 m 396 197 q 439 206 428 197 q 453 243 450 214 q 456 354 456 272 q 453 465 456 436 q 439 503 450 494 q 396 511 428 511 q 353 503 364 511 q 340 467 343 494 q 338 354 338 439 q 340 242 338 269 q 353 206 343 214 q 396 197 364 197 m 139 826 l 139 838 l 263 1032 l 525 1032 l 650 838 l 650 826 l 464 826 l 393 926 l 325 826 l 139 826 m 681 1272 q 674 1146 681 1188 q 636 1079 667 1104 q 536 1054 606 1054 q 374 1076 482 1054 q 330 1085 361 1079 q 282 1090 299 1090 q 256 1080 261 1090 q 251 1038 251 1069 l 113 1038 q 119 1164 113 1122 q 157 1231 126 1206 q 257 1256 188 1256 q 419 1233 311 1256 q 463 1225 432 1231 q 511 1219 494 1219 q 537 1230 532 1219 q 542 1272 542 1240 l 681 1272 z "},"ȍ":{"ha":793,"x_min":42,"x_max":751,"o":"m 396 -11 q 153 20 226 -11 q 61 122 81 51 q 42 354 42 193 q 61 586 42 515 q 153 688 81 657 q 396 719 226 719 q 639 688 565 719 q 732 586 713 657 q 751 354 751 515 q 732 122 751 193 q 639 20 713 51 q 396 -11 565 -11 m 396 197 q 439 206 428 197 q 453 243 450 214 q 456 354 456 272 q 453 465 456 436 q 439 503 450 494 q 396 511 428 511 q 353 503 364 511 q 340 467 343 494 q 338 354 338 439 q 340 242 338 269 q 353 206 343 214 q 396 197 364 197 m 364 849 l 196 849 l 47 1007 l 47 1013 l 268 1013 l 364 854 l 364 849 m 626 849 l 461 849 l 311 1007 l 311 1013 l 533 1013 l 626 854 l 626 849 z "},"ö":{"ha":793,"x_min":42,"x_max":751,"o":"m 396 -11 q 153 20 226 -11 q 61 122 81 51 q 42 354 42 193 q 61 586 42 515 q 153 688 81 657 q 396 719 226 719 q 639 688 565 719 q 732 586 713 657 q 751 354 751 515 q 732 122 751 193 q 639 20 713 51 q 396 -11 565 -11 m 396 197 q 439 206 428 197 q 453 243 450 214 q 456 354 456 272 q 453 465 456 436 q 439 503 450 494 q 396 511 428 511 q 353 503 364 511 q 340 467 343 494 q 338 354 338 439 q 340 242 338 269 q 353 206 343 214 q 396 197 364 197 m 133 842 l 133 1014 l 363 1014 l 363 842 l 133 842 m 438 842 l 438 1014 l 667 1014 l 667 842 l 438 842 z "},"ọ":{"ha":793,"x_min":42,"x_max":751,"o":"m 396 -11 q 153 20 226 -11 q 61 122 81 51 q 42 354 42 193 q 61 586 42 515 q 153 688 81 657 q 396 719 226 719 q 639 688 565 719 q 732 586 713 657 q 751 354 751 515 q 732 122 751 193 q 639 20 713 51 q 396 -11 565 -11 m 396 197 q 439 206 428 197 q 453 243 450 214 q 456 354 456 272 q 453 465 456 436 q 439 503 450 494 q 396 511 428 511 q 353 503 364 511 q 340 467 343 494 q 338 354 338 439 q 340 242 338 269 q 353 206 343 214 q 396 197 364 197 m 244 -324 l 244 -86 l 549 -86 l 549 -324 l 244 -324 z "},"ò":{"ha":793,"x_min":42,"x_max":751,"o":"m 396 -11 q 153 20 226 -11 q 61 122 81 51 q 42 354 42 193 q 61 586 42 515 q 153 688 81 657 q 396 719 226 719 q 639 688 565 719 q 732 586 713 657 q 751 354 751 515 q 732 122 751 193 q 639 20 713 51 q 396 -11 565 -11 m 396 197 q 439 206 428 197 q 453 243 450 214 q 456 354 456 272 q 453 465 456 436 q 439 503 450 494 q 396 511 428 511 q 353 503 364 511 q 340 467 343 494 q 338 354 338 439 q 340 242 338 269 q 353 206 343 214 q 396 197 364 197 m 303 826 l 114 1025 l 114 1032 l 389 1032 l 508 833 l 508 826 l 303 826 z "},"ỏ":{"ha":793,"x_min":42,"x_max":751,"o":"m 396 -11 q 153 20 226 -11 q 61 122 81 51 q 42 354 42 193 q 61 586 42 515 q 153 688 81 657 q 396 719 226 719 q 639 688 565 719 q 732 586 713 657 q 751 354 751 515 q 732 122 751 193 q 639 20 713 51 q 396 -11 565 -11 m 396 197 q 439 206 428 197 q 453 243 450 214 q 456 354 456 272 q 453 465 456 436 q 439 503 450 494 q 396 511 428 511 q 353 503 364 511 q 340 467 343 494 q 338 354 338 439 q 340 242 338 269 q 353 206 343 214 q 396 197 364 197 m 286 851 q 299 924 286 904 q 357 954 313 943 l 378 960 q 408 972 401 967 q 415 993 415 978 q 401 1022 415 1017 q 342 1028 388 1028 q 268 1026 308 1028 q 196 1019 228 1024 l 196 1146 q 288 1158 233 1153 q 388 1163 342 1163 q 501 1154 458 1163 q 570 1113 543 1146 q 597 1011 597 1081 q 584 943 597 967 q 550 909 571 919 q 489 888 529 899 l 475 883 q 444 869 451 876 q 436 849 436 861 l 286 849 l 286 851 z "},"ơ":{"ha":793,"x_min":42,"x_max":835,"o":"m 835 831 l 835 813 q 826 714 835 750 q 792 655 818 678 q 717 621 767 632 q 745 522 739 582 q 751 354 751 463 q 732 122 751 193 q 639 20 713 51 q 396 -11 565 -11 q 153 20 226 -11 q 61 122 81 51 q 42 354 42 193 q 61 586 42 515 q 153 688 81 657 q 396 719 226 719 q 565 708 506 719 q 619 719 601 710 q 642 746 636 728 q 647 800 647 764 l 647 831 l 835 831 m 396 197 q 439 206 428 197 q 453 243 450 214 q 456 354 456 272 q 453 465 456 436 q 439 503 450 494 q 396 511 428 511 q 353 503 364 511 q 340 467 343 494 q 338 354 338 439 q 340 242 338 269 q 353 206 343 214 q 396 197 364 197 z "},"ớ":{"ha":793,"x_min":42,"x_max":835,"o":"m 835 831 l 835 813 q 826 714 835 750 q 792 655 818 678 q 717 621 767 632 q 745 522 739 582 q 751 354 751 463 q 732 122 751 193 q 639 20 713 51 q 396 -11 565 -11 q 153 20 226 -11 q 61 122 81 51 q 42 354 42 193 q 61 586 42 515 q 153 688 81 657 q 396 719 226 719 q 565 708 506 719 q 619 719 601 710 q 642 746 636 728 q 647 800 647 764 l 647 831 l 835 831 m 396 197 q 439 206 428 197 q 453 243 450 214 q 456 354 456 272 q 453 465 456 436 q 439 503 450 494 q 396 511 428 511 q 353 503 364 511 q 340 467 343 494 q 338 354 338 439 q 340 242 338 269 q 353 206 343 214 q 396 197 364 197 m 296 826 l 296 833 l 415 1032 l 690 1032 l 690 1025 l 501 826 l 296 826 z "},"ợ":{"ha":793,"x_min":42,"x_max":835,"o":"m 835 831 l 835 813 q 826 714 835 750 q 792 655 818 678 q 717 621 767 632 q 745 522 739 582 q 751 354 751 463 q 732 122 751 193 q 639 20 713 51 q 396 -11 565 -11 q 153 20 226 -11 q 61 122 81 51 q 42 354 42 193 q 61 586 42 515 q 153 688 81 657 q 396 719 226 719 q 565 708 506 719 q 619 719 601 710 q 642 746 636 728 q 647 800 647 764 l 647 831 l 835 831 m 396 197 q 439 206 428 197 q 453 243 450 214 q 456 354 456 272 q 453 465 456 436 q 439 503 450 494 q 396 511 428 511 q 353 503 364 511 q 340 467 343 494 q 338 354 338 439 q 340 242 338 269 q 353 206 343 214 q 396 197 364 197 m 244 -324 l 244 -86 l 549 -86 l 549 -324 l 244 -324 z "},"ờ":{"ha":793,"x_min":42,"x_max":835,"o":"m 835 831 l 835 813 q 826 714 835 750 q 792 655 818 678 q 717 621 767 632 q 745 522 739 582 q 751 354 751 463 q 732 122 751 193 q 639 20 713 51 q 396 -11 565 -11 q 153 20 226 -11 q 61 122 81 51 q 42 354 42 193 q 61 586 42 515 q 153 688 81 657 q 396 719 226 719 q 565 708 506 719 q 619 719 601 710 q 642 746 636 728 q 647 800 647 764 l 647 831 l 835 831 m 396 197 q 439 206 428 197 q 453 243 450 214 q 456 354 456 272 q 453 465 456 436 q 439 503 450 494 q 396 511 428 511 q 353 503 364 511 q 340 467 343 494 q 338 354 338 439 q 340 242 338 269 q 353 206 343 214 q 396 197 364 197 m 299 826 l 110 1025 l 110 1032 l 385 1032 l 504 833 l 504 826 l 299 826 z "},"ở":{"ha":793,"x_min":42,"x_max":835,"o":"m 835 831 l 835 813 q 826 714 835 750 q 792 655 818 678 q 717 621 767 632 q 745 522 739 582 q 751 354 751 463 q 732 122 751 193 q 639 20 713 51 q 396 -11 565 -11 q 153 20 226 -11 q 61 122 81 51 q 42 354 42 193 q 61 586 42 515 q 153 688 81 657 q 396 719 226 719 q 565 708 506 719 q 619 719 601 710 q 642 746 636 728 q 647 800 647 764 l 647 831 l 835 831 m 396 197 q 439 206 428 197 q 453 243 450 214 q 456 354 456 272 q 453 465 456 436 q 439 503 450 494 q 396 511 428 511 q 353 503 364 511 q 340 467 343 494 q 338 354 338 439 q 340 242 338 269 q 353 206 343 214 q 396 197 364 197 m 286 851 q 299 924 286 904 q 357 954 313 943 l 378 960 q 408 972 401 967 q 415 993 415 978 q 401 1022 415 1017 q 342 1028 388 1028 q 268 1026 308 1028 q 196 1019 228 1024 l 196 1146 q 288 1158 233 1153 q 388 1163 342 1163 q 501 1154 458 1163 q 570 1113 543 1146 q 597 1011 597 1081 q 584 943 597 967 q 550 909 571 919 q 489 888 529 899 l 475 883 q 444 869 451 876 q 436 849 436 861 l 286 849 l 286 851 z "},"ỡ":{"ha":793,"x_min":42,"x_max":835,"o":"m 835 831 l 835 813 q 826 714 835 750 q 792 655 818 678 q 717 621 767 632 q 745 522 739 582 q 751 354 751 463 q 732 122 751 193 q 639 20 713 51 q 396 -11 565 -11 q 153 20 226 -11 q 61 122 81 51 q 42 354 42 193 q 61 586 42 515 q 153 688 81 657 q 396 719 226 719 q 565 708 506 719 q 619 719 601 710 q 642 746 636 728 q 647 800 647 764 l 647 831 l 835 831 m 396 197 q 439 206 428 197 q 453 243 450 214 q 456 354 456 272 q 453 465 456 436 q 439 503 450 494 q 396 511 428 511 q 353 503 364 511 q 340 467 343 494 q 338 354 338 439 q 340 242 338 269 q 353 206 343 214 q 396 197 364 197 m 681 1032 q 674 906 681 947 q 636 839 667 864 q 536 814 606 814 q 374 836 482 814 q 330 844 361 839 q 282 850 299 850 q 256 840 261 850 q 251 797 251 829 l 113 797 q 119 924 113 882 q 157 990 126 965 q 257 1015 188 1015 q 419 993 311 1015 q 463 985 432 990 q 511 979 494 979 q 537 990 532 979 q 542 1032 542 1000 l 681 1032 z "},"ő":{"ha":793,"x_min":42,"x_max":760,"o":"m 396 -11 q 153 20 226 -11 q 61 122 81 51 q 42 354 42 193 q 61 586 42 515 q 153 688 81 657 q 396 719 226 719 q 639 688 565 719 q 732 586 713 657 q 751 354 751 515 q 732 122 751 193 q 639 20 713 51 q 396 -11 565 -11 m 396 197 q 439 206 428 197 q 453 243 450 214 q 456 354 456 272 q 453 465 456 436 q 439 503 450 494 q 396 511 428 511 q 353 503 364 511 q 340 467 343 494 q 338 354 338 439 q 340 242 338 269 q 353 206 343 214 q 396 197 364 197 m 181 849 l 181 854 l 274 1013 l 496 1013 l 496 1007 l 346 849 l 181 849 m 443 849 l 443 854 l 539 1013 l 760 1013 l 760 1007 l 611 849 l 443 849 z "},"ȏ":{"ha":793,"x_min":42,"x_max":751,"o":"m 396 -11 q 153 20 226 -11 q 61 122 81 51 q 42 354 42 193 q 61 586 42 515 q 153 688 81 657 q 396 719 226 719 q 639 688 565 719 q 732 586 713 657 q 751 354 751 515 q 732 122 751 193 q 639 20 713 51 q 396 -11 565 -11 m 396 197 q 439 206 428 197 q 453 243 450 214 q 456 354 456 272 q 453 465 456 436 q 439 503 450 494 q 396 511 428 511 q 353 503 364 511 q 340 467 343 494 q 338 354 338 439 q 340 242 338 269 q 353 206 343 214 q 396 197 364 197 m 172 828 q 190 942 172 896 q 256 1013 207 988 q 397 1039 306 1039 q 538 1013 489 1039 q 603 942 586 988 q 621 828 621 896 l 467 828 q 463 865 467 851 q 444 886 460 878 q 397 894 429 894 q 349 886 364 894 q 330 865 333 878 q 326 828 326 851 l 172 828 z "},"ō":{"ha":793,"x_min":42,"x_max":751,"o":"m 396 -11 q 153 20 226 -11 q 61 122 81 51 q 42 354 42 193 q 61 586 42 515 q 153 688 81 657 q 396 719 226 719 q 639 688 565 719 q 732 586 713 657 q 751 354 751 515 q 732 122 751 193 q 639 20 713 51 q 396 -11 565 -11 m 396 197 q 439 206 428 197 q 453 243 450 214 q 456 354 456 272 q 453 465 456 436 q 439 503 450 494 q 396 511 428 511 q 353 503 364 511 q 340 467 343 494 q 338 354 338 439 q 340 242 338 269 q 353 206 343 214 q 396 197 364 197 m 190 811 l 190 1032 l 604 1032 l 604 811 l 190 811 z "},"ǫ":{"ha":793,"x_min":42,"x_max":751,"o":"m 647 24 q 585 -19 611 6 q 560 -90 560 -44 q 573 -126 560 -114 q 625 -137 586 -137 l 649 -136 l 649 -267 q 529 -272 585 -272 q 326 -149 326 -272 q 383 -11 326 -82 q 149 22 219 -8 q 60 122 79 51 q 42 354 42 192 q 61 586 42 515 q 153 688 81 657 q 396 719 226 719 q 639 688 565 719 q 732 586 713 657 q 751 354 751 515 q 745 185 751 244 q 717 88 739 126 q 647 24 694 49 m 338 354 q 340 242 338 269 q 353 206 343 214 q 396 197 364 197 q 439 206 428 197 q 453 243 450 214 q 456 354 456 272 q 453 465 456 436 q 439 503 450 494 q 396 511 428 511 q 353 503 364 511 q 340 467 343 494 q 338 354 338 439 z "},"ø":{"ha":793,"x_min":42,"x_max":751,"o":"m 110 46 q 53 149 65 82 q 42 354 42 217 q 61 586 42 515 q 153 688 81 657 q 396 719 226 719 q 474 717 426 719 l 510 785 l 751 785 l 683 661 q 739 556 726 624 q 751 354 751 489 q 732 122 751 193 q 639 20 713 51 q 396 -11 565 -11 q 319 -10 343 -11 l 283 -76 l 43 -76 l 110 46 m 396 197 q 439 206 428 197 q 453 243 450 214 q 456 354 456 272 q 453 465 456 436 q 439 503 450 494 q 396 511 428 511 q 353 503 364 511 q 340 467 343 494 q 338 354 338 439 q 340 242 338 269 q 353 206 343 214 q 396 197 364 197 z "},"ǿ":{"ha":793,"x_min":42,"x_max":751,"o":"m 110 46 q 53 149 65 82 q 42 354 42 217 q 61 586 42 515 q 153 688 81 657 q 396 719 226 719 q 474 717 426 719 l 510 785 l 751 785 l 683 661 q 739 556 726 624 q 751 354 751 489 q 732 122 751 193 q 639 20 713 51 q 396 -11 565 -11 q 319 -10 343 -11 l 283 -76 l 43 -76 l 110 46 m 396 197 q 439 206 428 197 q 453 243 450 214 q 456 354 456 272 q 453 465 456 436 q 439 503 450 494 q 396 511 428 511 q 353 503 364 511 q 340 467 343 494 q 338 354 338 439 q 340 242 338 269 q 353 206 343 214 q 396 197 364 197 m 296 826 l 296 833 l 415 1032 l 690 1032 l 690 1025 l 501 826 l 296 826 z "},"õ":{"ha":793,"x_min":42,"x_max":751,"o":"m 396 -11 q 153 20 226 -11 q 61 122 81 51 q 42 354 42 193 q 61 586 42 515 q 153 688 81 657 q 396 719 226 719 q 639 688 565 719 q 732 586 713 657 q 751 354 751 515 q 732 122 751 193 q 639 20 713 51 q 396 -11 565 -11 m 396 197 q 439 206 428 197 q 453 243 450 214 q 456 354 456 272 q 453 465 456 436 q 439 503 450 494 q 396 511 428 511 q 353 503 364 511 q 340 467 343 494 q 338 354 338 439 q 340 242 338 269 q 353 206 343 214 q 396 197 364 197 m 685 1032 q 678 906 685 947 q 640 839 671 864 q 540 814 610 814 q 378 836 486 814 q 334 844 365 839 q 286 850 303 850 q 260 840 265 850 q 256 797 256 829 l 117 797 q 124 924 117 882 q 161 990 131 965 q 261 1015 192 1015 q 424 993 315 1015 q 467 985 436 990 q 515 979 499 979 q 541 990 536 979 q 546 1032 546 1000 l 685 1032 z "},"œ":{"ha":1194,"x_min":42,"x_max":1146,"o":"m 1146 299 l 751 299 q 760 226 751 244 q 799 202 769 207 q 911 197 828 197 q 1118 207 985 197 l 1118 17 q 1008 -3 1081 4 q 863 -11 936 -11 q 614 47 700 -11 q 385 -11 536 -11 q 150 20 221 -11 q 60 122 79 51 q 42 354 42 193 q 60 586 42 515 q 150 688 79 657 q 385 719 221 719 q 608 663 533 719 q 832 719 690 719 q 1051 687 986 719 q 1131 585 1117 654 q 1146 353 1146 517 l 1146 299 m 810 532 q 770 526 781 532 q 756 498 760 521 q 751 417 751 475 l 871 417 q 867 499 871 476 q 853 526 864 521 q 810 532 842 532 m 396 197 q 439 206 428 197 q 453 243 450 214 q 456 354 456 272 q 453 465 456 436 q 439 503 450 494 q 396 511 428 511 q 353 503 364 511 q 340 467 343 494 q 338 354 338 439 q 340 242 338 269 q 353 206 343 214 q 396 197 364 197 z "},"p":{"ha":811,"x_min":61,"x_max":769,"o":"m 61 708 l 349 708 l 354 629 l 369 629 q 445 700 399 681 q 556 719 492 719 q 679 688 633 719 q 747 578 725 657 q 769 357 769 500 q 747 134 769 214 q 677 22 724 54 q 551 -10 631 -10 q 447 6 490 -10 q 372 71 404 22 l 358 71 l 358 -276 l 61 -276 l 61 708 m 415 218 q 458 224 447 218 q 471 255 468 231 q 474 354 474 279 q 471 453 474 429 q 458 484 468 478 q 415 490 447 490 q 377 485 388 490 q 363 457 367 479 q 358 354 358 435 q 361 254 358 269 q 376 224 365 231 q 415 218 388 218 z "},"þ":{"ha":811,"x_min":61,"x_max":769,"o":"m 61 1032 l 358 1032 l 358 629 l 374 629 q 448 700 403 681 q 556 719 493 719 q 679 688 633 719 q 747 578 725 657 q 769 357 769 500 q 747 134 769 214 q 677 22 724 54 q 551 -10 631 -10 q 447 6 490 -10 q 372 71 404 22 l 358 71 l 358 -262 l 61 -262 l 61 1032 m 415 218 q 458 224 447 218 q 471 255 468 231 q 474 354 474 279 q 471 453 474 429 q 458 484 468 478 q 415 490 447 490 q 375 483 386 490 q 361 449 364 476 q 358 354 358 426 q 361 257 358 271 q 376 224 365 231 q 415 218 388 218 z "},"q":{"ha":811,"x_min":42,"x_max":750,"o":"m 453 71 l 439 71 q 364 6 407 22 q 260 -10 321 -10 q 134 22 181 -10 q 65 134 88 54 q 42 357 42 214 q 64 578 42 500 q 132 688 86 657 q 256 719 178 719 q 366 700 319 719 q 442 629 413 681 l 457 629 l 463 708 l 750 708 l 750 -276 l 453 -276 l 453 71 m 396 218 q 431 222 421 218 q 447 244 442 226 q 452 283 451 254 q 453 354 453 313 q 452 421 453 392 q 447 464 451 450 q 431 485 442 481 q 396 490 421 490 q 353 484 364 490 q 340 453 343 478 q 338 354 338 429 q 340 255 338 279 q 353 224 343 231 q 396 218 364 218 z "},"r":{"ha":608,"x_min":61,"x_max":581,"o":"m 61 708 l 349 708 l 354 590 l 368 590 q 447 692 399 664 q 581 719 494 719 l 581 461 q 447 444 493 461 q 379 379 400 426 q 358 238 358 332 l 358 0 l 61 0 l 61 708 z "},"ŕ":{"ha":608,"x_min":61,"x_max":597,"o":"m 61 708 l 349 708 l 354 590 l 368 590 q 447 692 399 664 q 581 719 494 719 l 581 461 q 447 444 493 461 q 379 379 400 426 q 358 238 358 332 l 358 0 l 61 0 l 61 708 m 203 826 l 203 833 l 322 1032 l 597 1032 l 597 1025 l 408 826 l 203 826 z "},"ř":{"ha":608,"x_min":49,"x_max":581,"o":"m 61 708 l 349 708 l 354 590 l 368 590 q 447 692 399 664 q 581 719 494 719 l 581 461 q 447 444 493 461 q 379 379 400 426 q 358 238 358 332 l 358 0 l 61 0 l 61 708 m 172 826 l 49 1021 l 49 1032 l 235 1032 l 307 932 l 374 1032 l 560 1032 l 560 1021 l 435 826 l 172 826 z "},"ŗ":{"ha":608,"x_min":61,"x_max":581,"o":"m 61 708 l 349 708 l 354 590 l 368 590 q 447 692 399 664 q 581 719 494 719 l 581 461 q 447 444 493 461 q 379 379 400 426 q 358 238 358 332 l 358 0 l 61 0 l 61 708 m 67 -301 q 131 -297 110 -301 q 158 -282 151 -292 q 164 -251 164 -272 l 164 -243 l 67 -243 l 67 -79 l 351 -79 l 351 -183 q 333 -319 351 -275 q 254 -383 314 -364 q 67 -401 194 -401 l 67 -301 z "},"ȑ":{"ha":608,"x_min":-46,"x_max":581,"o":"m 61 708 l 349 708 l 354 590 l 368 590 q 447 692 399 664 q 581 719 494 719 l 581 461 q 447 444 493 461 q 379 379 400 426 q 358 238 358 332 l 358 0 l 61 0 l 61 708 m 271 849 l 103 849 l -46 1007 l -46 1013 l 175 1013 l 271 854 l 271 849 m 533 849 l 368 849 l 218 1007 l 218 1013 l 440 1013 l 533 854 l 533 849 z "},"ṛ":{"ha":608,"x_min":57,"x_max":581,"o":"m 61 708 l 349 708 l 354 590 l 368 590 q 447 692 399 664 q 581 719 494 719 l 581 461 q 447 444 493 461 q 379 379 400 426 q 358 238 358 332 l 358 0 l 61 0 l 61 708 m 57 -324 l 57 -86 l 361 -86 l 361 -324 l 57 -324 z "},"ȓ":{"ha":608,"x_min":61,"x_max":581,"o":"m 61 708 l 349 708 l 354 590 l 368 590 q 447 692 399 664 q 581 719 494 719 l 581 461 q 447 444 493 461 q 379 379 400 426 q 358 238 358 332 l 358 0 l 61 0 l 61 708 m 79 828 q 97 942 79 896 q 163 1013 114 988 q 304 1039 213 1039 q 444 1013 396 1039 q 510 942 493 988 q 528 828 528 896 l 374 828 q 370 865 374 851 q 351 886 367 878 q 304 894 336 894 q 256 886 271 894 q 237 865 240 878 q 233 828 233 851 l 79 828 z "},"s":{"ha":697,"x_min":36,"x_max":661,"o":"m 367 -11 q 207 -6 293 -11 q 58 8 121 0 l 58 197 q 251 188 181 188 q 351 190 325 188 q 383 197 376 192 q 389 221 389 203 q 385 235 389 231 q 368 242 382 239 q 321 250 354 246 l 156 271 q 60 335 83 281 q 36 501 36 390 q 76 644 36 596 q 181 706 115 692 q 347 719 246 719 q 499 714 421 719 q 622 700 578 708 l 622 511 q 436 521 486 521 q 347 519 371 521 q 315 513 322 518 q 308 494 308 508 q 311 478 308 482 q 326 471 314 474 q 368 464 338 468 l 508 446 q 592 422 560 439 q 642 358 624 404 q 661 226 661 313 q 624 69 661 121 q 526 3 586 17 q 367 -11 465 -11 z "},"ś":{"ha":697,"x_min":36,"x_max":661,"o":"m 367 -11 q 207 -6 293 -11 q 58 8 121 0 l 58 197 q 251 188 181 188 q 351 190 325 188 q 383 197 376 192 q 389 221 389 203 q 385 235 389 231 q 368 242 382 239 q 321 250 354 246 l 156 271 q 60 335 83 281 q 36 501 36 390 q 76 644 36 596 q 181 706 115 692 q 347 719 246 719 q 499 714 421 719 q 622 700 578 708 l 622 511 q 436 521 486 521 q 347 519 371 521 q 315 513 322 518 q 308 494 308 508 q 311 478 308 482 q 326 471 314 474 q 368 464 338 468 l 508 446 q 592 422 560 439 q 642 358 624 404 q 661 226 661 313 q 624 69 661 121 q 526 3 586 17 q 367 -11 465 -11 m 247 826 l 247 833 l 367 1032 l 642 1032 l 642 1025 l 453 826 l 247 826 z "},"ꞌ":{"ha":347,"x_min":46,"x_max":301,"o":"m 46 363 l 46 1032 l 301 1032 l 301 725 l 243 363 l 46 363 z "},"š":{"ha":697,"x_min":36,"x_max":661,"o":"m 367 -11 q 207 -6 293 -11 q 58 8 121 0 l 58 197 q 251 188 181 188 q 351 190 325 188 q 383 197 376 192 q 389 221 389 203 q 385 235 389 231 q 368 242 382 239 q 321 250 354 246 l 156 271 q 60 335 83 281 q 36 501 36 390 q 76 644 36 596 q 181 706 115 692 q 347 719 246 719 q 499 714 421 719 q 622 700 578 708 l 622 511 q 436 521 486 521 q 347 519 371 521 q 315 513 322 518 q 308 494 308 508 q 311 478 308 482 q 326 471 314 474 q 368 464 338 468 l 508 446 q 592 422 560 439 q 642 358 624 404 q 661 226 661 313 q 624 69 661 121 q 526 3 586 17 q 367 -11 465 -11 m 221 826 l 97 1021 l 97 1032 l 283 1032 l 356 932 l 422 1032 l 608 1032 l 608 1021 l 483 826 l 221 826 z "},"ş":{"ha":697,"x_min":36,"x_max":661,"o":"m 661 226 q 606 47 661 96 q 443 -10 550 -3 l 400 -262 l 140 -262 l 140 -256 l 247 -8 q 58 8 128 -1 l 58 197 q 251 188 181 188 q 351 190 325 188 q 383 197 376 192 q 389 221 389 203 q 385 235 389 231 q 368 242 382 239 q 321 250 354 246 l 156 271 q 60 335 83 281 q 36 501 36 390 q 76 644 36 596 q 181 706 115 692 q 347 719 246 719 q 499 714 421 719 q 622 700 578 708 l 622 511 q 436 521 486 521 q 347 519 371 521 q 315 513 322 518 q 308 494 308 508 q 311 478 308 482 q 326 471 314 474 q 368 464 338 468 l 508 446 q 592 422 560 439 q 642 358 624 404 q 661 226 661 313 z "},"ŝ":{"ha":697,"x_min":36,"x_max":661,"o":"m 367 -11 q 207 -6 293 -11 q 58 8 121 0 l 58 197 q 251 188 181 188 q 351 190 325 188 q 383 197 376 192 q 389 221 389 203 q 385 235 389 231 q 368 242 382 239 q 321 250 354 246 l 156 271 q 60 335 83 281 q 36 501 36 390 q 76 644 36 596 q 181 706 115 692 q 347 719 246 719 q 499 714 421 719 q 622 700 578 708 l 622 511 q 436 521 486 521 q 347 519 371 521 q 315 513 322 518 q 308 494 308 508 q 311 478 308 482 q 326 471 314 474 q 368 464 338 468 l 508 446 q 592 422 560 439 q 642 358 624 404 q 661 226 661 313 q 624 69 661 121 q 526 3 586 17 q 367 -11 465 -11 m 93 826 l 93 838 l 217 1032 l 479 1032 l 604 838 l 604 826 l 418 826 l 347 926 l 279 826 l 93 826 z "},"ș":{"ha":697,"x_min":36,"x_max":661,"o":"m 367 -11 q 207 -6 293 -11 q 58 8 121 0 l 58 197 q 251 188 181 188 q 351 190 325 188 q 383 197 376 192 q 389 221 389 203 q 385 235 389 231 q 368 242 382 239 q 321 250 354 246 l 156 271 q 60 335 83 281 q 36 501 36 390 q 76 644 36 596 q 181 706 115 692 q 347 719 246 719 q 499 714 421 719 q 622 700 578 708 l 622 511 q 436 521 486 521 q 347 519 371 521 q 315 513 322 518 q 308 494 308 508 q 311 478 308 482 q 326 471 314 474 q 368 464 338 468 l 508 446 q 592 422 560 439 q 642 358 624 404 q 661 226 661 313 q 624 69 661 121 q 526 3 586 17 q 367 -11 465 -11 m 206 -301 q 269 -297 249 -301 q 297 -282 290 -292 q 303 -251 303 -272 l 303 -243 l 206 -243 l 206 -79 l 490 -79 l 490 -183 q 472 -319 490 -275 q 393 -383 453 -364 q 206 -401 333 -401 l 206 -301 z "},"ṣ":{"ha":697,"x_min":36,"x_max":661,"o":"m 367 -11 q 207 -6 293 -11 q 58 8 121 0 l 58 197 q 251 188 181 188 q 351 190 325 188 q 383 197 376 192 q 389 221 389 203 q 385 235 389 231 q 368 242 382 239 q 321 250 354 246 l 156 271 q 60 335 83 281 q 36 501 36 390 q 76 644 36 596 q 181 706 115 692 q 347 719 246 719 q 499 714 421 719 q 622 700 578 708 l 622 511 q 436 521 486 521 q 347 519 371 521 q 315 513 322 518 q 308 494 308 508 q 311 478 308 482 q 326 471 314 474 q 368 464 338 468 l 508 446 q 592 422 560 439 q 642 358 624 404 q 661 226 661 313 q 624 69 661 121 q 526 3 586 17 q 367 -11 465 -11 m 196 -324 l 196 -86 l 500 -86 l 500 -324 l 196 -324 z "},"ß":{"ha":843,"x_min":61,"x_max":801,"o":"m 418 0 l 418 208 l 425 208 q 476 215 463 208 q 496 249 490 221 q 501 346 501 276 q 496 445 501 417 q 475 480 490 474 q 421 486 460 486 l 411 486 l 411 694 l 421 694 q 468 698 456 694 q 483 715 481 701 q 486 765 486 728 q 475 823 486 811 q 429 835 464 835 q 383 830 397 835 q 364 808 369 825 q 358 754 358 792 l 358 0 l 61 0 l 61 778 q 94 928 61 871 q 207 1013 128 985 q 422 1042 286 1042 q 645 1013 565 1042 q 757 933 725 985 q 789 801 789 881 q 750 661 789 708 q 628 600 711 614 l 628 594 q 759 518 717 578 q 801 329 801 458 q 773 130 801 199 q 671 31 744 61 q 453 0 597 0 l 418 0 z "},"ſ":{"ha":607,"x_min":24,"x_max":600,"o":"m 142 500 l 24 500 l 24 708 l 142 708 l 142 726 q 174 940 142 879 q 292 1015 207 1000 q 600 1031 378 1031 l 600 840 q 489 836 518 840 q 451 817 460 832 q 443 760 443 801 l 443 0 l 142 0 l 142 500 z "},"t":{"ha":608,"x_min":24,"x_max":585,"o":"m 140 0 l 140 500 l 24 500 l 24 708 l 140 708 l 140 914 l 443 914 l 443 708 l 585 708 l 585 500 l 443 500 l 443 0 l 140 0 z "},"ŧ":{"ha":608,"x_min":24,"x_max":585,"o":"m 585 500 l 443 500 l 443 394 l 581 394 l 581 204 l 443 204 l 443 0 l 140 0 l 140 204 l 26 204 l 26 394 l 140 394 l 140 500 l 24 500 l 24 708 l 140 708 l 140 914 l 443 914 l 443 708 l 585 708 l 585 500 z "},"ť":{"ha":817,"x_min":24,"x_max":890,"o":"m 140 0 l 140 500 l 24 500 l 24 708 l 140 708 l 140 914 l 443 914 l 443 708 l 585 708 l 585 500 l 443 500 l 443 0 l 140 0 m 622 585 l 635 892 l 635 956 l 890 956 l 890 892 l 819 585 l 622 585 z "},"ţ":{"ha":608,"x_min":24,"x_max":585,"o":"m 443 708 l 585 708 l 585 500 l 443 500 l 443 0 l 388 0 l 343 -262 l 83 -262 l 83 -256 l 194 0 l 140 0 l 140 500 l 24 500 l 24 708 l 140 708 l 140 914 l 443 914 l 443 708 z "},"ț":{"ha":608,"x_min":24,"x_max":585,"o":"m 140 0 l 140 500 l 24 500 l 24 708 l 140 708 l 140 914 l 443 914 l 443 708 l 585 708 l 585 500 l 443 500 l 443 0 l 140 0 m 149 -301 q 213 -297 192 -301 q 240 -282 233 -292 q 246 -251 246 -272 l 246 -243 l 149 -243 l 149 -79 l 433 -79 l 433 -183 q 415 -319 433 -275 q 336 -383 396 -364 q 149 -401 276 -401 l 149 -301 z "},"ṭ":{"ha":608,"x_min":24,"x_max":585,"o":"m 140 0 l 140 500 l 24 500 l 24 708 l 140 708 l 140 914 l 443 914 l 443 708 l 585 708 l 585 500 l 443 500 l 443 0 l 140 0 m 139 -324 l 139 -86 l 443 -86 l 443 -324 l 139 -324 z "},"u":{"ha":817,"x_min":61,"x_max":756,"o":"m 463 79 l 449 79 q 365 9 415 29 q 263 -11 315 -11 q 132 20 175 -11 q 75 108 89 51 q 61 265 61 165 l 61 708 l 358 708 l 358 335 q 361 252 358 274 q 373 225 364 231 q 407 219 382 219 q 444 225 435 219 q 456 251 453 231 q 458 335 458 272 l 458 708 l 756 708 l 756 0 l 468 0 l 463 79 z "},"ú":{"ha":817,"x_min":61,"x_max":756,"o":"m 463 79 l 449 79 q 365 9 415 29 q 263 -11 315 -11 q 132 20 175 -11 q 75 108 89 51 q 61 265 61 165 l 61 708 l 358 708 l 358 335 q 361 252 358 274 q 373 225 364 231 q 407 219 382 219 q 444 225 435 219 q 456 251 453 231 q 458 335 458 272 l 458 708 l 756 708 l 756 0 l 468 0 l 463 79 m 311 826 l 311 833 l 431 1032 l 706 1032 l 706 1025 l 517 826 l 311 826 z "},"ŭ":{"ha":817,"x_min":61,"x_max":756,"o":"m 463 79 l 449 79 q 365 9 415 29 q 263 -11 315 -11 q 132 20 175 -11 q 75 108 89 51 q 61 265 61 165 l 61 708 l 358 708 l 358 335 q 361 252 358 274 q 373 225 364 231 q 407 219 382 219 q 444 225 435 219 q 456 251 453 231 q 458 335 458 272 l 458 708 l 756 708 l 756 0 l 468 0 l 463 79 m 632 1032 q 615 918 632 964 q 548 847 597 872 q 407 821 499 821 q 267 847 315 821 q 201 918 218 872 q 183 1032 183 964 l 338 1032 q 341 995 338 1008 q 360 974 344 982 q 407 965 375 965 q 456 974 440 965 q 474 995 471 982 q 478 1032 478 1008 l 632 1032 z "},"ǔ":{"ha":817,"x_min":61,"x_max":756,"o":"m 463 79 l 449 79 q 365 9 415 29 q 263 -11 315 -11 q 132 20 175 -11 q 75 108 89 51 q 61 265 61 165 l 61 708 l 358 708 l 358 335 q 361 252 358 274 q 373 225 364 231 q 407 219 382 219 q 444 225 435 219 q 456 251 453 231 q 458 335 458 272 l 458 708 l 756 708 l 756 0 l 468 0 l 463 79 m 276 826 l 153 1021 l 153 1032 l 339 1032 l 411 932 l 478 1032 l 664 1032 l 664 1021 l 539 826 l 276 826 z "},"û":{"ha":817,"x_min":61,"x_max":756,"o":"m 463 79 l 449 79 q 365 9 415 29 q 263 -11 315 -11 q 132 20 175 -11 q 75 108 89 51 q 61 265 61 165 l 61 708 l 358 708 l 358 335 q 361 252 358 274 q 373 225 364 231 q 407 219 382 219 q 444 225 435 219 q 456 251 453 231 q 458 335 458 272 l 458 708 l 756 708 l 756 0 l 468 0 l 463 79 m 153 826 l 153 838 l 276 1032 l 539 1032 l 664 838 l 664 826 l 478 826 l 407 926 l 339 826 l 153 826 z "},"ȕ":{"ha":817,"x_min":58,"x_max":756,"o":"m 463 79 l 449 79 q 365 9 415 29 q 263 -11 315 -11 q 132 20 175 -11 q 75 108 89 51 q 61 265 61 165 l 61 708 l 358 708 l 358 335 q 361 252 358 274 q 373 225 364 231 q 407 219 382 219 q 444 225 435 219 q 456 251 453 231 q 458 335 458 272 l 458 708 l 756 708 l 756 0 l 468 0 l 463 79 m 375 849 l 207 849 l 58 1007 l 58 1013 l 279 1013 l 375 854 l 375 849 m 638 849 l 472 849 l 322 1007 l 322 1013 l 544 1013 l 638 854 l 638 849 z "},"ü":{"ha":817,"x_min":61,"x_max":756,"o":"m 463 79 l 449 79 q 365 9 415 29 q 263 -11 315 -11 q 132 20 175 -11 q 75 108 89 51 q 61 265 61 165 l 61 708 l 358 708 l 358 335 q 361 252 358 274 q 373 225 364 231 q 407 219 382 219 q 444 225 435 219 q 456 251 453 231 q 458 335 458 272 l 458 708 l 756 708 l 756 0 l 468 0 l 463 79 m 142 842 l 142 1014 l 371 1014 l 371 842 l 142 842 m 446 842 l 446 1014 l 675 1014 l 675 842 l 446 842 z "},"ǘ":{"ha":817,"x_min":61,"x_max":756,"o":"m 463 79 l 449 79 q 365 9 415 29 q 263 -11 315 -11 q 132 20 175 -11 q 75 108 89 51 q 61 265 61 165 l 61 708 l 358 708 l 358 335 q 361 252 358 274 q 373 225 364 231 q 407 219 382 219 q 444 225 435 219 q 456 251 453 231 q 458 335 458 272 l 458 708 l 756 708 l 756 0 l 468 0 l 463 79 m 142 842 l 142 1014 l 371 1014 l 371 842 l 142 842 m 446 842 l 446 1014 l 675 1014 l 675 842 l 446 842 m 310 1049 l 310 1056 l 429 1254 l 704 1254 l 704 1247 l 515 1049 l 310 1049 z "},"ǚ":{"ha":817,"x_min":61,"x_max":756,"o":"m 463 79 l 449 79 q 365 9 415 29 q 263 -11 315 -11 q 132 20 175 -11 q 75 108 89 51 q 61 265 61 165 l 61 708 l 358 708 l 358 335 q 361 252 358 274 q 373 225 364 231 q 407 219 382 219 q 444 225 435 219 q 456 251 453 231 q 458 335 458 272 l 458 708 l 756 708 l 756 0 l 468 0 l 463 79 m 142 842 l 142 1014 l 371 1014 l 371 842 l 142 842 m 446 842 l 446 1014 l 675 1014 l 675 842 l 446 842 m 279 1049 l 156 1243 l 156 1254 l 342 1254 l 414 1154 l 481 1254 l 667 1254 l 667 1243 l 542 1049 l 279 1049 z "},"ǜ":{"ha":817,"x_min":61,"x_max":756,"o":"m 463 79 l 449 79 q 365 9 415 29 q 263 -11 315 -11 q 132 20 175 -11 q 75 108 89 51 q 61 265 61 165 l 61 708 l 358 708 l 358 335 q 361 252 358 274 q 373 225 364 231 q 407 219 382 219 q 444 225 435 219 q 456 251 453 231 q 458 335 458 272 l 458 708 l 756 708 l 756 0 l 468 0 l 463 79 m 142 842 l 142 1014 l 371 1014 l 371 842 l 142 842 m 446 842 l 446 1014 l 675 1014 l 675 842 l 446 842 m 313 1049 l 124 1247 l 124 1254 l 399 1254 l 518 1056 l 518 1049 l 313 1049 z "},"ǖ":{"ha":817,"x_min":61,"x_max":756,"o":"m 463 79 l 449 79 q 365 9 415 29 q 263 -11 315 -11 q 132 20 175 -11 q 75 108 89 51 q 61 265 61 165 l 61 708 l 358 708 l 358 335 q 361 252 358 274 q 373 225 364 231 q 407 219 382 219 q 444 225 435 219 q 456 251 453 231 q 458 335 458 272 l 458 708 l 756 708 l 756 0 l 468 0 l 463 79 m 142 842 l 142 1014 l 371 1014 l 371 842 l 142 842 m 446 842 l 446 1014 l 675 1014 l 675 842 l 446 842 m 204 1033 l 204 1254 l 618 1254 l 618 1033 l 204 1033 z "},"ụ":{"ha":817,"x_min":61,"x_max":756,"o":"m 463 79 l 449 79 q 365 9 415 29 q 263 -11 315 -11 q 132 20 175 -11 q 75 108 89 51 q 61 265 61 165 l 61 708 l 358 708 l 358 335 q 361 252 358 274 q 373 225 364 231 q 407 219 382 219 q 444 225 435 219 q 456 251 453 231 q 458 335 458 272 l 458 708 l 756 708 l 756 0 l 468 0 l 463 79 m 242 -324 l 242 -86 l 546 -86 l 546 -324 l 242 -324 z "},"ù":{"ha":817,"x_min":61,"x_max":756,"o":"m 463 79 l 449 79 q 365 9 415 29 q 263 -11 315 -11 q 132 20 175 -11 q 75 108 89 51 q 61 265 61 165 l 61 708 l 358 708 l 358 335 q 361 252 358 274 q 373 225 364 231 q 407 219 382 219 q 444 225 435 219 q 456 251 453 231 q 458 335 458 272 l 458 708 l 756 708 l 756 0 l 468 0 l 463 79 m 308 826 l 119 1025 l 119 1032 l 394 1032 l 514 833 l 514 826 l 308 826 z "},"ủ":{"ha":817,"x_min":61,"x_max":756,"o":"m 463 79 l 449 79 q 365 9 415 29 q 263 -11 315 -11 q 132 20 175 -11 q 75 108 89 51 q 61 265 61 165 l 61 708 l 358 708 l 358 335 q 361 252 358 274 q 373 225 364 231 q 407 219 382 219 q 444 225 435 219 q 456 251 453 231 q 458 335 458 272 l 458 708 l 756 708 l 756 0 l 468 0 l 463 79 m 297 851 q 310 924 297 904 q 368 954 324 943 l 389 960 q 419 972 413 967 q 426 993 426 978 q 413 1022 426 1017 q 353 1028 399 1028 q 279 1026 319 1028 q 207 1019 239 1024 l 207 1146 q 299 1158 244 1153 q 399 1163 353 1163 q 512 1154 469 1163 q 581 1113 554 1146 q 608 1011 608 1081 q 595 943 608 967 q 561 909 582 919 q 500 888 540 899 l 486 883 q 455 869 463 876 q 447 849 447 861 l 297 849 l 297 851 z "}}}
